<?xml version="1.0" encoding="us-ascii" standalone="no"?><svg xmlns="http://www.w3.org/2000/svg" xmlns:xlink="http://www.w3.org/1999/xlink" contentStyleType="text/css" height="787px" preserveAspectRatio="none" style="width:2470px;height:787px;background:#FFFFFF;" version="1.1" viewBox="0 0 2470 787" width="2470px" zoomAndPan="magnify"><defs/><g><!--cluster startup--><g id="cluster_startup"><path d="M8.5,200.0137 L59.5,200.0137 A3.75,3.75 0 0 1 62,202.5137 L69,224.6348 L2460.5,224.6348 A2.5,2.5 0 0 1 2463,227.1348 L2463,777.5137 A2.5,2.5 0 0 1 2460.5,780.0137 L8.5,780.0137 A2.5,2.5 0 0 1 6,777.5137 L6,202.5137 A2.5,2.5 0 0 1 8.5,200.0137 " fill="none" style="stroke:#000000;stroke-width:1.5;"/><line style="stroke:#000000;stroke-width:1.5;" x1="6" x2="69" y1="224.6348" y2="224.6348"/><text fill="#000000" font-family="sans-serif" font-size="14" font-weight="bold" lengthAdjust="spacing" textLength="50" x="10" y="217.1211">startup</text></g><!--cluster models--><g id="cluster_models"><path d="M32.5,245.0137 L84.5,245.0137 A3.75,3.75 0 0 1 87,247.5137 L94,269.6348 L2436.5,269.6348 A2.5,2.5 0 0 1 2439,272.1348 L2439,753.5137 A2.5,2.5 0 0 1 2436.5,756.0137 L32.5,756.0137 A2.5,2.5 0 0 1 30,753.5137 L30,247.5137 A2.5,2.5 0 0 1 32.5,245.0137 " fill="none" style="stroke:#000000;stroke-width:1.5;"/><line style="stroke:#000000;stroke-width:1.5;" x1="30" x2="94" y1="269.6348" y2="269.6348"/><text fill="#000000" font-family="sans-serif" font-size="14" font-weight="bold" lengthAdjust="spacing" textLength="51" x="34" y="262.1211">models</text></g><!--cluster user--><g id="cluster_user"><path d="M56.5,290.0137 L89.5,290.0137 A3.75,3.75 0 0 1 92,292.5137 L99,314.6348 L2412.5,314.6348 A2.5,2.5 0 0 1 2415,317.1348 L2415,729.5137 A2.5,2.5 0 0 1 2412.5,732.0137 L56.5,732.0137 A2.5,2.5 0 0 1 54,729.5137 L54,292.5137 A2.5,2.5 0 0 1 56.5,290.0137 " fill="none" style="stroke:#000000;stroke-width:1.5;"/><line style="stroke:#000000;stroke-width:1.5;" x1="54" x2="99" y1="314.6348" y2="314.6348"/><text fill="#000000" font-family="sans-serif" font-size="14" font-weight="bold" lengthAdjust="spacing" textLength="32" x="58" y="307.1211">user</text></g><!--cluster _exceptions.dart--><g id="cluster__exceptions.dart"><path d="M80.5,335.0137 L199.5,335.0137 A3.75,3.75 0 0 1 202,337.5137 L209,359.6348 L2388.5,359.6348 A2.5,2.5 0 0 1 2391,362.1348 L2391,705.5137 A2.5,2.5 0 0 1 2388.5,708.0137 L80.5,708.0137 A2.5,2.5 0 0 1 78,705.5137 L78,337.5137 A2.5,2.5 0 0 1 80.5,335.0137 " fill="none" style="stroke:#000000;stroke-width:1.5;"/><line style="stroke:#000000;stroke-width:1.5;" x1="78" x2="209" y1="359.6348" y2="359.6348"/><text fill="#000000" font-family="sans-serif" font-size="14" font-weight="bold" lengthAdjust="spacing" textLength="118" x="82" y="352.1211">_exceptions.dart</text></g><!--cluster dart--><g id="cluster_dart"><path d="M1649.5,6.0137 L1678.5,6.0137 A3.75,3.75 0 0 1 1681,8.5137 L1688,30.6348 L1818.5,30.6348 A2.5,2.5 0 0 1 1821,33.1348 L1821,173.5137 A2.5,2.5 0 0 1 1818.5,176.0137 L1649.5,176.0137 A2.5,2.5 0 0 1 1647,173.5137 L1647,8.5137 A2.5,2.5 0 0 1 1649.5,6.0137 " fill="none" style="stroke:#000000;stroke-width:1.5;"/><line style="stroke:#000000;stroke-width:1.5;" x1="1647" x2="1688" y1="30.6348" y2="30.6348"/><text fill="#000000" font-family="sans-serif" font-size="14" font-weight="bold" lengthAdjust="spacing" textLength="28" x="1651" y="23.1211">dart</text></g><!--cluster core--><g id="cluster_core"><path d="M1673.5,51.0137 L1706.5,51.0137 A3.75,3.75 0 0 1 1709,53.5137 L1716,75.6348 L1794.5,75.6348 A2.5,2.5 0 0 1 1797,78.1348 L1797,149.5137 A2.5,2.5 0 0 1 1794.5,152.0137 L1673.5,152.0137 A2.5,2.5 0 0 1 1671,149.5137 L1671,53.5137 A2.5,2.5 0 0 1 1673.5,51.0137 " fill="none" style="stroke:#000000;stroke-width:1.5;"/><line style="stroke:#000000;stroke-width:1.5;" x1="1671" x2="1716" y1="75.6348" y2="75.6348"/><text fill="#000000" font-family="sans-serif" font-size="14" font-weight="bold" lengthAdjust="spacing" textLength="32" x="1675" y="68.1211">core</text></g><!--class AuthException--><g id="elem_AuthException"><rect codeLine="3" fill="#F1F1F1" height="48" id="AuthException" rx="2.5" ry="2.5" style="stroke:#181818;stroke-width:0.5;" width="122" x="1673" y="372.0137"/><ellipse cx="1688" cy="388.0137" fill="#ADD1B2" rx="11" ry="11" style="stroke:#181818;stroke-width:1.0;"/><path d="M1690.7656,383.8887 Q1690.9219,383.6699 1691.1094,383.5605 Q1691.2969,383.4512 1691.5156,383.4512 Q1691.8906,383.4512 1692.125,383.7168 Q1692.3594,383.9668 1692.3594,384.5762 L1692.3594,386.0293 Q1692.3594,386.6387 1692.125,386.9043 Q1691.8906,387.1699 1691.5156,387.1699 Q1691.1719,387.1699 1690.9688,386.9668 Q1690.7656,386.7793 1690.6563,386.2637 Q1690.6094,385.9043 1690.4219,385.7168 Q1690.0938,385.3418 1689.4844,385.123 Q1688.875,384.9043 1688.25,384.9043 Q1687.4844,384.9043 1686.8438,385.2324 Q1686.2188,385.5605 1685.7188,386.3105 Q1685.2344,387.0605 1685.2344,388.0918 L1685.2344,389.1855 Q1685.2344,390.4199 1686.125,391.248 Q1687.0156,392.0605 1688.6094,392.0605 Q1689.5469,392.0605 1690.2031,391.8105 Q1690.5938,391.6543 1691.0156,391.2168 Q1691.2813,390.9512 1691.4219,390.873 Q1691.5781,390.7949 1691.7813,390.7949 Q1692.1094,390.7949 1692.3594,391.0605 Q1692.625,391.3105 1692.625,391.6543 Q1692.625,391.998 1692.2813,392.4043 Q1691.7813,392.9824 1690.9844,393.3105 Q1689.9063,393.7637 1688.6094,393.7637 Q1687.0938,393.7637 1685.8906,393.1387 Q1684.9063,392.6387 1684.2188,391.5762 Q1683.5313,390.498 1683.5313,389.2168 L1683.5313,388.0605 Q1683.5313,386.7324 1684.1406,385.5918 Q1684.7656,384.4355 1685.8594,383.8262 Q1686.9531,383.2012 1688.1875,383.2012 Q1688.9219,383.2012 1689.5625,383.373 Q1690.2188,383.5293 1690.7656,383.8887 Z " fill="#000000"/><text fill="#000000" font-family="sans-serif" font-size="14" lengthAdjust="spacing" textLength="90" x="1702" y="393.8105">AuthException</text><line style="stroke:#181818;stroke-width:0.5;" x1="1674" x2="1794" y1="404.0137" y2="404.0137"/><line style="stroke:#181818;stroke-width:0.5;" x1="1674" x2="1794" y1="412.0137" y2="412.0137"/></g><!--class AuthEmailException--><g id="elem_AuthEmailException"><rect codeLine="8" fill="#F1F1F1" height="48" id="AuthEmailException" rx="2.5" ry="2.5" style="stroke:#181818;stroke-width:0.5;" width="156" x="619" y="489.5137"/><ellipse cx="634" cy="505.5137" fill="#ADD1B2" rx="11" ry="11" style="stroke:#181818;stroke-width:1.0;"/><path d="M636.7656,501.3887 Q636.9219,501.1699 637.1094,501.0605 Q637.2969,500.9512 637.5156,500.9512 Q637.8906,500.9512 638.125,501.2168 Q638.3594,501.4668 638.3594,502.0762 L638.3594,503.5293 Q638.3594,504.1387 638.125,504.4043 Q637.8906,504.6699 637.5156,504.6699 Q637.1719,504.6699 636.9688,504.4668 Q636.7656,504.2793 636.6563,503.7637 Q636.6094,503.4043 636.4219,503.2168 Q636.0938,502.8418 635.4844,502.623 Q634.875,502.4043 634.25,502.4043 Q633.4844,502.4043 632.8438,502.7324 Q632.2188,503.0605 631.7188,503.8105 Q631.2344,504.5605 631.2344,505.5918 L631.2344,506.6855 Q631.2344,507.9199 632.125,508.748 Q633.0156,509.5605 634.6094,509.5605 Q635.5469,509.5605 636.2031,509.3105 Q636.5938,509.1543 637.0156,508.7168 Q637.2813,508.4512 637.4219,508.373 Q637.5781,508.2949 637.7813,508.2949 Q638.1094,508.2949 638.3594,508.5605 Q638.625,508.8105 638.625,509.1543 Q638.625,509.498 638.2813,509.9043 Q637.7813,510.4824 636.9844,510.8105 Q635.9063,511.2637 634.6094,511.2637 Q633.0938,511.2637 631.8906,510.6387 Q630.9063,510.1387 630.2188,509.0762 Q629.5313,507.998 629.5313,506.7168 L629.5313,505.5605 Q629.5313,504.2324 630.1406,503.0918 Q630.7656,501.9355 631.8594,501.3262 Q632.9531,500.7012 634.1875,500.7012 Q634.9219,500.7012 635.5625,500.873 Q636.2188,501.0293 636.7656,501.3887 Z " fill="#000000"/><text fill="#000000" font-family="sans-serif" font-size="14" lengthAdjust="spacing" textLength="124" x="648" y="511.3105">AuthEmailException</text><line style="stroke:#181818;stroke-width:0.5;" x1="620" x2="774" y1="521.5137" y2="521.5137"/><line style="stroke:#181818;stroke-width:0.5;" x1="620" x2="774" y1="529.5137" y2="529.5137"/></g><!--class AuthPasswordException--><g id="elem_AuthPasswordException"><rect codeLine="13" fill="#F1F1F1" height="48" id="AuthPasswordException" rx="2.5" ry="2.5" style="stroke:#181818;stroke-width:0.5;" width="183" x="1401.5" y="489.5137"/><ellipse cx="1416.5" cy="505.5137" fill="#ADD1B2" rx="11" ry="11" style="stroke:#181818;stroke-width:1.0;"/><path d="M1419.2656,501.3887 Q1419.4219,501.1699 1419.6094,501.0605 Q1419.7969,500.9512 1420.0156,500.9512 Q1420.3906,500.9512 1420.625,501.2168 Q1420.8594,501.4668 1420.8594,502.0762 L1420.8594,503.5293 Q1420.8594,504.1387 1420.625,504.4043 Q1420.3906,504.6699 1420.0156,504.6699 Q1419.6719,504.6699 1419.4688,504.4668 Q1419.2656,504.2793 1419.1563,503.7637 Q1419.1094,503.4043 1418.9219,503.2168 Q1418.5938,502.8418 1417.9844,502.623 Q1417.375,502.4043 1416.75,502.4043 Q1415.9844,502.4043 1415.3438,502.7324 Q1414.7188,503.0605 1414.2188,503.8105 Q1413.7344,504.5605 1413.7344,505.5918 L1413.7344,506.6855 Q1413.7344,507.9199 1414.625,508.748 Q1415.5156,509.5605 1417.1094,509.5605 Q1418.0469,509.5605 1418.7031,509.3105 Q1419.0938,509.1543 1419.5156,508.7168 Q1419.7813,508.4512 1419.9219,508.373 Q1420.0781,508.2949 1420.2813,508.2949 Q1420.6094,508.2949 1420.8594,508.5605 Q1421.125,508.8105 1421.125,509.1543 Q1421.125,509.498 1420.7813,509.9043 Q1420.2813,510.4824 1419.4844,510.8105 Q1418.4063,511.2637 1417.1094,511.2637 Q1415.5938,511.2637 1414.3906,510.6387 Q1413.4063,510.1387 1412.7188,509.0762 Q1412.0313,507.998 1412.0313,506.7168 L1412.0313,505.5605 Q1412.0313,504.2324 1412.6406,503.0918 Q1413.2656,501.9355 1414.3594,501.3262 Q1415.4531,500.7012 1416.6875,500.7012 Q1417.4219,500.7012 1418.0625,500.873 Q1418.7188,501.0293 1419.2656,501.3887 Z " fill="#000000"/><text fill="#000000" font-family="sans-serif" font-size="14" lengthAdjust="spacing" textLength="151" x="1430.5" y="511.3105">AuthPasswordException</text><line style="stroke:#181818;stroke-width:0.5;" x1="1402.5" x2="1583.5" y1="521.5137" y2="521.5137"/><line style="stroke:#181818;stroke-width:0.5;" x1="1402.5" x2="1583.5" y1="529.5137" y2="529.5137"/></g><!--class AuthPasswordRepeatException--><g id="elem_AuthPasswordRepeatException"><rect codeLine="18" fill="#F1F1F1" height="48" id="AuthPasswordRepeatException" rx="2.5" ry="2.5" style="stroke:#181818;stroke-width:0.5;" width="229" x="1619.5" y="489.5137"/><ellipse cx="1634.5" cy="505.5137" fill="#ADD1B2" rx="11" ry="11" style="stroke:#181818;stroke-width:1.0;"/><path d="M1637.2656,501.3887 Q1637.4219,501.1699 1637.6094,501.0605 Q1637.7969,500.9512 1638.0156,500.9512 Q1638.3906,500.9512 1638.625,501.2168 Q1638.8594,501.4668 1638.8594,502.0762 L1638.8594,503.5293 Q1638.8594,504.1387 1638.625,504.4043 Q1638.3906,504.6699 1638.0156,504.6699 Q1637.6719,504.6699 1637.4688,504.4668 Q1637.2656,504.2793 1637.1563,503.7637 Q1637.1094,503.4043 1636.9219,503.2168 Q1636.5938,502.8418 1635.9844,502.623 Q1635.375,502.4043 1634.75,502.4043 Q1633.9844,502.4043 1633.3438,502.7324 Q1632.7188,503.0605 1632.2188,503.8105 Q1631.7344,504.5605 1631.7344,505.5918 L1631.7344,506.6855 Q1631.7344,507.9199 1632.625,508.748 Q1633.5156,509.5605 1635.1094,509.5605 Q1636.0469,509.5605 1636.7031,509.3105 Q1637.0938,509.1543 1637.5156,508.7168 Q1637.7813,508.4512 1637.9219,508.373 Q1638.0781,508.2949 1638.2813,508.2949 Q1638.6094,508.2949 1638.8594,508.5605 Q1639.125,508.8105 1639.125,509.1543 Q1639.125,509.498 1638.7813,509.9043 Q1638.2813,510.4824 1637.4844,510.8105 Q1636.4063,511.2637 1635.1094,511.2637 Q1633.5938,511.2637 1632.3906,510.6387 Q1631.4063,510.1387 1630.7188,509.0762 Q1630.0313,507.998 1630.0313,506.7168 L1630.0313,505.5605 Q1630.0313,504.2324 1630.6406,503.0918 Q1631.2656,501.9355 1632.3594,501.3262 Q1633.4531,500.7012 1634.6875,500.7012 Q1635.4219,500.7012 1636.0625,500.873 Q1636.7188,501.0293 1637.2656,501.3887 Z " fill="#000000"/><text fill="#000000" font-family="sans-serif" font-size="14" lengthAdjust="spacing" textLength="197" x="1648.5" y="511.3105">AuthPasswordRepeatException</text><line style="stroke:#181818;stroke-width:0.5;" x1="1620.5" x2="1847.5" y1="521.5137" y2="521.5137"/><line style="stroke:#181818;stroke-width:0.5;" x1="1620.5" x2="1847.5" y1="529.5137" y2="529.5137"/></g><!--class AuthUnknownException--><g id="elem_AuthUnknownException"><rect codeLine="23" fill="#F1F1F1" height="66.6211" id="AuthUnknownException" rx="2.5" ry="2.5" style="stroke:#181818;stroke-width:0.5;" width="179" x="1883.5" y="480.0137"/><ellipse cx="1898.5" cy="496.0137" fill="#ADD1B2" rx="11" ry="11" style="stroke:#181818;stroke-width:1.0;"/><path d="M1901.2656,491.8887 Q1901.4219,491.6699 1901.6094,491.5605 Q1901.7969,491.4512 1902.0156,491.4512 Q1902.3906,491.4512 1902.625,491.7168 Q1902.8594,491.9668 1902.8594,492.5762 L1902.8594,494.0293 Q1902.8594,494.6387 1902.625,494.9043 Q1902.3906,495.1699 1902.0156,495.1699 Q1901.6719,495.1699 1901.4688,494.9668 Q1901.2656,494.7793 1901.1563,494.2637 Q1901.1094,493.9043 1900.9219,493.7168 Q1900.5938,493.3418 1899.9844,493.123 Q1899.375,492.9043 1898.75,492.9043 Q1897.9844,492.9043 1897.3438,493.2324 Q1896.7188,493.5605 1896.2188,494.3105 Q1895.7344,495.0605 1895.7344,496.0918 L1895.7344,497.1855 Q1895.7344,498.4199 1896.625,499.248 Q1897.5156,500.0605 1899.1094,500.0605 Q1900.0469,500.0605 1900.7031,499.8105 Q1901.0938,499.6543 1901.5156,499.2168 Q1901.7813,498.9512 1901.9219,498.873 Q1902.0781,498.7949 1902.2813,498.7949 Q1902.6094,498.7949 1902.8594,499.0605 Q1903.125,499.3105 1903.125,499.6543 Q1903.125,499.998 1902.7813,500.4043 Q1902.2813,500.9824 1901.4844,501.3105 Q1900.4063,501.7637 1899.1094,501.7637 Q1897.5938,501.7637 1896.3906,501.1387 Q1895.4063,500.6387 1894.7188,499.5762 Q1894.0313,498.498 1894.0313,497.2168 L1894.0313,496.0605 Q1894.0313,494.7324 1894.6406,493.5918 Q1895.2656,492.4355 1896.3594,491.8262 Q1897.4531,491.2012 1898.6875,491.2012 Q1899.4219,491.2012 1900.0625,491.373 Q1900.7188,491.5293 1901.2656,491.8887 Z " fill="#000000"/><text fill="#000000" font-family="sans-serif" font-size="14" lengthAdjust="spacing" textLength="147" x="1912.5" y="501.8105">AuthUnknownException</text><line style="stroke:#181818;stroke-width:0.5;" x1="1884.5" x2="2061.5" y1="512.0137" y2="512.0137"/><line style="stroke:#181818;stroke-width:0.5;" x1="1884.5" x2="2061.5" y1="520.0137" y2="520.0137"/><ellipse cx="1894.5" cy="534.8242" fill="#84BE84" rx="3" ry="3" style="stroke:#038048;stroke-width:1.0;"/><text fill="#000000" font-family="sans-serif" font-size="14" lengthAdjust="spacing" textLength="100" x="1903.5" y="539.1211">String toString()</text></g><!--class AuthCredentialsInvalidException--><g id="elem_AuthCredentialsInvalidException"><rect codeLine="29" fill="#F1F1F1" height="66.6211" id="AuthCredentialsInvalidException" rx="2.5" ry="2.5" style="stroke:#181818;stroke-width:0.5;" width="234" x="2098" y="480.0137"/><ellipse cx="2113" cy="496.0137" fill="#ADD1B2" rx="11" ry="11" style="stroke:#181818;stroke-width:1.0;"/><path d="M2115.7656,491.8887 Q2115.9219,491.6699 2116.1094,491.5605 Q2116.2969,491.4512 2116.5156,491.4512 Q2116.8906,491.4512 2117.125,491.7168 Q2117.3594,491.9668 2117.3594,492.5762 L2117.3594,494.0293 Q2117.3594,494.6387 2117.125,494.9043 Q2116.8906,495.1699 2116.5156,495.1699 Q2116.1719,495.1699 2115.9688,494.9668 Q2115.7656,494.7793 2115.6563,494.2637 Q2115.6094,493.9043 2115.4219,493.7168 Q2115.0938,493.3418 2114.4844,493.123 Q2113.875,492.9043 2113.25,492.9043 Q2112.4844,492.9043 2111.8438,493.2324 Q2111.2188,493.5605 2110.7188,494.3105 Q2110.2344,495.0605 2110.2344,496.0918 L2110.2344,497.1855 Q2110.2344,498.4199 2111.125,499.248 Q2112.0156,500.0605 2113.6094,500.0605 Q2114.5469,500.0605 2115.2031,499.8105 Q2115.5938,499.6543 2116.0156,499.2168 Q2116.2813,498.9512 2116.4219,498.873 Q2116.5781,498.7949 2116.7813,498.7949 Q2117.1094,498.7949 2117.3594,499.0605 Q2117.625,499.3105 2117.625,499.6543 Q2117.625,499.998 2117.2813,500.4043 Q2116.7813,500.9824 2115.9844,501.3105 Q2114.9063,501.7637 2113.6094,501.7637 Q2112.0938,501.7637 2110.8906,501.1387 Q2109.9063,500.6387 2109.2188,499.5762 Q2108.5313,498.498 2108.5313,497.2168 L2108.5313,496.0605 Q2108.5313,494.7324 2109.1406,493.5918 Q2109.7656,492.4355 2110.8594,491.8262 Q2111.9531,491.2012 2113.1875,491.2012 Q2113.9219,491.2012 2114.5625,491.373 Q2115.2188,491.5293 2115.7656,491.8887 Z " fill="#000000"/><text fill="#000000" font-family="sans-serif" font-size="14" lengthAdjust="spacing" textLength="202" x="2127" y="501.8105">AuthCredentialsInvalidException</text><line style="stroke:#181818;stroke-width:0.5;" x1="2099" x2="2331" y1="512.0137" y2="512.0137"/><line style="stroke:#181818;stroke-width:0.5;" x1="2099" x2="2331" y1="520.0137" y2="520.0137"/><ellipse cx="2109" cy="534.8242" fill="#84BE84" rx="3" ry="3" style="stroke:#038048;stroke-width:1.0;"/><text fill="#000000" font-family="sans-serif" font-size="14" lengthAdjust="spacing" textLength="100" x="2118" y="539.1211">String toString()</text></g><!--class AuthEmailInvalidException--><g id="elem_AuthEmailInvalidException"><rect codeLine="35" fill="#F1F1F1" height="66.6211" id="AuthEmailInvalidException" rx="2.5" ry="2.5" style="stroke:#181818;stroke-width:0.5;" width="196" x="94" y="616.0137"/><ellipse cx="109" cy="632.0137" fill="#ADD1B2" rx="11" ry="11" style="stroke:#181818;stroke-width:1.0;"/><path d="M111.7656,627.8887 Q111.9219,627.6699 112.1094,627.5605 Q112.2969,627.4512 112.5156,627.4512 Q112.8906,627.4512 113.125,627.7168 Q113.3594,627.9668 113.3594,628.5762 L113.3594,630.0293 Q113.3594,630.6387 113.125,630.9043 Q112.8906,631.1699 112.5156,631.1699 Q112.1719,631.1699 111.9688,630.9668 Q111.7656,630.7793 111.6563,630.2637 Q111.6094,629.9043 111.4219,629.7168 Q111.0938,629.3418 110.4844,629.123 Q109.875,628.9043 109.25,628.9043 Q108.4844,628.9043 107.8438,629.2324 Q107.2188,629.5605 106.7188,630.3105 Q106.2344,631.0605 106.2344,632.0918 L106.2344,633.1855 Q106.2344,634.4199 107.125,635.248 Q108.0156,636.0605 109.6094,636.0605 Q110.5469,636.0605 111.2031,635.8105 Q111.5938,635.6543 112.0156,635.2168 Q112.2813,634.9512 112.4219,634.873 Q112.5781,634.7949 112.7813,634.7949 Q113.1094,634.7949 113.3594,635.0605 Q113.625,635.3105 113.625,635.6543 Q113.625,635.998 113.2813,636.4043 Q112.7813,636.9824 111.9844,637.3105 Q110.9063,637.7637 109.6094,637.7637 Q108.0938,637.7637 106.8906,637.1387 Q105.9063,636.6387 105.2188,635.5762 Q104.5313,634.498 104.5313,633.2168 L104.5313,632.0605 Q104.5313,630.7324 105.1406,629.5918 Q105.7656,628.4355 106.8594,627.8262 Q107.9531,627.2012 109.1875,627.2012 Q109.9219,627.2012 110.5625,627.373 Q111.2188,627.5293 111.7656,627.8887 Z " fill="#000000"/><text fill="#000000" font-family="sans-serif" font-size="14" lengthAdjust="spacing" textLength="164" x="123" y="637.8105">AuthEmailInvalidException</text><line style="stroke:#181818;stroke-width:0.5;" x1="95" x2="289" y1="648.0137" y2="648.0137"/><line style="stroke:#181818;stroke-width:0.5;" x1="95" x2="289" y1="656.0137" y2="656.0137"/><ellipse cx="105" cy="670.8242" fill="#84BE84" rx="3" ry="3" style="stroke:#038048;stroke-width:1.0;"/><text fill="#000000" font-family="sans-serif" font-size="14" lengthAdjust="spacing" textLength="100" x="114" y="675.1211">String toString()</text></g><!--class AuthEmailAlreadyInUseException--><g id="elem_AuthEmailAlreadyInUseException"><rect codeLine="41" fill="#F1F1F1" height="66.6211" id="AuthEmailAlreadyInUseException" rx="2.5" ry="2.5" style="stroke:#181818;stroke-width:0.5;" width="239" x="325.5" y="616.0137"/><ellipse cx="340.5" cy="632.0137" fill="#ADD1B2" rx="11" ry="11" style="stroke:#181818;stroke-width:1.0;"/><path d="M343.2656,627.8887 Q343.4219,627.6699 343.6094,627.5605 Q343.7969,627.4512 344.0156,627.4512 Q344.3906,627.4512 344.625,627.7168 Q344.8594,627.9668 344.8594,628.5762 L344.8594,630.0293 Q344.8594,630.6387 344.625,630.9043 Q344.3906,631.1699 344.0156,631.1699 Q343.6719,631.1699 343.4688,630.9668 Q343.2656,630.7793 343.1563,630.2637 Q343.1094,629.9043 342.9219,629.7168 Q342.5938,629.3418 341.9844,629.123 Q341.375,628.9043 340.75,628.9043 Q339.9844,628.9043 339.3438,629.2324 Q338.7188,629.5605 338.2188,630.3105 Q337.7344,631.0605 337.7344,632.0918 L337.7344,633.1855 Q337.7344,634.4199 338.625,635.248 Q339.5156,636.0605 341.1094,636.0605 Q342.0469,636.0605 342.7031,635.8105 Q343.0938,635.6543 343.5156,635.2168 Q343.7813,634.9512 343.9219,634.873 Q344.0781,634.7949 344.2813,634.7949 Q344.6094,634.7949 344.8594,635.0605 Q345.125,635.3105 345.125,635.6543 Q345.125,635.998 344.7813,636.4043 Q344.2813,636.9824 343.4844,637.3105 Q342.4063,637.7637 341.1094,637.7637 Q339.5938,637.7637 338.3906,637.1387 Q337.4063,636.6387 336.7188,635.5762 Q336.0313,634.498 336.0313,633.2168 L336.0313,632.0605 Q336.0313,630.7324 336.6406,629.5918 Q337.2656,628.4355 338.3594,627.8262 Q339.4531,627.2012 340.6875,627.2012 Q341.4219,627.2012 342.0625,627.373 Q342.7188,627.5293 343.2656,627.8887 Z " fill="#000000"/><text fill="#000000" font-family="sans-serif" font-size="14" lengthAdjust="spacing" textLength="207" x="354.5" y="637.8105">AuthEmailAlreadyInUseException</text><line style="stroke:#181818;stroke-width:0.5;" x1="326.5" x2="563.5" y1="648.0137" y2="648.0137"/><line style="stroke:#181818;stroke-width:0.5;" x1="326.5" x2="563.5" y1="656.0137" y2="656.0137"/><ellipse cx="336.5" cy="670.8242" fill="#84BE84" rx="3" ry="3" style="stroke:#038048;stroke-width:1.0;"/><text fill="#000000" font-family="sans-serif" font-size="14" lengthAdjust="spacing" textLength="100" x="345.5" y="675.1211">String toString()</text></g><!--class AuthEmailEmptyException--><g id="elem_AuthEmailEmptyException"><rect codeLine="47" fill="#F1F1F1" height="66.6211" id="AuthEmailEmptyException" rx="2.5" ry="2.5" style="stroke:#181818;stroke-width:0.5;" width="195" x="599.5" y="616.0137"/><ellipse cx="614.5" cy="632.0137" fill="#ADD1B2" rx="11" ry="11" style="stroke:#181818;stroke-width:1.0;"/><path d="M617.2656,627.8887 Q617.4219,627.6699 617.6094,627.5605 Q617.7969,627.4512 618.0156,627.4512 Q618.3906,627.4512 618.625,627.7168 Q618.8594,627.9668 618.8594,628.5762 L618.8594,630.0293 Q618.8594,630.6387 618.625,630.9043 Q618.3906,631.1699 618.0156,631.1699 Q617.6719,631.1699 617.4688,630.9668 Q617.2656,630.7793 617.1563,630.2637 Q617.1094,629.9043 616.9219,629.7168 Q616.5938,629.3418 615.9844,629.123 Q615.375,628.9043 614.75,628.9043 Q613.9844,628.9043 613.3438,629.2324 Q612.7188,629.5605 612.2188,630.3105 Q611.7344,631.0605 611.7344,632.0918 L611.7344,633.1855 Q611.7344,634.4199 612.625,635.248 Q613.5156,636.0605 615.1094,636.0605 Q616.0469,636.0605 616.7031,635.8105 Q617.0938,635.6543 617.5156,635.2168 Q617.7813,634.9512 617.9219,634.873 Q618.0781,634.7949 618.2813,634.7949 Q618.6094,634.7949 618.8594,635.0605 Q619.125,635.3105 619.125,635.6543 Q619.125,635.998 618.7813,636.4043 Q618.2813,636.9824 617.4844,637.3105 Q616.4063,637.7637 615.1094,637.7637 Q613.5938,637.7637 612.3906,637.1387 Q611.4063,636.6387 610.7188,635.5762 Q610.0313,634.498 610.0313,633.2168 L610.0313,632.0605 Q610.0313,630.7324 610.6406,629.5918 Q611.2656,628.4355 612.3594,627.8262 Q613.4531,627.2012 614.6875,627.2012 Q615.4219,627.2012 616.0625,627.373 Q616.7188,627.5293 617.2656,627.8887 Z " fill="#000000"/><text fill="#000000" font-family="sans-serif" font-size="14" lengthAdjust="spacing" textLength="163" x="628.5" y="637.8105">AuthEmailEmptyException</text><line style="stroke:#181818;stroke-width:0.5;" x1="600.5" x2="793.5" y1="648.0137" y2="648.0137"/><line style="stroke:#181818;stroke-width:0.5;" x1="600.5" x2="793.5" y1="656.0137" y2="656.0137"/><ellipse cx="610.5" cy="670.8242" fill="#84BE84" rx="3" ry="3" style="stroke:#038048;stroke-width:1.0;"/><text fill="#000000" font-family="sans-serif" font-size="14" lengthAdjust="spacing" textLength="100" x="619.5" y="675.1211">String toString()</text></g><!--class AuthEmailNotFoundException--><g id="elem_AuthEmailNotFoundException"><rect codeLine="53" fill="#F1F1F1" height="66.6211" id="AuthEmailNotFoundException" rx="2.5" ry="2.5" style="stroke:#181818;stroke-width:0.5;" width="218" x="830" y="616.0137"/><ellipse cx="845" cy="632.0137" fill="#ADD1B2" rx="11" ry="11" style="stroke:#181818;stroke-width:1.0;"/><path d="M847.7656,627.8887 Q847.9219,627.6699 848.1094,627.5605 Q848.2969,627.4512 848.5156,627.4512 Q848.8906,627.4512 849.125,627.7168 Q849.3594,627.9668 849.3594,628.5762 L849.3594,630.0293 Q849.3594,630.6387 849.125,630.9043 Q848.8906,631.1699 848.5156,631.1699 Q848.1719,631.1699 847.9688,630.9668 Q847.7656,630.7793 847.6563,630.2637 Q847.6094,629.9043 847.4219,629.7168 Q847.0938,629.3418 846.4844,629.123 Q845.875,628.9043 845.25,628.9043 Q844.4844,628.9043 843.8438,629.2324 Q843.2188,629.5605 842.7188,630.3105 Q842.2344,631.0605 842.2344,632.0918 L842.2344,633.1855 Q842.2344,634.4199 843.125,635.248 Q844.0156,636.0605 845.6094,636.0605 Q846.5469,636.0605 847.2031,635.8105 Q847.5938,635.6543 848.0156,635.2168 Q848.2813,634.9512 848.4219,634.873 Q848.5781,634.7949 848.7813,634.7949 Q849.1094,634.7949 849.3594,635.0605 Q849.625,635.3105 849.625,635.6543 Q849.625,635.998 849.2813,636.4043 Q848.7813,636.9824 847.9844,637.3105 Q846.9063,637.7637 845.6094,637.7637 Q844.0938,637.7637 842.8906,637.1387 Q841.9063,636.6387 841.2188,635.5762 Q840.5313,634.498 840.5313,633.2168 L840.5313,632.0605 Q840.5313,630.7324 841.1406,629.5918 Q841.7656,628.4355 842.8594,627.8262 Q843.9531,627.2012 845.1875,627.2012 Q845.9219,627.2012 846.5625,627.373 Q847.2188,627.5293 847.7656,627.8887 Z " fill="#000000"/><text fill="#000000" font-family="sans-serif" font-size="14" lengthAdjust="spacing" textLength="186" x="859" y="637.8105">AuthEmailNotFoundException</text><line style="stroke:#181818;stroke-width:0.5;" x1="831" x2="1047" y1="648.0137" y2="648.0137"/><line style="stroke:#181818;stroke-width:0.5;" x1="831" x2="1047" y1="656.0137" y2="656.0137"/><ellipse cx="841" cy="670.8242" fill="#84BE84" rx="3" ry="3" style="stroke:#038048;stroke-width:1.0;"/><text fill="#000000" font-family="sans-serif" font-size="14" lengthAdjust="spacing" textLength="100" x="850" y="675.1211">String toString()</text></g><!--class AuthPasswordEmptyException--><g id="elem_AuthPasswordEmptyException"><rect codeLine="59" fill="#F1F1F1" height="66.6211" id="AuthPasswordEmptyException" rx="2.5" ry="2.5" style="stroke:#181818;stroke-width:0.5;" width="222" x="1083" y="616.0137"/><ellipse cx="1098" cy="632.0137" fill="#ADD1B2" rx="11" ry="11" style="stroke:#181818;stroke-width:1.0;"/><path d="M1100.7656,627.8887 Q1100.9219,627.6699 1101.1094,627.5605 Q1101.2969,627.4512 1101.5156,627.4512 Q1101.8906,627.4512 1102.125,627.7168 Q1102.3594,627.9668 1102.3594,628.5762 L1102.3594,630.0293 Q1102.3594,630.6387 1102.125,630.9043 Q1101.8906,631.1699 1101.5156,631.1699 Q1101.1719,631.1699 1100.9688,630.9668 Q1100.7656,630.7793 1100.6563,630.2637 Q1100.6094,629.9043 1100.4219,629.7168 Q1100.0938,629.3418 1099.4844,629.123 Q1098.875,628.9043 1098.25,628.9043 Q1097.4844,628.9043 1096.8438,629.2324 Q1096.2188,629.5605 1095.7188,630.3105 Q1095.2344,631.0605 1095.2344,632.0918 L1095.2344,633.1855 Q1095.2344,634.4199 1096.125,635.248 Q1097.0156,636.0605 1098.6094,636.0605 Q1099.5469,636.0605 1100.2031,635.8105 Q1100.5938,635.6543 1101.0156,635.2168 Q1101.2813,634.9512 1101.4219,634.873 Q1101.5781,634.7949 1101.7813,634.7949 Q1102.1094,634.7949 1102.3594,635.0605 Q1102.625,635.3105 1102.625,635.6543 Q1102.625,635.998 1102.2813,636.4043 Q1101.7813,636.9824 1100.9844,637.3105 Q1099.9063,637.7637 1098.6094,637.7637 Q1097.0938,637.7637 1095.8906,637.1387 Q1094.9063,636.6387 1094.2188,635.5762 Q1093.5313,634.498 1093.5313,633.2168 L1093.5313,632.0605 Q1093.5313,630.7324 1094.1406,629.5918 Q1094.7656,628.4355 1095.8594,627.8262 Q1096.9531,627.2012 1098.1875,627.2012 Q1098.9219,627.2012 1099.5625,627.373 Q1100.2188,627.5293 1100.7656,627.8887 Z " fill="#000000"/><text fill="#000000" font-family="sans-serif" font-size="14" lengthAdjust="spacing" textLength="190" x="1112" y="637.8105">AuthPasswordEmptyException</text><line style="stroke:#181818;stroke-width:0.5;" x1="1084" x2="1304" y1="648.0137" y2="648.0137"/><line style="stroke:#181818;stroke-width:0.5;" x1="1084" x2="1304" y1="656.0137" y2="656.0137"/><ellipse cx="1094" cy="670.8242" fill="#84BE84" rx="3" ry="3" style="stroke:#038048;stroke-width:1.0;"/><text fill="#000000" font-family="sans-serif" font-size="14" lengthAdjust="spacing" textLength="100" x="1103" y="675.1211">String toString()</text></g><!--class AuthPasswordWeakException--><g id="elem_AuthPasswordWeakException"><rect codeLine="65" fill="#F1F1F1" height="66.6211" id="AuthPasswordWeakException" rx="2.5" ry="2.5" style="stroke:#181818;stroke-width:0.5;" width="219" x="1340.5" y="616.0137"/><ellipse cx="1355.5" cy="632.0137" fill="#ADD1B2" rx="11" ry="11" style="stroke:#181818;stroke-width:1.0;"/><path d="M1358.2656,627.8887 Q1358.4219,627.6699 1358.6094,627.5605 Q1358.7969,627.4512 1359.0156,627.4512 Q1359.3906,627.4512 1359.625,627.7168 Q1359.8594,627.9668 1359.8594,628.5762 L1359.8594,630.0293 Q1359.8594,630.6387 1359.625,630.9043 Q1359.3906,631.1699 1359.0156,631.1699 Q1358.6719,631.1699 1358.4688,630.9668 Q1358.2656,630.7793 1358.1563,630.2637 Q1358.1094,629.9043 1357.9219,629.7168 Q1357.5938,629.3418 1356.9844,629.123 Q1356.375,628.9043 1355.75,628.9043 Q1354.9844,628.9043 1354.3438,629.2324 Q1353.7188,629.5605 1353.2188,630.3105 Q1352.7344,631.0605 1352.7344,632.0918 L1352.7344,633.1855 Q1352.7344,634.4199 1353.625,635.248 Q1354.5156,636.0605 1356.1094,636.0605 Q1357.0469,636.0605 1357.7031,635.8105 Q1358.0938,635.6543 1358.5156,635.2168 Q1358.7813,634.9512 1358.9219,634.873 Q1359.0781,634.7949 1359.2813,634.7949 Q1359.6094,634.7949 1359.8594,635.0605 Q1360.125,635.3105 1360.125,635.6543 Q1360.125,635.998 1359.7813,636.4043 Q1359.2813,636.9824 1358.4844,637.3105 Q1357.4063,637.7637 1356.1094,637.7637 Q1354.5938,637.7637 1353.3906,637.1387 Q1352.4063,636.6387 1351.7188,635.5762 Q1351.0313,634.498 1351.0313,633.2168 L1351.0313,632.0605 Q1351.0313,630.7324 1351.6406,629.5918 Q1352.2656,628.4355 1353.3594,627.8262 Q1354.4531,627.2012 1355.6875,627.2012 Q1356.4219,627.2012 1357.0625,627.373 Q1357.7188,627.5293 1358.2656,627.8887 Z " fill="#000000"/><text fill="#000000" font-family="sans-serif" font-size="14" lengthAdjust="spacing" textLength="187" x="1369.5" y="637.8105">AuthPasswordWeakException</text><line style="stroke:#181818;stroke-width:0.5;" x1="1341.5" x2="1558.5" y1="648.0137" y2="648.0137"/><line style="stroke:#181818;stroke-width:0.5;" x1="1341.5" x2="1558.5" y1="656.0137" y2="656.0137"/><ellipse cx="1351.5" cy="670.8242" fill="#84BE84" rx="3" ry="3" style="stroke:#038048;stroke-width:1.0;"/><text fill="#000000" font-family="sans-serif" font-size="14" lengthAdjust="spacing" textLength="100" x="1360.5" y="675.1211">String toString()</text></g><!--class AuthPasswordNotMatchException--><g id="elem_AuthPasswordNotMatchException"><rect codeLine="71" fill="#F1F1F1" height="66.6211" id="AuthPasswordNotMatchException" rx="2.5" ry="2.5" style="stroke:#181818;stroke-width:0.5;" width="242" x="2133" y="616.0137"/><ellipse cx="2148" cy="632.0137" fill="#ADD1B2" rx="11" ry="11" style="stroke:#181818;stroke-width:1.0;"/><path d="M2150.7656,627.8887 Q2150.9219,627.6699 2151.1094,627.5605 Q2151.2969,627.4512 2151.5156,627.4512 Q2151.8906,627.4512 2152.125,627.7168 Q2152.3594,627.9668 2152.3594,628.5762 L2152.3594,630.0293 Q2152.3594,630.6387 2152.125,630.9043 Q2151.8906,631.1699 2151.5156,631.1699 Q2151.1719,631.1699 2150.9688,630.9668 Q2150.7656,630.7793 2150.6563,630.2637 Q2150.6094,629.9043 2150.4219,629.7168 Q2150.0938,629.3418 2149.4844,629.123 Q2148.875,628.9043 2148.25,628.9043 Q2147.4844,628.9043 2146.8438,629.2324 Q2146.2188,629.5605 2145.7188,630.3105 Q2145.2344,631.0605 2145.2344,632.0918 L2145.2344,633.1855 Q2145.2344,634.4199 2146.125,635.248 Q2147.0156,636.0605 2148.6094,636.0605 Q2149.5469,636.0605 2150.2031,635.8105 Q2150.5938,635.6543 2151.0156,635.2168 Q2151.2813,634.9512 2151.4219,634.873 Q2151.5781,634.7949 2151.7813,634.7949 Q2152.1094,634.7949 2152.3594,635.0605 Q2152.625,635.3105 2152.625,635.6543 Q2152.625,635.998 2152.2813,636.4043 Q2151.7813,636.9824 2150.9844,637.3105 Q2149.9063,637.7637 2148.6094,637.7637 Q2147.0938,637.7637 2145.8906,637.1387 Q2144.9063,636.6387 2144.2188,635.5762 Q2143.5313,634.498 2143.5313,633.2168 L2143.5313,632.0605 Q2143.5313,630.7324 2144.1406,629.5918 Q2144.7656,628.4355 2145.8594,627.8262 Q2146.9531,627.2012 2148.1875,627.2012 Q2148.9219,627.2012 2149.5625,627.373 Q2150.2188,627.5293 2150.7656,627.8887 Z " fill="#000000"/><text fill="#000000" font-family="sans-serif" font-size="14" lengthAdjust="spacing" textLength="210" x="2162" y="637.8105">AuthPasswordNotMatchException</text><line style="stroke:#181818;stroke-width:0.5;" x1="2134" x2="2374" y1="648.0137" y2="648.0137"/><line style="stroke:#181818;stroke-width:0.5;" x1="2134" x2="2374" y1="656.0137" y2="656.0137"/><ellipse cx="2144" cy="670.8242" fill="#84BE84" rx="3" ry="3" style="stroke:#038048;stroke-width:1.0;"/><text fill="#000000" font-family="sans-serif" font-size="14" lengthAdjust="spacing" textLength="100" x="2153" y="675.1211">String toString()</text></g><!--class AuthPasswordTooShortException--><g id="elem_AuthPasswordTooShortException"><rect codeLine="77" fill="#F1F1F1" height="85.2422" id="AuthPasswordTooShortException" rx="2.5" ry="2.5" style="stroke:#181818;stroke-width:0.5;" width="242" x="1595" y="607.0137"/><ellipse cx="1610" cy="623.0137" fill="#ADD1B2" rx="11" ry="11" style="stroke:#181818;stroke-width:1.0;"/><path d="M1612.7656,618.8887 Q1612.9219,618.6699 1613.1094,618.5605 Q1613.2969,618.4512 1613.5156,618.4512 Q1613.8906,618.4512 1614.125,618.7168 Q1614.3594,618.9668 1614.3594,619.5762 L1614.3594,621.0293 Q1614.3594,621.6387 1614.125,621.9043 Q1613.8906,622.1699 1613.5156,622.1699 Q1613.1719,622.1699 1612.9688,621.9668 Q1612.7656,621.7793 1612.6563,621.2637 Q1612.6094,620.9043 1612.4219,620.7168 Q1612.0938,620.3418 1611.4844,620.123 Q1610.875,619.9043 1610.25,619.9043 Q1609.4844,619.9043 1608.8438,620.2324 Q1608.2188,620.5605 1607.7188,621.3105 Q1607.2344,622.0605 1607.2344,623.0918 L1607.2344,624.1855 Q1607.2344,625.4199 1608.125,626.248 Q1609.0156,627.0605 1610.6094,627.0605 Q1611.5469,627.0605 1612.2031,626.8105 Q1612.5938,626.6543 1613.0156,626.2168 Q1613.2813,625.9512 1613.4219,625.873 Q1613.5781,625.7949 1613.7813,625.7949 Q1614.1094,625.7949 1614.3594,626.0605 Q1614.625,626.3105 1614.625,626.6543 Q1614.625,626.998 1614.2813,627.4043 Q1613.7813,627.9824 1612.9844,628.3105 Q1611.9063,628.7637 1610.6094,628.7637 Q1609.0938,628.7637 1607.8906,628.1387 Q1606.9063,627.6387 1606.2188,626.5762 Q1605.5313,625.498 1605.5313,624.2168 L1605.5313,623.0605 Q1605.5313,621.7324 1606.1406,620.5918 Q1606.7656,619.4355 1607.8594,618.8262 Q1608.9531,618.2012 1610.1875,618.2012 Q1610.9219,618.2012 1611.5625,618.373 Q1612.2188,618.5293 1612.7656,618.8887 Z " fill="#000000"/><text fill="#000000" font-family="sans-serif" font-size="14" lengthAdjust="spacing" textLength="210" x="1624" y="628.8105">AuthPasswordTooShortException</text><line style="stroke:#181818;stroke-width:0.5;" x1="1596" x2="1836" y1="639.0137" y2="639.0137"/><ellipse cx="1606" cy="653.8242" fill="none" rx="3" ry="3" style="stroke:#038048;stroke-width:1.0;"/><text fill="#000000" font-family="sans-serif" font-size="14" lengthAdjust="spacing" textLength="43" x="1615" y="658.1211">int size</text><line style="stroke:#181818;stroke-width:0.5;" x1="1596" x2="1836" y1="665.6348" y2="665.6348"/><ellipse cx="1606" cy="680.4453" fill="#84BE84" rx="3" ry="3" style="stroke:#038048;stroke-width:1.0;"/><text fill="#000000" font-family="sans-serif" font-size="14" lengthAdjust="spacing" textLength="100" x="1615" y="684.7422">String toString()</text></g><!--class AuthPasswordWrongException--><g id="elem_AuthPasswordWrongException"><rect codeLine="84" fill="#F1F1F1" height="66.6211" id="AuthPasswordWrongException" rx="2.5" ry="2.5" style="stroke:#181818;stroke-width:0.5;" width="225" x="1872.5" y="616.0137"/><ellipse cx="1887.5" cy="632.0137" fill="#ADD1B2" rx="11" ry="11" style="stroke:#181818;stroke-width:1.0;"/><path d="M1890.2656,627.8887 Q1890.4219,627.6699 1890.6094,627.5605 Q1890.7969,627.4512 1891.0156,627.4512 Q1891.3906,627.4512 1891.625,627.7168 Q1891.8594,627.9668 1891.8594,628.5762 L1891.8594,630.0293 Q1891.8594,630.6387 1891.625,630.9043 Q1891.3906,631.1699 1891.0156,631.1699 Q1890.6719,631.1699 1890.4688,630.9668 Q1890.2656,630.7793 1890.1563,630.2637 Q1890.1094,629.9043 1889.9219,629.7168 Q1889.5938,629.3418 1888.9844,629.123 Q1888.375,628.9043 1887.75,628.9043 Q1886.9844,628.9043 1886.3438,629.2324 Q1885.7188,629.5605 1885.2188,630.3105 Q1884.7344,631.0605 1884.7344,632.0918 L1884.7344,633.1855 Q1884.7344,634.4199 1885.625,635.248 Q1886.5156,636.0605 1888.1094,636.0605 Q1889.0469,636.0605 1889.7031,635.8105 Q1890.0938,635.6543 1890.5156,635.2168 Q1890.7813,634.9512 1890.9219,634.873 Q1891.0781,634.7949 1891.2813,634.7949 Q1891.6094,634.7949 1891.8594,635.0605 Q1892.125,635.3105 1892.125,635.6543 Q1892.125,635.998 1891.7813,636.4043 Q1891.2813,636.9824 1890.4844,637.3105 Q1889.4063,637.7637 1888.1094,637.7637 Q1886.5938,637.7637 1885.3906,637.1387 Q1884.4063,636.6387 1883.7188,635.5762 Q1883.0313,634.498 1883.0313,633.2168 L1883.0313,632.0605 Q1883.0313,630.7324 1883.6406,629.5918 Q1884.2656,628.4355 1885.3594,627.8262 Q1886.4531,627.2012 1887.6875,627.2012 Q1888.4219,627.2012 1889.0625,627.373 Q1889.7188,627.5293 1890.2656,627.8887 Z " fill="#000000"/><text fill="#000000" font-family="sans-serif" font-size="14" lengthAdjust="spacing" textLength="193" x="1901.5" y="637.8105">AuthPasswordWrongException</text><line style="stroke:#181818;stroke-width:0.5;" x1="1873.5" x2="2096.5" y1="648.0137" y2="648.0137"/><line style="stroke:#181818;stroke-width:0.5;" x1="1873.5" x2="2096.5" y1="656.0137" y2="656.0137"/><ellipse cx="1883.5" cy="670.8242" fill="#84BE84" rx="3" ry="3" style="stroke:#038048;stroke-width:1.0;"/><text fill="#000000" font-family="sans-serif" font-size="14" lengthAdjust="spacing" textLength="100" x="1892.5" y="675.1211">String toString()</text></g><!--class Exception--><g id="elem_Exception"><rect fill="#F1F1F1" height="48" id="Exception" rx="2.5" ry="2.5" style="stroke:#181818;stroke-width:0.5;" width="93" x="1687.5" y="88.0137"/><ellipse cx="1702.5" cy="104.0137" fill="#ADD1B2" rx="11" ry="11" style="stroke:#181818;stroke-width:1.0;"/><path d="M1705.2656,99.8887 Q1705.4219,99.6699 1705.6094,99.5605 Q1705.7969,99.4512 1706.0156,99.4512 Q1706.3906,99.4512 1706.625,99.7168 Q1706.8594,99.9668 1706.8594,100.5762 L1706.8594,102.0293 Q1706.8594,102.6387 1706.625,102.9043 Q1706.3906,103.1699 1706.0156,103.1699 Q1705.6719,103.1699 1705.4688,102.9668 Q1705.2656,102.7793 1705.1563,102.2637 Q1705.1094,101.9043 1704.9219,101.7168 Q1704.5938,101.3418 1703.9844,101.123 Q1703.375,100.9043 1702.75,100.9043 Q1701.9844,100.9043 1701.3438,101.2324 Q1700.7188,101.5605 1700.2188,102.3105 Q1699.7344,103.0605 1699.7344,104.0918 L1699.7344,105.1855 Q1699.7344,106.4199 1700.625,107.248 Q1701.5156,108.0605 1703.1094,108.0605 Q1704.0469,108.0605 1704.7031,107.8105 Q1705.0938,107.6543 1705.5156,107.2168 Q1705.7813,106.9512 1705.9219,106.873 Q1706.0781,106.7949 1706.2813,106.7949 Q1706.6094,106.7949 1706.8594,107.0605 Q1707.125,107.3105 1707.125,107.6543 Q1707.125,107.998 1706.7813,108.4043 Q1706.2813,108.9824 1705.4844,109.3105 Q1704.4063,109.7637 1703.1094,109.7637 Q1701.5938,109.7637 1700.3906,109.1387 Q1699.4063,108.6387 1698.7188,107.5762 Q1698.0313,106.498 1698.0313,105.2168 L1698.0313,104.0605 Q1698.0313,102.7324 1698.6406,101.5918 Q1699.2656,100.4355 1700.3594,99.8262 Q1701.4531,99.2012 1702.6875,99.2012 Q1703.4219,99.2012 1704.0625,99.373 Q1704.7188,99.5293 1705.2656,99.8887 Z " fill="#000000"/><text fill="#000000" font-family="sans-serif" font-size="14" lengthAdjust="spacing" textLength="61" x="1716.5" y="109.8105">Exception</text><line style="stroke:#181818;stroke-width:0.5;" x1="1688.5" x2="1779.5" y1="120.0137" y2="120.0137"/><line style="stroke:#181818;stroke-width:0.5;" x1="1688.5" x2="1779.5" y1="128.0137" y2="128.0137"/></g><!--reverse link Exception to AuthException--><g id="link_Exception_AuthException"><path codeLine="6" d="M1734,154.0937 C1734,207.1037 1734,319.0737 1734,372.0137 " fill="none" id="Exception-backto-AuthException" style="stroke:#181818;stroke-width:1.0;"/><polygon fill="none" points="1734,136.0937,1728,154.0937,1740,154.0937,1734,136.0937" style="stroke:#181818;stroke-width:1.0;"/></g><!--reverse link AuthException to AuthEmailException--><g id="link_AuthException_AuthEmailException"><path codeLine="11" d="M1654.7305,405.8455 C1475.9105,425.7555 973.4,481.7337 775.04,503.8237 " fill="none" id="AuthException-backto-AuthEmailException" style="stroke:#181818;stroke-width:1.0;"/><polygon fill="none" points="1672.62,403.8537,1654.0666,399.8824,1655.3945,411.8087,1672.62,403.8537" style="stroke:#181818;stroke-width:1.0;"/></g><!--reverse link AuthException to AuthPasswordException--><g id="link_AuthException_AuthPasswordException"><path codeLine="16" d="M1669.5774,427.892 C1627.5474,448.032 1583.12,469.3237 1541.11,489.4537 " fill="none" id="AuthException-backto-AuthPasswordException" style="stroke:#181818;stroke-width:1.0;"/><polygon fill="none" points="1685.81,420.1137,1666.9846,422.4812,1672.1702,433.3029,1685.81,420.1137" style="stroke:#181818;stroke-width:1.0;"/></g><!--reverse link AuthException to AuthPasswordRepeatException--><g id="link_AuthException_AuthPasswordRepeatException"><path codeLine="21" d="M1734,438.1137 C1734,458.2537 1734,469.3237 1734,489.4537 " fill="none" id="AuthException-backto-AuthPasswordRepeatException" style="stroke:#181818;stroke-width:1.0;"/><polygon fill="none" points="1734,420.1137,1728,438.1137,1740,438.1137,1734,420.1137" style="stroke:#181818;stroke-width:1.0;"/></g><!--reverse link AuthException to AuthUnknownException--><g id="link_AuthException_AuthUnknownException"><path codeLine="27" d="M1797.998,427.9431 C1833.418,445.0531 1865.96,460.7837 1905.38,479.8337 " fill="none" id="AuthException-backto-AuthUnknownException" style="stroke:#181818;stroke-width:1.0;"/><polygon fill="none" points="1781.79,420.1137,1795.3882,433.3458,1800.6078,422.5405,1781.79,420.1137" style="stroke:#181818;stroke-width:1.0;"/></g><!--reverse link AuthException to AuthCredentialsInvalidException--><g id="link_AuthException_AuthCredentialsInvalidException"><path codeLine="33" d="M1812.7546,415.8876 C1881.9146,432.4576 1980.29,456.0537 2080,480.0137 C2085.86,481.4237 2091.86,482.8637 2097.92,484.3237 " fill="none" id="AuthException-backto-AuthCredentialsInvalidException" style="stroke:#181818;stroke-width:1.0;"/><polygon fill="none" points="1795.25,411.6937,1811.3566,421.7225,1814.1526,410.0527,1795.25,411.6937" style="stroke:#181818;stroke-width:1.0;"/></g><!--reverse link AuthEmailException to AuthEmailInvalidException--><g id="link_AuthEmailException_AuthEmailInvalidException"><path codeLine="39" d="M601.2303,534.1815 C522.2003,550.9115 414.48,575.4137 308,607.0137 C298.77,609.7537 289.21,612.8137 279.7,615.9937 " fill="none" id="AuthEmailException-backto-AuthEmailInvalidException" style="stroke:#181818;stroke-width:1.0;"/><polygon fill="none" points="618.84,530.4537,599.9876,528.3116,602.4729,540.0514,618.84,530.4537" style="stroke:#181818;stroke-width:1.0;"/></g><!--reverse link AuthEmailException to AuthEmailAlreadyInUseException--><g id="link_AuthEmailException_AuthEmailAlreadyInUseException"><path codeLine="45" d="M637.7862,546.0028 C597.1162,567.6228 551.77,591.7437 506.13,616.0037 " fill="none" id="AuthEmailException-backto-AuthEmailAlreadyInUseException" style="stroke:#181818;stroke-width:1.0;"/><polygon fill="none" points="653.68,537.5537,634.9698,540.7048,640.6026,551.3007,653.68,537.5537" style="stroke:#181818;stroke-width:1.0;"/></g><!--reverse link AuthEmailException to AuthEmailEmptyException--><g id="link_AuthEmailException_AuthEmailEmptyException"><path codeLine="51" d="M697,555.5537 C697,577.1737 697,591.7437 697,616.0037 " fill="none" id="AuthEmailException-backto-AuthEmailEmptyException" style="stroke:#181818;stroke-width:1.0;"/><polygon fill="none" points="697,537.5537,691,555.5537,703,555.5537,697,537.5537" style="stroke:#181818;stroke-width:1.0;"/></g><!--reverse link AuthEmailException to AuthEmailNotFoundException--><g id="link_AuthEmailException_AuthEmailNotFoundException"><path codeLine="57" d="M754.3485,546.2706 C793.4085,567.8906 836.47,591.7437 880.29,616.0037 " fill="none" id="AuthEmailException-backto-AuthEmailNotFoundException" style="stroke:#181818;stroke-width:1.0;"/><polygon fill="none" points="738.6,537.5537,751.4429,551.5201,757.2541,541.0211,738.6,537.5537" style="stroke:#181818;stroke-width:1.0;"/></g><!--reverse link AuthPasswordException to AuthPasswordEmptyException--><g id="link_AuthPasswordException_AuthPasswordEmptyException"><path codeLine="63" d="M1425.1736,544.914 C1376.9236,566.534 1320.68,591.7437 1266.53,616.0037 " fill="none" id="AuthPasswordException-backto-AuthPasswordEmptyException" style="stroke:#181818;stroke-width:1.0;"/><polygon fill="none" points="1441.6,537.5537,1422.7202,539.4386,1427.6271,550.3895,1441.6,537.5537" style="stroke:#181818;stroke-width:1.0;"/></g><!--reverse link AuthPasswordException to AuthPasswordWeakException--><g id="link_AuthPasswordException_AuthPasswordWeakException"><path codeLine="69" d="M1480.1085,554.6923 C1473.1685,576.3123 1468.22,591.7437 1460.43,616.0037 " fill="none" id="AuthPasswordException-backto-AuthPasswordWeakException" style="stroke:#181818;stroke-width:1.0;"/><polygon fill="none" points="1485.61,537.5537,1474.3956,552.8585,1485.8214,556.5262,1485.61,537.5537" style="stroke:#181818;stroke-width:1.0;"/></g><!--reverse link AuthPasswordRepeatException to AuthPasswordNotMatchException--><g id="link_AuthPasswordRepeatException_AuthPasswordNotMatchException"><path codeLine="75" d="M1844.8522,541.85 C1857.8222,545.03 1853.5,543.9737 1866,547.0137 C1976.6,573.9537 2005.09,577.3837 2115,607.0137 C2125.46,609.8337 2136.32,612.8737 2147.16,615.9837 " fill="none" id="AuthPasswordRepeatException-backto-AuthPasswordNotMatchException" style="stroke:#181818;stroke-width:1.0;"/><polygon fill="none" points="1827.37,537.5637,1843.4234,547.6774,1846.281,536.0226,1827.37,537.5637" style="stroke:#181818;stroke-width:1.0;"/></g><!--reverse link AuthPasswordException to AuthPasswordTooShortException--><g id="link_AuthPasswordException_AuthPasswordTooShortException"><path codeLine="82" d="M1546.7701,546.8225 C1578.4001,565.8225 1608.66,584.0137 1646.68,606.8637 " fill="none" id="AuthPasswordException-backto-AuthPasswordTooShortException" style="stroke:#181818;stroke-width:1.0;"/><polygon fill="none" points="1531.34,537.5537,1543.6805,551.9659,1549.8597,541.6791,1531.34,537.5537" style="stroke:#181818;stroke-width:1.0;"/></g><!--reverse link AuthPasswordException to AuthPasswordWrongException--><g id="link_AuthPasswordException_AuthPasswordWrongException"><path codeLine="88" d="M1585.4765,542.5613 C1596.7765,545.8413 1591.03,544.0837 1602,547.0137 C1713.64,576.8737 1743.65,576.0837 1855,607.0137 C1865.04,609.8037 1875.48,612.8637 1885.87,616.0137 " fill="none" id="AuthPasswordException-backto-AuthPasswordWrongException" style="stroke:#181818;stroke-width:1.0;"/><polygon fill="none" points="1568.19,537.5437,1583.8039,548.3235,1587.1491,536.7992,1568.19,537.5437" style="stroke:#181818;stroke-width:1.0;"/></g><!--SRC=[pPRDIWCn483lUOgm9qNg0mGlHHHwKCIrU9HXT-Y6PZDBCckjF-_kGYcuc-8XQJMta4d2zp73J3oojD2Yxw324ZjmmEIaKa9K1hoNXMTmt7TAjLIZyKhr7frIB_XMOSUQhB-iXnDApNjkRlQRXVmGNq8Kkr153fNw4RpwdCsYduv4Qq6RW2_MBaPW311dyJ1SsP2h_rCaP4XpUSGEWNCmcfB4UItjsjB6ZeIal2ZPQRkIJBl5sVbVMmPSSNhN3ckqhC7uXNq5e-liJ7z3JEWU9zITDAVOzd9Csxbn2FLsOPSUCrO-Z9ao8zgEjnaBJ_WIJE-9RwctEHTqY9WuDq-Kt0DpEMMo7YF5-yUU4TRP6uyXquI7cha3hfeJIWTVbWJr43TD_uceRCZnL5zRbbw_OvRv3w4JYzwHNULVzMDA8Ru1]--></g></svg>