<svg width="30" height="35" viewBox="0 0 30 35" fill="none" xmlns="http://www.w3.org/2000/svg">
    <path d="M24.5455 12.8333H23.1818V7C23.1818 5.14348 22.3198 3.36301 20.7854 2.05025C19.251 0.737498 17.17 0 15 0C12.83 0 10.749 0.737498 9.21458 2.05025C7.68019 3.36301 6.81818 5.14348 6.81818 7V12.8333H5.45455C4.00839 12.8347 2.62193 13.3268 1.59934 14.2017C0.57676 15.0765 0.00157914 16.2627 0 17.5V30.3333C0.00157914 31.5706 0.57676 32.7568 1.59934 33.6317C2.62193 34.5065 4.00839 34.9986 5.45455 35H24.5455C25.9916 34.9986 27.3781 34.5065 28.4007 33.6317C29.4232 32.7568 29.9984 31.5706 30 30.3333V17.5C29.9984 16.2627 29.4232 15.0765 28.4007 14.2017C27.3781 13.3268 25.9916 12.8347 24.5455 12.8333ZM20.4545 12.8333H9.54545V7C9.54545 5.76232 10.1201 4.57534 11.1431 3.70017C12.166 2.825 13.5534 2.33333 15 2.33333C16.4466 2.33333 17.834 2.825 18.8569 3.70017C19.8799 4.57534 20.4545 5.76232 20.4545 7V12.8333Z" fill="black"/>
</svg>
