<?xml version="1.0" encoding="us-ascii" standalone="no"?><svg xmlns="http://www.w3.org/2000/svg" xmlns:xlink="http://www.w3.org/1999/xlink" contentStyleType="text/css" height="293.4px" preserveAspectRatio="none" style="width:937px;height:293px;background:#FFFFFF;" version="1.1" viewBox="0 0 937 293" width="937.8px" zoomAndPan="magnify"><defs/><g><!--cluster startup--><g id="cluster_startup"><path d="M5.1,3.6082 L35.7,3.6082 A2.25,2.25 0 0 1 37.2,5.1082 L41.4,18.3809 L932.1,18.3809 A1.5,1.5 0 0 1 933.6,19.8809 L933.6,287.7082 A1.5,1.5 0 0 1 932.1,289.2082 L5.1,289.2082 A1.5,1.5 0 0 1 3.6,287.7082 L3.6,5.1082 A1.5,1.5 0 0 1 5.1,3.6082 " fill="none" style="stroke:#000000;stroke-width:0.8999999999999999;"/><line style="stroke:#000000;stroke-width:0.8999999999999999;" x1="3.6" x2="41.4" y1="18.3809" y2="18.3809"/><text fill="#000000" font-family="sans-serif" font-size="8.4" font-weight="bold" lengthAdjust="spacing" textLength="30" x="6" y="13.8727">startup</text></g><!--cluster models--><g id="cluster_models"><path d="M19.5,30.6082 L50.7,30.6082 A2.25,2.25 0 0 1 52.2,32.1082 L56.4,45.3809 L917.7,45.3809 A1.5,1.5 0 0 1 919.2,46.8809 L919.2,273.3082 A1.5,1.5 0 0 1 917.7,274.8082 L19.5,274.8082 A1.5,1.5 0 0 1 18,273.3082 L18,32.1082 A1.5,1.5 0 0 1 19.5,30.6082 " fill="none" style="stroke:#000000;stroke-width:0.8999999999999999;"/><line style="stroke:#000000;stroke-width:0.8999999999999999;" x1="18" x2="56.4" y1="45.3809" y2="45.3809"/><text fill="#000000" font-family="sans-serif" font-size="8.4" font-weight="bold" lengthAdjust="spacing" textLength="30.6" x="20.4" y="40.8727">models</text></g><!--cluster plan--><g id="cluster_plan"><path d="M791.1,96.9082 L809.7,96.9082 A2.25,2.25 0 0 1 811.2,98.4082 L815.4,111.6809 L903.3,111.6809 A1.5,1.5 0 0 1 904.8,113.1809 L904.8,219.6082 A1.5,1.5 0 0 1 903.3,221.1082 L791.1,221.1082 A1.5,1.5 0 0 1 789.6,219.6082 L789.6,98.4082 A1.5,1.5 0 0 1 791.1,96.9082 " fill="none" style="stroke:#000000;stroke-width:0.8999999999999999;"/><line style="stroke:#000000;stroke-width:0.8999999999999999;" x1="789.6" x2="815.4" y1="111.6809" y2="111.6809"/><text fill="#000000" font-family="sans-serif" font-size="8.4" font-weight="bold" lengthAdjust="spacing" textLength="18" x="792" y="107.1727">plan</text></g><!--cluster storage.dart--><g id="cluster_storage.dart"><path d="M805.5,123.9082 L857.7,123.9082 A2.25,2.25 0 0 1 859.2,125.4082 L863.4,138.6809 L888.9,138.6809 A1.5,1.5 0 0 1 890.4,140.1809 L890.4,205.2082 A1.5,1.5 0 0 1 888.9,206.7082 L805.5,206.7082 A1.5,1.5 0 0 1 804,205.2082 L804,125.4082 A1.5,1.5 0 0 1 805.5,123.9082 " fill="none" style="stroke:#000000;stroke-width:0.8999999999999999;"/><line style="stroke:#000000;stroke-width:0.8999999999999999;" x1="804" x2="863.4" y1="138.6809" y2="138.6809"/><text fill="#000000" font-family="sans-serif" font-size="8.4" font-weight="bold" lengthAdjust="spacing" textLength="51.6" x="806.4" y="134.1727">storage.dart</text></g><!--cluster practice--><g id="cluster_practice"><path d="M500.7,80.1082 L535.5,80.1082 A2.25,2.25 0 0 1 537,81.6082 L541.2,94.8809 L773.7,94.8809 A1.5,1.5 0 0 1 775.2,96.3809 L775.2,236.4082 A1.5,1.5 0 0 1 773.7,237.9082 L500.7,237.9082 A1.5,1.5 0 0 1 499.2,236.4082 L499.2,81.6082 A1.5,1.5 0 0 1 500.7,80.1082 " fill="none" style="stroke:#000000;stroke-width:0.8999999999999999;"/><line style="stroke:#000000;stroke-width:0.8999999999999999;" x1="499.2" x2="541.2" y1="94.8809" y2="94.8809"/><text fill="#000000" font-family="sans-serif" font-size="8.4" font-weight="bold" lengthAdjust="spacing" textLength="34.2" x="501.6" y="90.3727">practice</text></g><!--cluster practice.dart--><g id="cluster_practice.dart"><path d="M689.1,118.2082 L743.1,118.2082 A2.25,2.25 0 0 1 744.6,119.7082 L748.8,132.9809 L759.3,132.9809 A1.5,1.5 0 0 1 760.8,134.4809 L760.8,210.9082 A1.5,1.5 0 0 1 759.3,212.4082 L689.1,212.4082 A1.5,1.5 0 0 1 687.6,210.9082 L687.6,119.7082 A1.5,1.5 0 0 1 689.1,118.2082 " fill="none" style="stroke:#000000;stroke-width:0.8999999999999999;"/><line style="stroke:#000000;stroke-width:0.8999999999999999;" x1="687.6" x2="748.8" y1="132.9809" y2="132.9809"/><text fill="#000000" font-family="sans-serif" font-size="8.4" font-weight="bold" lengthAdjust="spacing" textLength="53.4" x="690" y="128.4727">practice.dart</text></g><!--cluster storage.dart--><g id="cluster_storage.dart"><path d="M515.1,107.1082 L567.3,107.1082 A2.25,2.25 0 0 1 568.8,108.6082 L573,121.8809 L671.7,121.8809 A1.5,1.5 0 0 1 673.2,123.3809 L673.2,222.0082 A1.5,1.5 0 0 1 671.7,223.5082 L515.1,223.5082 A1.5,1.5 0 0 1 513.6,222.0082 L513.6,108.6082 A1.5,1.5 0 0 1 515.1,107.1082 " fill="none" style="stroke:#000000;stroke-width:0.8999999999999999;"/><line style="stroke:#000000;stroke-width:0.8999999999999999;" x1="513.6" x2="573" y1="121.8809" y2="121.8809"/><text fill="#000000" font-family="sans-serif" font-size="8.4" font-weight="bold" lengthAdjust="spacing" textLength="51.6" x="516" y="117.3727">storage.dart</text></g><!--cluster theory--><g id="cluster_theory"><path d="M199.5,57.6082 L227.1,57.6082 A2.25,2.25 0 0 1 228.6,59.1082 L232.8,72.3809 L483.3,72.3809 A1.5,1.5 0 0 1 484.8,73.8809 L484.8,258.9082 A1.5,1.5 0 0 1 483.3,260.4082 L199.5,260.4082 A1.5,1.5 0 0 1 198,258.9082 L198,59.1082 A1.5,1.5 0 0 1 199.5,57.6082 " fill="none" style="stroke:#000000;stroke-width:0.8999999999999999;"/><line style="stroke:#000000;stroke-width:0.8999999999999999;" x1="198" x2="232.8" y1="72.3809" y2="72.3809"/><text fill="#000000" font-family="sans-serif" font-size="8.4" font-weight="bold" lengthAdjust="spacing" textLength="27" x="200.4" y="67.8727">theory</text></g><!--cluster storage.dart--><g id="cluster_storage.dart"><path d="M301.5,84.6082 L353.7,84.6082 A2.25,2.25 0 0 1 355.2,86.1082 L359.4,99.3809 L468.9,99.3809 A1.5,1.5 0 0 1 470.4,100.8809 L470.4,244.5082 A1.5,1.5 0 0 1 468.9,246.0082 L301.5,246.0082 A1.5,1.5 0 0 1 300,244.5082 L300,86.1082 A1.5,1.5 0 0 1 301.5,84.6082 " fill="none" style="stroke:#000000;stroke-width:0.8999999999999999;"/><line style="stroke:#000000;stroke-width:0.8999999999999999;" x1="300" x2="359.4" y1="99.3809" y2="99.3809"/><text fill="#000000" font-family="sans-serif" font-size="8.4" font-weight="bold" lengthAdjust="spacing" textLength="51.6" x="302.4" y="94.8727">storage.dart</text></g><!--cluster theory.dart--><g id="cluster_theory.dart"><path d="M213.9,118.2082 L260.7,118.2082 A2.25,2.25 0 0 1 262.2,119.7082 L266.4,132.9809 L284.1,132.9809 A1.5,1.5 0 0 1 285.6,134.4809 L285.6,210.9082 A1.5,1.5 0 0 1 284.1,212.4082 L213.9,212.4082 A1.5,1.5 0 0 1 212.4,210.9082 L212.4,119.7082 A1.5,1.5 0 0 1 213.9,118.2082 " fill="none" style="stroke:#000000;stroke-width:0.8999999999999999;"/><line style="stroke:#000000;stroke-width:0.8999999999999999;" x1="212.4" x2="266.4" y1="132.9809" y2="132.9809"/><text fill="#000000" font-family="sans-serif" font-size="8.4" font-weight="bold" lengthAdjust="spacing" textLength="46.2" x="214.8" y="128.4727">theory.dart</text></g><!--cluster user--><g id="cluster_user"><path d="M33.9,63.3082 L53.7,63.3082 A2.25,2.25 0 0 1 55.2,64.8082 L59.4,78.0809 L182.1,78.0809 A1.5,1.5 0 0 1 183.6,79.5809 L183.6,253.2082 A1.5,1.5 0 0 1 182.1,254.7082 L33.9,254.7082 A1.5,1.5 0 0 1 32.4,253.2082 L32.4,64.8082 A1.5,1.5 0 0 1 33.9,63.3082 " fill="none" style="stroke:#000000;stroke-width:0.8999999999999999;"/><line style="stroke:#000000;stroke-width:0.8999999999999999;" x1="32.4" x2="59.4" y1="78.0809" y2="78.0809"/><text fill="#000000" font-family="sans-serif" font-size="8.4" font-weight="bold" lengthAdjust="spacing" textLength="19.2" x="34.8" y="73.5727">user</text></g><!--cluster auth.dart--><g id="cluster_auth.dart"><path d="M48.3,90.3082 L86.7,90.3082 A2.25,2.25 0 0 1 88.2,91.8082 L92.4,105.0809 L167.7,105.0809 A1.5,1.5 0 0 1 169.2,106.5809 L169.2,238.8082 A1.5,1.5 0 0 1 167.7,240.3082 L48.3,240.3082 A1.5,1.5 0 0 1 46.8,238.8082 L46.8,91.8082 A1.5,1.5 0 0 1 48.3,90.3082 " fill="none" style="stroke:#000000;stroke-width:0.8999999999999999;"/><line style="stroke:#000000;stroke-width:0.8999999999999999;" x1="46.8" x2="92.4" y1="105.0809" y2="105.0809"/><text fill="#000000" font-family="sans-serif" font-size="8.4" font-weight="bold" lengthAdjust="spacing" textLength="37.8" x="49.2" y="100.5727">auth.dart</text></g><!--class PlanStorage--><g id="elem_PlanStorage"><rect codeLine="3" fill="#F1F1F1" height="51.1453" id="PlanStorage" rx="1.5" ry="1.5" style="stroke:#181818;stroke-width:0.3;" width="67.2" x="813.6" y="146.1082"/><ellipse cx="823.14" cy="155.7082" fill="#ADD1B2" rx="6.6" ry="6.6" style="stroke:#181818;stroke-width:0.6;"/><path d="M824.7994,153.2332 Q824.8931,153.102 825.0056,153.0363 Q825.1181,152.9707 825.2494,152.9707 Q825.4744,152.9707 825.615,153.1301 Q825.7556,153.2801 825.7556,153.6457 L825.7556,154.5176 Q825.7556,154.8832 825.615,155.0426 Q825.4744,155.202 825.2494,155.202 Q825.0431,155.202 824.9213,155.0801 Q824.7994,154.9676 824.7338,154.6582 Q824.7056,154.4426 824.5931,154.3301 Q824.3963,154.1051 824.0306,153.9738 Q823.665,153.8426 823.29,153.8426 Q822.8306,153.8426 822.4463,154.0395 Q822.0713,154.2363 821.7713,154.6863 Q821.4806,155.1363 821.4806,155.7551 L821.4806,156.4113 Q821.4806,157.152 822.015,157.6488 Q822.5494,158.1363 823.5056,158.1363 Q824.0681,158.1363 824.4619,157.9863 Q824.6963,157.8926 824.9494,157.6301 Q825.1088,157.4707 825.1931,157.4238 Q825.2869,157.377 825.4088,157.377 Q825.6056,157.377 825.7556,157.5363 Q825.915,157.6863 825.915,157.8926 Q825.915,158.0988 825.7088,158.3426 Q825.4088,158.6895 824.9306,158.8863 Q824.2838,159.1582 823.5056,159.1582 Q822.5963,159.1582 821.8744,158.7832 Q821.2838,158.4832 820.8713,157.8457 Q820.4588,157.1988 820.4588,156.4301 L820.4588,155.7363 Q820.4588,154.9395 820.8244,154.2551 Q821.1994,153.5613 821.8556,153.1957 Q822.5119,152.8207 823.2525,152.8207 Q823.6931,152.8207 824.0775,152.9238 Q824.4713,153.0176 824.7994,153.2332 Z " fill="#000000"/><text fill="#000000" font-family="sans-serif" font-size="8.4" lengthAdjust="spacing" textLength="46.8" x="831.66" y="159.1863">PlanStorage</text><line style="stroke:#181818;stroke-width:0.3;" x1="814.2" x2="880.2" y1="165.3082" y2="165.3082"/><line style="stroke:#181818;stroke-width:0.3;" x1="814.2" x2="880.2" y1="170.1082" y2="170.1082"/><ellipse cx="820.2" cy="178.9945" fill="#84BE84" rx="1.8" ry="1.8" style="stroke:#038048;stroke-width:0.6;"/><text fill="#000000" font-family="sans-serif" font-size="8.4" lengthAdjust="spacing" text-decoration="underline" textLength="51.6" x="825.6" y="181.5727">dynamic get()</text><ellipse cx="820.2" cy="190.1672" fill="#84BE84" rx="1.8" ry="1.8" style="stroke:#038048;stroke-width:0.6;"/><text fill="#000000" font-family="sans-serif" font-size="8.4" lengthAdjust="spacing" text-decoration="underline" textLength="51" x="825.6" y="192.7453">dynamic set()</text></g><!--class Practice--><g id="elem_Practice"><rect codeLine="8" fill="#F1F1F1" height="62.318" id="Practice" rx="1.5" ry="1.5" style="stroke:#181818;stroke-width:0.3;" width="53.4" x="697.5" y="140.4082"/><ellipse cx="708.12" cy="150.0082" fill="#ADD1B2" rx="6.6" ry="6.6" style="stroke:#181818;stroke-width:0.6;"/><path d="M709.7794,147.5332 Q709.8731,147.402 709.9856,147.3363 Q710.0981,147.2707 710.2294,147.2707 Q710.4544,147.2707 710.595,147.4301 Q710.7356,147.5801 710.7356,147.9457 L710.7356,148.8176 Q710.7356,149.1832 710.595,149.3426 Q710.4544,149.502 710.2294,149.502 Q710.0231,149.502 709.9013,149.3801 Q709.7794,149.2676 709.7138,148.9582 Q709.6856,148.7426 709.5731,148.6301 Q709.3763,148.4051 709.0106,148.2738 Q708.645,148.1426 708.27,148.1426 Q707.8106,148.1426 707.4263,148.3395 Q707.0513,148.5363 706.7513,148.9863 Q706.4606,149.4363 706.4606,150.0551 L706.4606,150.7113 Q706.4606,151.452 706.995,151.9488 Q707.5294,152.4363 708.4856,152.4363 Q709.0481,152.4363 709.4419,152.2863 Q709.6763,152.1926 709.9294,151.9301 Q710.0888,151.7707 710.1731,151.7238 Q710.2669,151.677 710.3888,151.677 Q710.5856,151.677 710.7356,151.8363 Q710.895,151.9863 710.895,152.1926 Q710.895,152.3988 710.6888,152.6426 Q710.3888,152.9895 709.9106,153.1863 Q709.2638,153.4582 708.4856,153.4582 Q707.5763,153.4582 706.8544,153.0832 Q706.2638,152.7832 705.8513,152.1457 Q705.4388,151.4988 705.4388,150.7301 L705.4388,150.0363 Q705.4388,149.2395 705.8044,148.5551 Q706.1794,147.8613 706.8356,147.4957 Q707.4919,147.1207 708.2325,147.1207 Q708.6731,147.1207 709.0575,147.2238 Q709.4513,147.3176 709.7794,147.5332 Z " fill="#000000"/><text fill="#000000" font-family="sans-serif" font-size="8.4" lengthAdjust="spacing" textLength="30.6" x="716.88" y="153.4863">Practice</text><line style="stroke:#181818;stroke-width:0.3;" x1="698.1" x2="750.3" y1="159.6082" y2="159.6082"/><ellipse cx="704.1" cy="168.4945" fill="none" rx="1.8" ry="1.8" style="stroke:#038048;stroke-width:0.6;"/><text fill="#000000" font-family="sans-serif" font-size="8.4" lengthAdjust="spacing" textLength="18" x="709.5" y="171.0727">int id</text><ellipse cx="704.1" cy="179.6672" fill="none" rx="1.8" ry="1.8" style="stroke:#038048;stroke-width:0.6;"/><text fill="#000000" font-family="sans-serif" font-size="8.4" lengthAdjust="spacing" textLength="37.8" x="709.5" y="182.2453">String title</text><ellipse cx="704.1" cy="190.8398" fill="none" rx="1.8" ry="1.8" style="stroke:#038048;stroke-width:0.6;"/><text fill="#000000" font-family="sans-serif" font-size="8.4" lengthAdjust="spacing" textLength="37.8" x="709.5" y="193.418">String text</text><line style="stroke:#181818;stroke-width:0.3;" x1="698.1" x2="750.3" y1="197.9262" y2="197.9262"/></g><!--class PracticeStorage--><g id="elem_PracticeStorage"><rect codeLine="14" fill="#F1F1F1" height="84.6633" id="PracticeStorage" rx="1.5" ry="1.5" style="stroke:#181818;stroke-width:0.3;" width="129" x="523.5" y="129.3082"/><ellipse cx="555.15" cy="138.9082" fill="#ADD1B2" rx="6.6" ry="6.6" style="stroke:#181818;stroke-width:0.6;"/><path d="M556.8094,136.4332 Q556.9031,136.302 557.0156,136.2363 Q557.1281,136.1707 557.2594,136.1707 Q557.4844,136.1707 557.625,136.3301 Q557.7656,136.4801 557.7656,136.8457 L557.7656,137.7176 Q557.7656,138.0832 557.625,138.2426 Q557.4844,138.402 557.2594,138.402 Q557.0531,138.402 556.9313,138.2801 Q556.8094,138.1676 556.7438,137.8582 Q556.7156,137.6426 556.6031,137.5301 Q556.4063,137.3051 556.0406,137.1738 Q555.675,137.0426 555.3,137.0426 Q554.8406,137.0426 554.4563,137.2395 Q554.0813,137.4363 553.7813,137.8863 Q553.4906,138.3363 553.4906,138.9551 L553.4906,139.6113 Q553.4906,140.352 554.025,140.8488 Q554.5594,141.3363 555.5156,141.3363 Q556.0781,141.3363 556.4719,141.1863 Q556.7063,141.0926 556.9594,140.8301 Q557.1188,140.6707 557.2031,140.6238 Q557.2969,140.577 557.4187,140.577 Q557.6156,140.577 557.7656,140.7363 Q557.925,140.8863 557.925,141.0926 Q557.925,141.2988 557.7188,141.5426 Q557.4187,141.8895 556.9406,142.0863 Q556.2937,142.3582 555.5156,142.3582 Q554.6062,142.3582 553.8844,141.9832 Q553.2937,141.6832 552.8813,141.0457 Q552.4688,140.3988 552.4688,139.6301 L552.4688,138.9363 Q552.4688,138.1395 552.8344,137.4551 Q553.2094,136.7613 553.8656,136.3957 Q554.5219,136.0207 555.2625,136.0207 Q555.7031,136.0207 556.0875,136.1238 Q556.4812,136.2176 556.8094,136.4332 Z " fill="#000000"/><text fill="#000000" font-family="sans-serif" font-size="8.4" lengthAdjust="spacing" textLength="60.6" x="567.45" y="142.3863">PracticeStorage</text><line style="stroke:#181818;stroke-width:0.3;" x1="524.1" x2="651.9" y1="148.5082" y2="148.5082"/><rect fill="none" height="3.6" style="stroke:#C82930;stroke-width:0.6;" width="3.6" x="528.3" y="155.5945"/><text fill="#000000" font-family="sans-serif" font-size="8.4" lengthAdjust="spacing" text-decoration="underline" textLength="89.4" x="535.5" y="159.9727">List&lt;Practice&gt; _storage</text><rect fill="none" height="3.6" style="stroke:#C82930;stroke-width:0.6;" width="3.6" x="528.3" y="166.7672"/><text fill="#000000" font-family="sans-serif" font-size="8.4" lengthAdjust="spacing" text-decoration="underline" textLength="99.6" x="535.5" y="171.1453">PracticeStorage _instance</text><ellipse cx="530.1" cy="179.7398" fill="none" rx="1.8" ry="1.8" style="stroke:#038048;stroke-width:0.6;"/><text fill="#000000" font-family="sans-serif" font-size="8.4" lengthAdjust="spacing" text-decoration="underline" textLength="25.8" x="535.5" y="182.318">int size</text><line style="stroke:#181818;stroke-width:0.3;" x1="524.1" x2="651.9" y1="186.8262" y2="186.8262"/><ellipse cx="530.1" cy="195.7125" fill="#84BE84" rx="1.8" ry="1.8" style="stroke:#038048;stroke-width:0.6;"/><text fill="#000000" font-family="sans-serif" font-size="8.4" lengthAdjust="spacing" text-decoration="underline" textLength="55.8" x="535.5" y="198.2906">Practice? get()</text><ellipse cx="530.1" cy="206.8852" fill="#84BE84" rx="1.8" ry="1.8" style="stroke:#038048;stroke-width:0.6;"/><text fill="#000000" font-family="sans-serif" font-size="8.4" lengthAdjust="spacing" text-decoration="underline" textLength="113.4" x="535.5" y="209.4633">List&lt;Practice?&gt; getPractices()</text></g><!--class TheoryStorage--><g id="elem_TheoryStorage"><rect codeLine="24" fill="#F1F1F1" height="129.3539" id="TheoryStorage" rx="1.5" ry="1.5" style="stroke:#181818;stroke-width:0.3;" width="140.4" x="309.6" y="106.8082"/><ellipse cx="348.75" cy="116.4082" fill="#ADD1B2" rx="6.6" ry="6.6" style="stroke:#181818;stroke-width:0.6;"/><path d="M350.4094,113.9332 Q350.5031,113.802 350.6156,113.7363 Q350.7281,113.6707 350.8594,113.6707 Q351.0844,113.6707 351.225,113.8301 Q351.3656,113.9801 351.3656,114.3457 L351.3656,115.2176 Q351.3656,115.5832 351.225,115.7426 Q351.0844,115.902 350.8594,115.902 Q350.6531,115.902 350.5313,115.7801 Q350.4094,115.6676 350.3438,115.3582 Q350.3156,115.1426 350.2031,115.0301 Q350.0062,114.8051 349.6406,114.6738 Q349.275,114.5426 348.9,114.5426 Q348.4406,114.5426 348.0563,114.7395 Q347.6813,114.9363 347.3812,115.3863 Q347.0906,115.8363 347.0906,116.4551 L347.0906,117.1113 Q347.0906,117.852 347.625,118.3488 Q348.1594,118.8363 349.1156,118.8363 Q349.6781,118.8363 350.0719,118.6863 Q350.3063,118.5926 350.5594,118.3301 Q350.7188,118.1707 350.8031,118.1238 Q350.8969,118.077 351.0188,118.077 Q351.2156,118.077 351.3656,118.2363 Q351.525,118.3863 351.525,118.5926 Q351.525,118.7988 351.3187,119.0426 Q351.0188,119.3895 350.5406,119.5863 Q349.8938,119.8582 349.1156,119.8582 Q348.2063,119.8582 347.4844,119.4832 Q346.8938,119.1832 346.4813,118.5457 Q346.0687,117.8988 346.0687,117.1301 L346.0687,116.4363 Q346.0687,115.6395 346.4344,114.9551 Q346.8094,114.2613 347.4656,113.8957 Q348.1219,113.5207 348.8625,113.5207 Q349.3031,113.5207 349.6875,113.6238 Q350.0813,113.7176 350.4094,113.9332 Z " fill="#000000"/><text fill="#000000" font-family="sans-serif" font-size="8.4" lengthAdjust="spacing" textLength="57" x="361.05" y="119.8863">TheoryStorage</text><line style="stroke:#181818;stroke-width:0.3;" x1="310.2" x2="449.4" y1="126.0082" y2="126.0082"/><rect fill="none" height="3.6" style="stroke:#C82930;stroke-width:0.6;" width="3.6" x="314.4" y="133.0945"/><text fill="#000000" font-family="sans-serif" font-size="8.4" lengthAdjust="spacing" text-decoration="underline" textLength="85.8" x="321.6" y="137.4727">List&lt;Theory&gt; _storage</text><rect fill="none" height="3.6" style="stroke:#C82930;stroke-width:0.6;" width="3.6" x="314.4" y="144.2672"/><text fill="#000000" font-family="sans-serif" font-size="8.4" lengthAdjust="spacing" text-decoration="underline" textLength="96" x="321.6" y="148.6453">TheoryStorage _instance</text><rect fill="none" height="3.6" style="stroke:#C82930;stroke-width:0.6;" width="3.6" x="314.4" y="155.4398"/><text fill="#000000" font-family="sans-serif" font-size="8.4" lengthAdjust="spacing" text-decoration="underline" textLength="50.4" x="321.6" y="159.818">dynamic _get</text><ellipse cx="316.2" cy="168.4125" fill="none" rx="1.8" ry="1.8" style="stroke:#038048;stroke-width:0.6;"/><text fill="#000000" font-family="sans-serif" font-size="8.4" lengthAdjust="spacing" text-decoration="underline" textLength="91.2" x="321.6" y="170.9906">TheoryStorage instance</text><ellipse cx="316.2" cy="179.5852" fill="none" rx="1.8" ry="1.8" style="stroke:#038048;stroke-width:0.6;"/><text fill="#000000" font-family="sans-serif" font-size="8.4" lengthAdjust="spacing" textLength="25.8" x="321.6" y="182.1633">int size</text><line style="stroke:#181818;stroke-width:0.3;" x1="310.2" x2="449.4" y1="186.6715" y2="186.6715"/><rect fill="#F24D5C" height="3.6" style="stroke:#C82930;stroke-width:0.6;" width="3.6" x="314.4" y="193.7578"/><text fill="#000000" font-family="sans-serif" font-size="8.4" lengthAdjust="spacing" textLength="70.8" x="321.6" y="198.1359">dynamic _update()</text><ellipse cx="316.2" cy="206.7305" fill="#84BE84" rx="1.8" ry="1.8" style="stroke:#038048;stroke-width:0.6;"/><text fill="#000000" font-family="sans-serif" font-size="8.4" lengthAdjust="spacing" textLength="124.8" x="321.6" y="209.3086">Stream&lt;DataSnapshot&gt; stream()</text><ellipse cx="316.2" cy="217.9031" fill="#84BE84" rx="1.8" ry="1.8" style="stroke:#038048;stroke-width:0.6;"/><text fill="#000000" font-family="sans-serif" font-size="8.4" lengthAdjust="spacing" textLength="52.2" x="321.6" y="220.4813">Theory? get()</text><ellipse cx="316.2" cy="229.0758" fill="#84BE84" rx="1.8" ry="1.8" style="stroke:#038048;stroke-width:0.6;"/><text fill="#000000" font-family="sans-serif" font-size="8.4" lengthAdjust="spacing" textLength="109.8" x="321.6" y="231.6539">List&lt;Theory?&gt; getPractices()</text></g><!--class Theory--><g id="elem_Theory"><rect codeLine="38" fill="#F1F1F1" height="62.318" id="Theory" rx="1.5" ry="1.5" style="stroke:#181818;stroke-width:0.3;" width="53.4" x="222.3" y="140.4082"/><ellipse cx="234.54" cy="150.0082" fill="#ADD1B2" rx="6.6" ry="6.6" style="stroke:#181818;stroke-width:0.6;"/><path d="M236.1994,147.5332 Q236.2931,147.402 236.4056,147.3363 Q236.5181,147.2707 236.6494,147.2707 Q236.8744,147.2707 237.015,147.4301 Q237.1556,147.5801 237.1556,147.9457 L237.1556,148.8176 Q237.1556,149.1832 237.015,149.3426 Q236.8744,149.502 236.6494,149.502 Q236.4431,149.502 236.3212,149.3801 Q236.1994,149.2676 236.1337,148.9582 Q236.1056,148.7426 235.9931,148.6301 Q235.7963,148.4051 235.4306,148.2738 Q235.065,148.1426 234.69,148.1426 Q234.2306,148.1426 233.8462,148.3395 Q233.4712,148.5363 233.1713,148.9863 Q232.8806,149.4363 232.8806,150.0551 L232.8806,150.7113 Q232.8806,151.452 233.415,151.9488 Q233.9494,152.4363 234.9056,152.4363 Q235.4681,152.4363 235.8619,152.2863 Q236.0962,152.1926 236.3494,151.9301 Q236.5087,151.7707 236.5931,151.7238 Q236.6869,151.677 236.8087,151.677 Q237.0056,151.677 237.1556,151.8363 Q237.315,151.9863 237.315,152.1926 Q237.315,152.3988 237.1088,152.6426 Q236.8087,152.9895 236.3306,153.1863 Q235.6837,153.4582 234.9056,153.4582 Q233.9962,153.4582 233.2744,153.0832 Q232.6837,152.7832 232.2712,152.1457 Q231.8588,151.4988 231.8588,150.7301 L231.8588,150.0363 Q231.8588,149.2395 232.2244,148.5551 Q232.5994,147.8613 233.2556,147.4957 Q233.9119,147.1207 234.6525,147.1207 Q235.0931,147.1207 235.4775,147.2238 Q235.8712,147.3176 236.1994,147.5332 Z " fill="#000000"/><text fill="#000000" font-family="sans-serif" font-size="8.4" lengthAdjust="spacing" textLength="27" x="243.66" y="153.4863">Theory</text><line style="stroke:#181818;stroke-width:0.3;" x1="222.9" x2="275.1" y1="159.6082" y2="159.6082"/><ellipse cx="228.9" cy="168.4945" fill="none" rx="1.8" ry="1.8" style="stroke:#038048;stroke-width:0.6;"/><text fill="#000000" font-family="sans-serif" font-size="8.4" lengthAdjust="spacing" textLength="18" x="234.3" y="171.0727">int id</text><ellipse cx="228.9" cy="179.6672" fill="none" rx="1.8" ry="1.8" style="stroke:#038048;stroke-width:0.6;"/><text fill="#000000" font-family="sans-serif" font-size="8.4" lengthAdjust="spacing" textLength="37.8" x="234.3" y="182.2453">String title</text><ellipse cx="228.9" cy="190.8398" fill="none" rx="1.8" ry="1.8" style="stroke:#038048;stroke-width:0.6;"/><text fill="#000000" font-family="sans-serif" font-size="8.4" lengthAdjust="spacing" textLength="37.8" x="234.3" y="193.418">String text</text><line style="stroke:#181818;stroke-width:0.3;" x1="222.9" x2="275.1" y1="197.9262" y2="197.9262"/></g><!--class Auth--><g id="elem_Auth"><rect codeLine="44" fill="#F1F1F1" height="118.1812" id="Auth" rx="1.5" ry="1.5" style="stroke:#181818;stroke-width:0.3;" width="103.2" x="56.4" y="112.5082"/><ellipse cx="96.75" cy="122.1082" fill="#ADD1B2" rx="6.6" ry="6.6" style="stroke:#181818;stroke-width:0.6;"/><path d="M98.4094,119.6332 Q98.5031,119.502 98.6156,119.4363 Q98.7281,119.3707 98.8594,119.3707 Q99.0844,119.3707 99.225,119.5301 Q99.3656,119.6801 99.3656,120.0457 L99.3656,120.9176 Q99.3656,121.2832 99.225,121.4426 Q99.0844,121.602 98.8594,121.602 Q98.6531,121.602 98.5313,121.4801 Q98.4094,121.3676 98.3438,121.0582 Q98.3156,120.8426 98.2031,120.7301 Q98.0063,120.5051 97.6406,120.3738 Q97.275,120.2426 96.9,120.2426 Q96.4406,120.2426 96.0562,120.4395 Q95.6812,120.6363 95.3813,121.0863 Q95.0906,121.5363 95.0906,122.1551 L95.0906,122.8113 Q95.0906,123.552 95.625,124.0488 Q96.1594,124.5363 97.1156,124.5363 Q97.6781,124.5363 98.0719,124.3863 Q98.3062,124.2926 98.5594,124.0301 Q98.7188,123.8707 98.8031,123.8238 Q98.8969,123.777 99.0188,123.777 Q99.2156,123.777 99.3656,123.9363 Q99.525,124.0863 99.525,124.2926 Q99.525,124.4988 99.3188,124.7426 Q99.0188,125.0895 98.5406,125.2863 Q97.8938,125.5582 97.1156,125.5582 Q96.2063,125.5582 95.4844,125.1832 Q94.8938,124.8832 94.4813,124.2457 Q94.0688,123.5988 94.0688,122.8301 L94.0688,122.1363 Q94.0688,121.3395 94.4344,120.6551 Q94.8094,119.9613 95.4656,119.5957 Q96.1219,119.2207 96.8625,119.2207 Q97.3031,119.2207 97.6875,119.3238 Q98.0813,119.4176 98.4094,119.6332 Z " fill="#000000"/><text fill="#000000" font-family="sans-serif" font-size="8.4" lengthAdjust="spacing" textLength="17.4" x="109.05" y="125.5863">Auth</text><line style="stroke:#181818;stroke-width:0.3;" x1="57" x2="159" y1="131.7082" y2="131.7082"/><ellipse cx="63" cy="140.5945" fill="none" rx="1.8" ry="1.8" style="stroke:#038048;stroke-width:0.6;"/><text fill="#000000" font-family="sans-serif" font-size="8.4" lengthAdjust="spacing" text-decoration="underline" textLength="87.6" x="68.4" y="143.1727">int minPasswordLength</text><rect fill="none" height="3.6" style="stroke:#C82930;stroke-width:0.6;" width="3.6" x="61.2" y="149.9672"/><text fill="#000000" font-family="sans-serif" font-size="8.4" lengthAdjust="spacing" text-decoration="underline" textLength="63.6" x="68.4" y="154.3453">String _emailKey</text><rect fill="none" height="3.6" style="stroke:#C82930;stroke-width:0.6;" width="3.6" x="61.2" y="161.1398"/><text fill="#000000" font-family="sans-serif" font-size="8.4" lengthAdjust="spacing" text-decoration="underline" textLength="79.8" x="68.4" y="165.518">String _passwordKey</text><line style="stroke:#181818;stroke-width:0.3;" x1="57" x2="159" y1="170.0262" y2="170.0262"/><ellipse cx="63" cy="178.9125" fill="#84BE84" rx="1.8" ry="1.8" style="stroke:#038048;stroke-width:0.6;"/><text fill="#000000" font-family="sans-serif" font-size="8.4" lengthAdjust="spacing" text-decoration="underline" textLength="85.8" x="68.4" y="181.4906">dynamic registerUser()</text><ellipse cx="63" cy="190.0852" fill="#84BE84" rx="1.8" ry="1.8" style="stroke:#038048;stroke-width:0.6;"/><text fill="#000000" font-family="sans-serif" font-size="8.4" lengthAdjust="spacing" text-decoration="underline" textLength="75" x="68.4" y="192.6633">dynamic loginUser()</text><rect fill="#F24D5C" height="3.6" style="stroke:#C82930;stroke-width:0.6;" width="3.6" x="61.2" y="199.4578"/><text fill="#000000" font-family="sans-serif" font-size="8.4" lengthAdjust="spacing" text-decoration="underline" textLength="79.8" x="68.4" y="203.8359">dynamic _saveUser()</text><ellipse cx="63" cy="212.4305" fill="#84BE84" rx="1.8" ry="1.8" style="stroke:#038048;stroke-width:0.6;"/><text fill="#000000" font-family="sans-serif" font-size="8.4" lengthAdjust="spacing" text-decoration="underline" textLength="63" x="68.4" y="215.0086">dynamic logout()</text><ellipse cx="63" cy="223.6031" fill="#84BE84" rx="1.8" ry="1.8" style="stroke:#038048;stroke-width:0.6;"/><text fill="#000000" font-family="sans-serif" font-size="8.4" lengthAdjust="spacing" text-decoration="underline" textLength="77.4" x="68.4" y="226.1813">dynamic autoLogin()</text></g><!--reverse link PracticeStorage to PracticeStorage--><g id="link_PracticeStorage_PracticeStorage"><path codeLine="22" d="M659.6305,157.6539 C671.9245,159.4479 673.5,163.4062 673.5,171.6082 C673.5,179.8102 664.8,184.8082 652.506,186.6022 " fill="none" id="PracticeStorage-backto-PracticeStorage" style="stroke:#181818;stroke-width:0.6;"/><polygon fill="none" points="652.506,156.6142,655.7217,159.5089,659.6305,157.6539,656.4148,154.7592,652.506,156.6142" style="stroke:#181818;stroke-width:0.6;"/></g><!--reverse link TheoryStorage to TheoryStorage--><g id="link_TheoryStorage_TheoryStorage"><path codeLine="36" d="M457.1518,150.5532 C469.4398,153.5892 471,159.4582 471,171.6082 C471,183.7582 462.45,191.3542 450.162,194.3902 " fill="none" id="TheoryStorage-backto-TheoryStorage" style="stroke:#181818;stroke-width:0.6;"/><polygon fill="none" points="450.162,148.8262,453.0813,152.0196,457.1518,150.5532,454.2326,147.3598,450.162,148.8262" style="stroke:#181818;stroke-width:0.6;"/></g><!--SRC=[hLJ1ReCm3BttAwAUDbNi0wAgrQJTraCbjZEom898aA34REkg_li2WK4OT4ZjgOdjvuVVIssGc8G2JGanXbY21bAQSRvQnJaOmzQ6G5DLSbwe17F3UPc3vDpOCaZnAR5Ppeys5hh8cfrNZ9qjZ4HyOPlaPFkBcAL83u-J6TDaBbSODSGMWlsfesslZdCZ936HrAUGj90f8q4v3k_uHSk8HkEryUaHWuCmjErgTYngmLxDg0MBXBGv6NjLpGH6VFl13hgVqD2Ztk_gYkvcdAWtJAc2u0QHvcMc39K-ZV5lJVIQnAvYHc0FFYrlqBsuoChaoUY31zYX8psyAXCWRAoednP2iNq1Wb12QJ95EsQQe2jmlNlpDeDP5ZgsIB1fjvP0_tVA_NhWU_tdAeEQSwWeQzi_s-DuYTGiXP17s-9JwUI0CgNCixPbYx00aR_YQJ9PjlXH_dSJQKojDwZVxJVDBAjSfKB-pVTlmy07NiUhQcuJMXNKeIPm3-47]--></g></svg>