<?xml version="1.0" encoding="us-ascii" standalone="no"?><svg xmlns="http://www.w3.org/2000/svg" xmlns:xlink="http://www.w3.org/1999/xlink" contentStyleType="text/css" height="1254px" preserveAspectRatio="none" style="width:1111px;height:1254px;background:#FFFFFF;" version="1.1" viewBox="0 0 1111 1254" width="1111px" zoomAndPan="magnify"><defs/><g><!--cluster startup--><g id="cluster_startup"><path d="M8.5,6.0137 L59.5,6.0137 A3.75,3.75 0 0 1 62,8.5137 L69,30.6348 L1101.5,30.6348 A2.5,2.5 0 0 1 1104,33.1348 L1104,912.5137 A2.5,2.5 0 0 1 1101.5,915.0137 L8.5,915.0137 A2.5,2.5 0 0 1 6,912.5137 L6,8.5137 A2.5,2.5 0 0 1 8.5,6.0137 " fill="none" style="stroke:#000000;stroke-width:1.5;"/><line style="stroke:#000000;stroke-width:1.5;" x1="6" x2="69" y1="30.6348" y2="30.6348"/><text fill="#000000" font-family="sans-serif" font-size="14" font-weight="bold" lengthAdjust="spacing" textLength="50" x="10" y="23.1211">startup</text></g><!--cluster shared--><g id="cluster_shared"><path d="M32.5,51.0137 L82.5,51.0137 A3.75,3.75 0 0 1 85,53.5137 L92,75.6348 L1077.5,75.6348 A2.5,2.5 0 0 1 1080,78.1348 L1080,888.5137 A2.5,2.5 0 0 1 1077.5,891.0137 L32.5,891.0137 A2.5,2.5 0 0 1 30,888.5137 L30,53.5137 A2.5,2.5 0 0 1 32.5,51.0137 " fill="none" style="stroke:#000000;stroke-width:1.5;"/><line style="stroke:#000000;stroke-width:1.5;" x1="30" x2="92" y1="75.6348" y2="75.6348"/><text fill="#000000" font-family="sans-serif" font-size="14" font-weight="bold" lengthAdjust="spacing" textLength="49" x="34" y="68.1211">shared</text></g><!--cluster colors.dart--><g id="cluster_colors.dart"><path d="M330.5,328.5137 L407.5,328.5137 A3.75,3.75 0 0 1 410,331.0137 L417,353.1348 L537.5,353.1348 A2.5,2.5 0 0 1 540,355.6348 L540,632.0137 A2.5,2.5 0 0 1 537.5,634.5137 L330.5,634.5137 A2.5,2.5 0 0 1 328,632.0137 L328,331.0137 A2.5,2.5 0 0 1 330.5,328.5137 " fill="none" style="stroke:#000000;stroke-width:1.5;"/><line style="stroke:#000000;stroke-width:1.5;" x1="328" x2="417" y1="353.1348" y2="353.1348"/><text fill="#000000" font-family="sans-serif" font-size="14" font-weight="bold" lengthAdjust="spacing" textLength="76" x="332" y="345.6211">colors.dart</text></g><!--cluster markdown.dart--><g id="cluster_markdown.dart"><path d="M802.5,412.5137 L907.5,412.5137 A3.75,3.75 0 0 1 910,415.0137 L917,437.1348 L1053.5,437.1348 A2.5,2.5 0 0 1 1056,439.6348 L1056,548.0137 A2.5,2.5 0 0 1 1053.5,550.5137 L802.5,550.5137 A2.5,2.5 0 0 1 800,548.0137 L800,415.0137 A2.5,2.5 0 0 1 802.5,412.5137 " fill="none" style="stroke:#000000;stroke-width:1.5;"/><line style="stroke:#000000;stroke-width:1.5;" x1="800" x2="917" y1="437.1348" y2="437.1348"/><text fill="#000000" font-family="sans-serif" font-size="14" font-weight="bold" lengthAdjust="spacing" textLength="104" x="804" y="429.6211">markdown.dart</text></g><!--cluster scheme_plan.dart--><g id="cluster_scheme_plan.dart"><path d="M566.5,384.5137 L692.5,384.5137 A3.75,3.75 0 0 1 695,387.0137 L702,409.1348 L773.5,409.1348 A2.5,2.5 0 0 1 776,411.6348 L776,576.0137 A2.5,2.5 0 0 1 773.5,578.5137 L566.5,578.5137 A2.5,2.5 0 0 1 564,576.0137 L564,387.0137 A2.5,2.5 0 0 1 566.5,384.5137 " fill="none" style="stroke:#000000;stroke-width:1.5;"/><line style="stroke:#000000;stroke-width:1.5;" x1="564" x2="702" y1="409.1348" y2="409.1348"/><text fill="#000000" font-family="sans-serif" font-size="14" font-weight="bold" lengthAdjust="spacing" textLength="125" x="568" y="401.6211">scheme_plan.dart</text></g><!--cluster strings.dart--><g id="cluster_strings.dart"><path d="M56.5,96.0137 L138.5,96.0137 A3.75,3.75 0 0 1 141,98.5137 L148,120.6348 L301.5,120.6348 A2.5,2.5 0 0 1 304,123.1348 L304,864.5137 A2.5,2.5 0 0 1 301.5,867.0137 L56.5,867.0137 A2.5,2.5 0 0 1 54,864.5137 L54,98.5137 A2.5,2.5 0 0 1 56.5,96.0137 " fill="none" style="stroke:#000000;stroke-width:1.5;"/><line style="stroke:#000000;stroke-width:1.5;" x1="54" x2="148" y1="120.6348" y2="120.6348"/><text fill="#000000" font-family="sans-serif" font-size="14" font-weight="bold" lengthAdjust="spacing" textLength="81" x="58" y="113.1211">strings.dart</text></g><!--cluster dart--><g id="cluster_dart"><path d="M363.5,1029.0137 L392.5,1029.0137 A3.75,3.75 0 0 1 395,1031.5137 L402,1053.6348 L504.5,1053.6348 A2.5,2.5 0 0 1 507,1056.1348 L507,1196.5137 A2.5,2.5 0 0 1 504.5,1199.0137 L363.5,1199.0137 A2.5,2.5 0 0 1 361,1196.5137 L361,1031.5137 A2.5,2.5 0 0 1 363.5,1029.0137 " fill="none" style="stroke:#000000;stroke-width:1.5;"/><line style="stroke:#000000;stroke-width:1.5;" x1="361" x2="402" y1="1053.6348" y2="1053.6348"/><text fill="#000000" font-family="sans-serif" font-size="14" font-weight="bold" lengthAdjust="spacing" textLength="28" x="365" y="1046.1211">dart</text></g><!--cluster ui--><g id="cluster_ui"><path d="M387.5,1074.0137 L401.5,1074.0137 A3.75,3.75 0 0 1 404,1076.5137 L411,1098.6348 L480.5,1098.6348 A2.5,2.5 0 0 1 483,1101.1348 L483,1172.5137 A2.5,2.5 0 0 1 480.5,1175.0137 L387.5,1175.0137 A2.5,2.5 0 0 1 385,1172.5137 L385,1076.5137 A2.5,2.5 0 0 1 387.5,1074.0137 " fill="none" style="stroke:#000000;stroke-width:1.5;"/><line style="stroke:#000000;stroke-width:1.5;" x1="385" x2="411" y1="1098.6348" y2="1098.6348"/><text fill="#000000" font-family="sans-serif" font-size="14" font-weight="bold" lengthAdjust="spacing" textLength="13" x="389" y="1091.1211">ui</text></g><!--cluster flutter--><g id="cluster_flutter"><path d="M668.5,939.0137 L712.5,939.0137 A3.75,3.75 0 0 1 715,941.5137 L722,963.6348 L929.5,963.6348 A2.5,2.5 0 0 1 932,966.1348 L932,1244.5137 A2.5,2.5 0 0 1 929.5,1247.0137 L668.5,1247.0137 A2.5,2.5 0 0 1 666,1244.5137 L666,941.5137 A2.5,2.5 0 0 1 668.5,939.0137 " fill="none" style="stroke:#000000;stroke-width:1.5;"/><line style="stroke:#000000;stroke-width:1.5;" x1="666" x2="722" y1="963.6348" y2="963.6348"/><text fill="#000000" font-family="sans-serif" font-size="14" font-weight="bold" lengthAdjust="spacing" textLength="43" x="670" y="956.1211">flutter</text></g><!--cluster src--><g id="cluster_src"><path d="M692.5,984.0137 L715.5,984.0137 A3.75,3.75 0 0 1 718,986.5137 L725,1008.6348 L905.5,1008.6348 A2.5,2.5 0 0 1 908,1011.1348 L908,1220.5137 A2.5,2.5 0 0 1 905.5,1223.0137 L692.5,1223.0137 A2.5,2.5 0 0 1 690,1220.5137 L690,986.5137 A2.5,2.5 0 0 1 692.5,984.0137 " fill="none" style="stroke:#000000;stroke-width:1.5;"/><line style="stroke:#000000;stroke-width:1.5;" x1="690" x2="725" y1="1008.6348" y2="1008.6348"/><text fill="#000000" font-family="sans-serif" font-size="14" font-weight="bold" lengthAdjust="spacing" textLength="22" x="694" y="1001.1211">src</text></g><!--cluster painting--><g id="cluster_painting"><path d="M716.5,1029.0137 L774.5,1029.0137 A3.75,3.75 0 0 1 777,1031.5137 L784,1053.6348 L881.5,1053.6348 A2.5,2.5 0 0 1 884,1056.1348 L884,1196.5137 A2.5,2.5 0 0 1 881.5,1199.0137 L716.5,1199.0137 A2.5,2.5 0 0 1 714,1196.5137 L714,1031.5137 A2.5,2.5 0 0 1 716.5,1029.0137 " fill="none" style="stroke:#000000;stroke-width:1.5;"/><line style="stroke:#000000;stroke-width:1.5;" x1="714" x2="784" y1="1053.6348" y2="1053.6348"/><text fill="#000000" font-family="sans-serif" font-size="14" font-weight="bold" lengthAdjust="spacing" textLength="57" x="718" y="1046.1211">painting</text></g><!--cluster text_style.dart--><g id="cluster_text_style.dart"><path d="M740.5,1074.0137 L841.5,1074.0137 A3.75,3.75 0 0 1 844,1076.5137 L851,1098.6348 L857.5,1098.6348 A2.5,2.5 0 0 1 860,1101.1348 L860,1172.5137 A2.5,2.5 0 0 1 857.5,1175.0137 L740.5,1175.0137 A2.5,2.5 0 0 1 738,1172.5137 L738,1076.5137 A2.5,2.5 0 0 1 740.5,1074.0137 " fill="none" style="stroke:#000000;stroke-width:1.5;"/><line style="stroke:#000000;stroke-width:1.5;" x1="738" x2="851" y1="1098.6348" y2="1098.6348"/><text fill="#000000" font-family="sans-serif" font-size="14" font-weight="bold" lengthAdjust="spacing" textLength="100" x="742" y="1091.1211">text_style.dart</text></g><!--class StaticColors--><g id="elem_StaticColors"><rect codeLine="3" fill="#F1F1F1" height="252.832" id="StaticColors" rx="2.5" ry="2.5" style="stroke:#181818;stroke-width:0.5;" width="180" x="344" y="365.5137"/><ellipse cx="391.75" cy="381.5137" fill="#ADD1B2" rx="11" ry="11" style="stroke:#181818;stroke-width:1.0;"/><path d="M394.5156,377.3887 Q394.6719,377.1699 394.8594,377.0605 Q395.0469,376.9512 395.2656,376.9512 Q395.6406,376.9512 395.875,377.2168 Q396.1094,377.4668 396.1094,378.0762 L396.1094,379.5293 Q396.1094,380.1387 395.875,380.4043 Q395.6406,380.6699 395.2656,380.6699 Q394.9219,380.6699 394.7188,380.4668 Q394.5156,380.2793 394.4063,379.7637 Q394.3594,379.4043 394.1719,379.2168 Q393.8438,378.8418 393.2344,378.623 Q392.625,378.4043 392,378.4043 Q391.2344,378.4043 390.5938,378.7324 Q389.9688,379.0605 389.4688,379.8105 Q388.9844,380.5605 388.9844,381.5918 L388.9844,382.6855 Q388.9844,383.9199 389.875,384.748 Q390.7656,385.5605 392.3594,385.5605 Q393.2969,385.5605 393.9531,385.3105 Q394.3438,385.1543 394.7656,384.7168 Q395.0313,384.4512 395.1719,384.373 Q395.3281,384.2949 395.5313,384.2949 Q395.8594,384.2949 396.1094,384.5605 Q396.375,384.8105 396.375,385.1543 Q396.375,385.498 396.0313,385.9043 Q395.5313,386.4824 394.7344,386.8105 Q393.6563,387.2637 392.3594,387.2637 Q390.8438,387.2637 389.6406,386.6387 Q388.6563,386.1387 387.9688,385.0762 Q387.2813,383.998 387.2813,382.7168 L387.2813,381.5605 Q387.2813,380.2324 387.8906,379.0918 Q388.5156,377.9355 389.6094,377.3262 Q390.7031,376.7012 391.9375,376.7012 Q392.6719,376.7012 393.3125,376.873 Q393.9688,377.0293 394.5156,377.3887 Z " fill="#000000"/><text fill="#000000" font-family="sans-serif" font-size="14" lengthAdjust="spacing" textLength="76" x="412.25" y="387.3105">StaticColors</text><line style="stroke:#181818;stroke-width:0.5;" x1="345" x2="523" y1="397.5137" y2="397.5137"/><ellipse cx="355" cy="412.3242" fill="none" rx="3" ry="3" style="stroke:#038048;stroke-width:1.0;"/><text fill="#000000" font-family="sans-serif" font-size="14" lengthAdjust="spacing" text-decoration="underline" textLength="147" x="364" y="416.6211">Color backgroundColor</text><ellipse cx="355" cy="430.9453" fill="none" rx="3" ry="3" style="stroke:#038048;stroke-width:1.0;"/><text fill="#000000" font-family="sans-serif" font-size="14" lengthAdjust="spacing" text-decoration="underline" textLength="78" x="364" y="435.2422">Color button</text><ellipse cx="355" cy="449.5664" fill="none" rx="3" ry="3" style="stroke:#038048;stroke-width:1.0;"/><text fill="#000000" font-family="sans-serif" font-size="14" lengthAdjust="spacing" text-decoration="underline" textLength="105" x="364" y="453.8633">Color buttonText</text><ellipse cx="355" cy="468.1875" fill="none" rx="3" ry="3" style="stroke:#038048;stroke-width:1.0;"/><text fill="#000000" font-family="sans-serif" font-size="14" lengthAdjust="spacing" text-decoration="underline" textLength="117" x="364" y="472.4844">Color greetingText</text><ellipse cx="355" cy="486.8086" fill="none" rx="3" ry="3" style="stroke:#038048;stroke-width:1.0;"/><text fill="#000000" font-family="sans-serif" font-size="14" lengthAdjust="spacing" text-decoration="underline" textLength="154" x="364" y="491.1055">Color greetingStartColor</text><ellipse cx="355" cy="505.4297" fill="none" rx="3" ry="3" style="stroke:#038048;stroke-width:1.0;"/><text fill="#000000" font-family="sans-serif" font-size="14" lengthAdjust="spacing" text-decoration="underline" textLength="149" x="364" y="509.7266">Color greetingEndColor</text><ellipse cx="355" cy="524.0508" fill="none" rx="3" ry="3" style="stroke:#038048;stroke-width:1.0;"/><text fill="#000000" font-family="sans-serif" font-size="14" lengthAdjust="spacing" text-decoration="underline" textLength="96" x="364" y="528.3477">Color errorText</text><ellipse cx="355" cy="542.6719" fill="none" rx="3" ry="3" style="stroke:#038048;stroke-width:1.0;"/><text fill="#000000" font-family="sans-serif" font-size="14" lengthAdjust="spacing" text-decoration="underline" textLength="68" x="364" y="546.9688">Color back</text><ellipse cx="355" cy="561.293" fill="none" rx="3" ry="3" style="stroke:#038048;stroke-width:1.0;"/><text fill="#000000" font-family="sans-serif" font-size="14" lengthAdjust="spacing" text-decoration="underline" textLength="88" x="364" y="565.5898">Color practice</text><ellipse cx="355" cy="579.9141" fill="none" rx="3" ry="3" style="stroke:#038048;stroke-width:1.0;"/><text fill="#000000" font-family="sans-serif" font-size="14" lengthAdjust="spacing" text-decoration="underline" textLength="131" x="364" y="584.2109">Color practiceSolved</text><ellipse cx="355" cy="598.5352" fill="none" rx="3" ry="3" style="stroke:#038048;stroke-width:1.0;"/><text fill="#000000" font-family="sans-serif" font-size="14" lengthAdjust="spacing" text-decoration="underline" textLength="152" x="364" y="602.832">Color practiceNotSolved</text><line style="stroke:#181818;stroke-width:0.5;" x1="345" x2="523" y1="610.3457" y2="610.3457"/></g><!--class StaticMarkdown--><g id="elem_StaticMarkdown"><rect codeLine="19" fill="#F1F1F1" height="85.2422" id="StaticMarkdown" rx="2.5" ry="2.5" style="stroke:#181818;stroke-width:0.5;" width="223" x="816.5" y="449.5137"/><ellipse cx="874.25" cy="465.5137" fill="#ADD1B2" rx="11" ry="11" style="stroke:#181818;stroke-width:1.0;"/><path d="M877.0156,461.3887 Q877.1719,461.1699 877.3594,461.0605 Q877.5469,460.9512 877.7656,460.9512 Q878.1406,460.9512 878.375,461.2168 Q878.6094,461.4668 878.6094,462.0762 L878.6094,463.5293 Q878.6094,464.1387 878.375,464.4043 Q878.1406,464.6699 877.7656,464.6699 Q877.4219,464.6699 877.2188,464.4668 Q877.0156,464.2793 876.9063,463.7637 Q876.8594,463.4043 876.6719,463.2168 Q876.3438,462.8418 875.7344,462.623 Q875.125,462.4043 874.5,462.4043 Q873.7344,462.4043 873.0938,462.7324 Q872.4688,463.0605 871.9688,463.8105 Q871.4844,464.5605 871.4844,465.5918 L871.4844,466.6855 Q871.4844,467.9199 872.375,468.748 Q873.2656,469.5605 874.8594,469.5605 Q875.7969,469.5605 876.4531,469.3105 Q876.8438,469.1543 877.2656,468.7168 Q877.5313,468.4512 877.6719,468.373 Q877.8281,468.2949 878.0313,468.2949 Q878.3594,468.2949 878.6094,468.5605 Q878.875,468.8105 878.875,469.1543 Q878.875,469.498 878.5313,469.9043 Q878.0313,470.4824 877.2344,470.8105 Q876.1563,471.2637 874.8594,471.2637 Q873.3438,471.2637 872.1406,470.6387 Q871.1563,470.1387 870.4688,469.0762 Q869.7813,467.998 869.7813,466.7168 L869.7813,465.5605 Q869.7813,464.2324 870.3906,463.0918 Q871.0156,461.9355 872.1094,461.3262 Q873.2031,460.7012 874.4375,460.7012 Q875.1719,460.7012 875.8125,460.873 Q876.4688,461.0293 877.0156,461.3887 Z " fill="#000000"/><text fill="#000000" font-family="sans-serif" font-size="14" lengthAdjust="spacing" textLength="99" x="894.75" y="471.3105">StaticMarkdown</text><line style="stroke:#181818;stroke-width:0.5;" x1="817.5" x2="1038.5" y1="481.5137" y2="481.5137"/><rect fill="none" height="6" style="stroke:#C82930;stroke-width:1.0;" width="6" x="824.5" y="493.3242"/><text fill="#000000" font-family="sans-serif" font-size="14" lengthAdjust="spacing" text-decoration="underline" textLength="99" x="836.5" y="500.6211">TextStyle _style</text><line style="stroke:#181818;stroke-width:0.5;" x1="817.5" x2="1038.5" y1="508.1348" y2="508.1348"/><ellipse cx="827.5" cy="522.9453" fill="#84BE84" rx="3" ry="3" style="stroke:#038048;stroke-width:1.0;"/><text fill="#000000" font-family="sans-serif" font-size="14" lengthAdjust="spacing" text-decoration="underline" textLength="197" x="836.5" y="527.2422">MarkdownStyleSheet getStyle()</text></g><!--class SchemePlan--><g id="elem_SchemePlan"><rect codeLine="26" fill="#F1F1F1" height="141.1055" id="SchemePlan" rx="2.5" ry="2.5" style="stroke:#181818;stroke-width:0.5;" width="180" x="580" y="421.5137"/><ellipse cx="626.25" cy="437.5137" fill="#ADD1B2" rx="11" ry="11" style="stroke:#181818;stroke-width:1.0;"/><path d="M629.0156,433.3887 Q629.1719,433.1699 629.3594,433.0605 Q629.5469,432.9512 629.7656,432.9512 Q630.1406,432.9512 630.375,433.2168 Q630.6094,433.4668 630.6094,434.0762 L630.6094,435.5293 Q630.6094,436.1387 630.375,436.4043 Q630.1406,436.6699 629.7656,436.6699 Q629.4219,436.6699 629.2188,436.4668 Q629.0156,436.2793 628.9063,435.7637 Q628.8594,435.4043 628.6719,435.2168 Q628.3438,434.8418 627.7344,434.623 Q627.125,434.4043 626.5,434.4043 Q625.7344,434.4043 625.0938,434.7324 Q624.4688,435.0605 623.9688,435.8105 Q623.4844,436.5605 623.4844,437.5918 L623.4844,438.6855 Q623.4844,439.9199 624.375,440.748 Q625.2656,441.5605 626.8594,441.5605 Q627.7969,441.5605 628.4531,441.3105 Q628.8438,441.1543 629.2656,440.7168 Q629.5313,440.4512 629.6719,440.373 Q629.8281,440.2949 630.0313,440.2949 Q630.3594,440.2949 630.6094,440.5605 Q630.875,440.8105 630.875,441.1543 Q630.875,441.498 630.5313,441.9043 Q630.0313,442.4824 629.2344,442.8105 Q628.1563,443.2637 626.8594,443.2637 Q625.3438,443.2637 624.1406,442.6387 Q623.1563,442.1387 622.4688,441.0762 Q621.7813,439.998 621.7813,438.7168 L621.7813,437.5605 Q621.7813,436.2324 622.3906,435.0918 Q623.0156,433.9355 624.1094,433.3262 Q625.2031,432.7012 626.4375,432.7012 Q627.1719,432.7012 627.8125,432.873 Q628.4688,433.0293 629.0156,433.3887 Z " fill="#000000"/><text fill="#000000" font-family="sans-serif" font-size="14" lengthAdjust="spacing" textLength="79" x="646.75" y="443.3105">SchemePlan</text><line style="stroke:#181818;stroke-width:0.5;" x1="581" x2="759" y1="453.5137" y2="453.5137"/><ellipse cx="591" cy="468.3242" fill="none" rx="3" ry="3" style="stroke:#038048;stroke-width:1.0;"/><text fill="#000000" font-family="sans-serif" font-size="14" lengthAdjust="spacing" text-decoration="underline" textLength="115" x="600" y="472.6211">TextStyle textStyle</text><ellipse cx="591" cy="486.9453" fill="none" rx="3" ry="3" style="stroke:#038048;stroke-width:1.0;"/><text fill="#000000" font-family="sans-serif" font-size="14" lengthAdjust="spacing" text-decoration="underline" textLength="108" x="600" y="491.2422">List&lt;String&gt; keys</text><ellipse cx="591" cy="505.5664" fill="none" rx="3" ry="3" style="stroke:#038048;stroke-width:1.0;"/><text fill="#000000" font-family="sans-serif" font-size="14" lengthAdjust="spacing" text-decoration="underline" textLength="116" x="600" y="509.8633">List&lt;String&gt; labels</text><ellipse cx="591" cy="524.1875" fill="none" rx="3" ry="3" style="stroke:#038048;stroke-width:1.0;"/><text fill="#000000" font-family="sans-serif" font-size="14" lengthAdjust="spacing" text-decoration="underline" textLength="154" x="600" y="528.4844">List&lt;InlineSpan?&gt; spans</text><ellipse cx="591" cy="542.8086" fill="none" rx="3" ry="3" style="stroke:#038048;stroke-width:1.0;"/><text fill="#000000" font-family="sans-serif" font-size="14" lengthAdjust="spacing" text-decoration="underline" textLength="58" x="600" y="547.1055">int length</text><line style="stroke:#181818;stroke-width:0.5;" x1="581" x2="759" y1="554.6191" y2="554.6191"/></g><!--class StaticStrings--><g id="elem_StaticStrings"><rect codeLine="36" fill="#F1F1F1" height="718.3594" id="StaticStrings" rx="2.5" ry="2.5" style="stroke:#181818;stroke-width:0.5;" width="218" x="70" y="133.0137"/><ellipse cx="135.25" cy="149.0137" fill="#ADD1B2" rx="11" ry="11" style="stroke:#181818;stroke-width:1.0;"/><path d="M138.0156,144.8887 Q138.1719,144.6699 138.3594,144.5605 Q138.5469,144.4512 138.7656,144.4512 Q139.1406,144.4512 139.375,144.7168 Q139.6094,144.9668 139.6094,145.5762 L139.6094,147.0293 Q139.6094,147.6387 139.375,147.9043 Q139.1406,148.1699 138.7656,148.1699 Q138.4219,148.1699 138.2188,147.9668 Q138.0156,147.7793 137.9063,147.2637 Q137.8594,146.9043 137.6719,146.7168 Q137.3438,146.3418 136.7344,146.123 Q136.125,145.9043 135.5,145.9043 Q134.7344,145.9043 134.0938,146.2324 Q133.4688,146.5605 132.9688,147.3105 Q132.4844,148.0605 132.4844,149.0918 L132.4844,150.1855 Q132.4844,151.4199 133.375,152.248 Q134.2656,153.0605 135.8594,153.0605 Q136.7969,153.0605 137.4531,152.8105 Q137.8438,152.6543 138.2656,152.2168 Q138.5313,151.9512 138.6719,151.873 Q138.8281,151.7949 139.0313,151.7949 Q139.3594,151.7949 139.6094,152.0605 Q139.875,152.3105 139.875,152.6543 Q139.875,152.998 139.5313,153.4043 Q139.0313,153.9824 138.2344,154.3105 Q137.1563,154.7637 135.8594,154.7637 Q134.3438,154.7637 133.1406,154.1387 Q132.1563,153.6387 131.4688,152.5762 Q130.7813,151.498 130.7813,150.2168 L130.7813,149.0605 Q130.7813,147.7324 131.3906,146.5918 Q132.0156,145.4355 133.1094,144.8262 Q134.2031,144.2012 135.4375,144.2012 Q136.1719,144.2012 136.8125,144.373 Q137.4688,144.5293 138.0156,144.8887 Z " fill="#000000"/><text fill="#000000" font-family="sans-serif" font-size="14" lengthAdjust="spacing" textLength="79" x="155.75" y="154.8105">StaticStrings</text><line style="stroke:#181818;stroke-width:0.5;" x1="71" x2="287" y1="165.0137" y2="165.0137"/><ellipse cx="81" cy="179.8242" fill="none" rx="3" ry="3" style="stroke:#038048;stroke-width:1.0;"/><text fill="#000000" font-family="sans-serif" font-size="14" lengthAdjust="spacing" text-decoration="underline" textLength="76" x="90" y="184.1211">String game</text><ellipse cx="81" cy="198.4453" fill="none" rx="3" ry="3" style="stroke:#038048;stroke-width:1.0;"/><text fill="#000000" font-family="sans-serif" font-size="14" lengthAdjust="spacing" text-decoration="underline" textLength="128" x="90" y="202.7422">String achievements</text><ellipse cx="81" cy="217.0664" fill="none" rx="3" ry="3" style="stroke:#038048;stroke-width:1.0;"/><text fill="#000000" font-family="sans-serif" font-size="14" lengthAdjust="spacing" text-decoration="underline" textLength="80" x="90" y="221.3633">String logout</text><ellipse cx="81" cy="235.6875" fill="none" rx="3" ry="3" style="stroke:#038048;stroke-width:1.0;"/><text fill="#000000" font-family="sans-serif" font-size="14" lengthAdjust="spacing" text-decoration="underline" textLength="117" x="90" y="239.9844">String changeUser</text><ellipse cx="81" cy="254.3086" fill="none" rx="3" ry="3" style="stroke:#038048;stroke-width:1.0;"/><text fill="#000000" font-family="sans-serif" font-size="14" lengthAdjust="spacing" text-decoration="underline" textLength="62" x="90" y="258.6055">String exit</text><ellipse cx="81" cy="272.9297" fill="none" rx="3" ry="3" style="stroke:#038048;stroke-width:1.0;"/><text fill="#000000" font-family="sans-serif" font-size="14" lengthAdjust="spacing" text-decoration="underline" textLength="74" x="90" y="277.2266">String email</text><ellipse cx="81" cy="291.5508" fill="none" rx="3" ry="3" style="stroke:#038048;stroke-width:1.0;"/><text fill="#000000" font-family="sans-serif" font-size="14" lengthAdjust="spacing" text-decoration="underline" textLength="101" x="90" y="295.8477">String password</text><ellipse cx="81" cy="310.1719" fill="none" rx="3" ry="3" style="stroke:#038048;stroke-width:1.0;"/><text fill="#000000" font-family="sans-serif" font-size="14" lengthAdjust="spacing" text-decoration="underline" textLength="143" x="90" y="314.4688">String repeatPassword</text><ellipse cx="81" cy="328.793" fill="none" rx="3" ry="3" style="stroke:#038048;stroke-width:1.0;"/><text fill="#000000" font-family="sans-serif" font-size="14" lengthAdjust="spacing" text-decoration="underline" textLength="89" x="90" y="333.0898">String register</text><ellipse cx="81" cy="347.4141" fill="none" rx="3" ry="3" style="stroke:#038048;stroke-width:1.0;"/><text fill="#000000" font-family="sans-serif" font-size="14" lengthAdjust="spacing" text-decoration="underline" textLength="71" x="90" y="351.7109">String login</text><ellipse cx="81" cy="366.0352" fill="none" rx="3" ry="3" style="stroke:#038048;stroke-width:1.0;"/><text fill="#000000" font-family="sans-serif" font-size="14" lengthAdjust="spacing" text-decoration="underline" textLength="88" x="90" y="370.332">String toLogin</text><ellipse cx="81" cy="384.6563" fill="none" rx="3" ry="3" style="stroke:#038048;stroke-width:1.0;"/><text fill="#000000" font-family="sans-serif" font-size="14" lengthAdjust="spacing" text-decoration="underline" textLength="106" x="90" y="388.9531">String toRegister</text><ellipse cx="81" cy="403.2773" fill="none" rx="3" ry="3" style="stroke:#038048;stroke-width:1.0;"/><text fill="#000000" font-family="sans-serif" font-size="14" lengthAdjust="spacing" text-decoration="underline" textLength="93" x="90" y="407.5742">String greeting</text><ellipse cx="81" cy="421.8984" fill="none" rx="3" ry="3" style="stroke:#038048;stroke-width:1.0;"/><text fill="#000000" font-family="sans-serif" font-size="14" lengthAdjust="spacing" text-decoration="underline" textLength="161" x="90" y="426.1953">List&lt;String&gt; chapterTitles</text><ellipse cx="81" cy="440.5195" fill="none" rx="3" ry="3" style="stroke:#038048;stroke-width:1.0;"/><text fill="#000000" font-family="sans-serif" font-size="14" lengthAdjust="spacing" text-decoration="underline" textLength="84" x="90" y="444.8164">String yesBtn</text><ellipse cx="81" cy="459.1406" fill="none" rx="3" ry="3" style="stroke:#038048;stroke-width:1.0;"/><text fill="#000000" font-family="sans-serif" font-size="14" lengthAdjust="spacing" text-decoration="underline" textLength="78" x="90" y="463.4375">String noBtn</text><ellipse cx="81" cy="477.7617" fill="none" rx="3" ry="3" style="stroke:#038048;stroke-width:1.0;"/><text fill="#000000" font-family="sans-serif" font-size="14" lengthAdjust="spacing" text-decoration="underline" textLength="107" x="90" y="482.0586">String logoutTitle</text><ellipse cx="81" cy="496.3828" fill="none" rx="3" ry="3" style="stroke:#038048;stroke-width:1.0;"/><text fill="#000000" font-family="sans-serif" font-size="14" lengthAdjust="spacing" text-decoration="underline" textLength="109" x="90" y="500.6797">String logoutAlert</text><ellipse cx="81" cy="515.0039" fill="none" rx="3" ry="3" style="stroke:#038048;stroke-width:1.0;"/><text fill="#000000" font-family="sans-serif" font-size="14" lengthAdjust="spacing" text-decoration="underline" textLength="108" x="90" y="519.3008">String theoryTitle</text><ellipse cx="81" cy="533.625" fill="none" rx="3" ry="3" style="stroke:#038048;stroke-width:1.0;"/><text fill="#000000" font-family="sans-serif" font-size="14" lengthAdjust="spacing" text-decoration="underline" textLength="118" x="90" y="537.9219">String testOnTopic</text><ellipse cx="81" cy="552.2461" fill="none" rx="3" ry="3" style="stroke:#038048;stroke-width:1.0;"/><text fill="#000000" font-family="sans-serif" font-size="14" lengthAdjust="spacing" text-decoration="underline" textLength="71" x="90" y="556.543">String topic</text><ellipse cx="81" cy="570.8672" fill="none" rx="3" ry="3" style="stroke:#038048;stroke-width:1.0;"/><text fill="#000000" font-family="sans-serif" font-size="14" lengthAdjust="spacing" text-decoration="underline" textLength="114" x="90" y="575.1641">String myPlanTitle</text><ellipse cx="81" cy="589.4883" fill="none" rx="3" ry="3" style="stroke:#038048;stroke-width:1.0;"/><text fill="#000000" font-family="sans-serif" font-size="14" lengthAdjust="spacing" text-decoration="underline" textLength="67" x="90" y="593.7852">String next</text><ellipse cx="81" cy="608.1094" fill="none" rx="3" ry="3" style="stroke:#038048;stroke-width:1.0;"/><text fill="#000000" font-family="sans-serif" font-size="14" lengthAdjust="spacing" text-decoration="underline" textLength="95" x="90" y="612.4063">String planTitle</text><ellipse cx="81" cy="626.7305" fill="none" rx="3" ry="3" style="stroke:#038048;stroke-width:1.0;"/><text fill="#000000" font-family="sans-serif" font-size="14" lengthAdjust="spacing" text-decoration="underline" textLength="82" x="90" y="631.0273">String advice</text><ellipse cx="81" cy="645.3516" fill="none" rx="3" ry="3" style="stroke:#038048;stroke-width:1.0;"/><text fill="#000000" font-family="sans-serif" font-size="14" lengthAdjust="spacing" text-decoration="underline" textLength="130" x="90" y="649.6484">String errorEmailUse</text><ellipse cx="81" cy="663.9727" fill="none" rx="3" ry="3" style="stroke:#038048;stroke-width:1.0;"/><text fill="#000000" font-family="sans-serif" font-size="14" lengthAdjust="spacing" text-decoration="underline" textLength="169" x="90" y="668.2695">String errorPasswordWeak</text><ellipse cx="81" cy="682.5938" fill="none" rx="3" ry="3" style="stroke:#038048;stroke-width:1.0;"/><text fill="#000000" font-family="sans-serif" font-size="14" lengthAdjust="spacing" text-decoration="underline" textLength="192" x="90" y="686.8906">String errorPasswordNotMatch</text><ellipse cx="81" cy="701.2148" fill="none" rx="3" ry="3" style="stroke:#038048;stroke-width:1.0;"/><text fill="#000000" font-family="sans-serif" font-size="14" lengthAdjust="spacing" text-decoration="underline" textLength="145" x="90" y="705.5117">String errorEmailEmpty</text><ellipse cx="81" cy="719.8359" fill="none" rx="3" ry="3" style="stroke:#038048;stroke-width:1.0;"/><text fill="#000000" font-family="sans-serif" font-size="14" lengthAdjust="spacing" text-decoration="underline" textLength="172" x="90" y="724.1328">String errorPasswordEmpty</text><ellipse cx="81" cy="738.457" fill="none" rx="3" ry="3" style="stroke:#038048;stroke-width:1.0;"/><text fill="#000000" font-family="sans-serif" font-size="14" lengthAdjust="spacing" text-decoration="underline" textLength="167" x="90" y="742.7539">String errorPasswordShort</text><ellipse cx="81" cy="757.0781" fill="none" rx="3" ry="3" style="stroke:#038048;stroke-width:1.0;"/><text fill="#000000" font-family="sans-serif" font-size="14" lengthAdjust="spacing" text-decoration="underline" textLength="129" x="90" y="761.375">String errorUnknown</text><ellipse cx="81" cy="775.6992" fill="none" rx="3" ry="3" style="stroke:#038048;stroke-width:1.0;"/><text fill="#000000" font-family="sans-serif" font-size="14" lengthAdjust="spacing" text-decoration="underline" textLength="146" x="90" y="779.9961">String errorEmailInvalid</text><ellipse cx="81" cy="794.3203" fill="none" rx="3" ry="3" style="stroke:#038048;stroke-width:1.0;"/><text fill="#000000" font-family="sans-serif" font-size="14" lengthAdjust="spacing" text-decoration="underline" textLength="168" x="90" y="798.6172">String errorEmailNotFound</text><ellipse cx="81" cy="812.9414" fill="none" rx="3" ry="3" style="stroke:#038048;stroke-width:1.0;"/><text fill="#000000" font-family="sans-serif" font-size="14" lengthAdjust="spacing" text-decoration="underline" textLength="173" x="90" y="817.2383">String errorPasswordInvalid</text><ellipse cx="81" cy="831.5625" fill="none" rx="3" ry="3" style="stroke:#038048;stroke-width:1.0;"/><text fill="#000000" font-family="sans-serif" font-size="14" lengthAdjust="spacing" text-decoration="underline" textLength="184" x="90" y="835.8594">String errorCredentialsInvalid</text><line style="stroke:#181818;stroke-width:0.5;" x1="71" x2="287" y1="843.373" y2="843.373"/></g><!--class Color--><g id="elem_Color"><rect fill="#F1F1F1" height="48" id="Color" rx="2.5" ry="2.5" style="stroke:#181818;stroke-width:0.5;" width="66" x="401" y="1111.0137"/><ellipse cx="416" cy="1127.0137" fill="#ADD1B2" rx="11" ry="11" style="stroke:#181818;stroke-width:1.0;"/><path d="M418.7656,1122.8887 Q418.9219,1122.6699 419.1094,1122.5605 Q419.2969,1122.4512 419.5156,1122.4512 Q419.8906,1122.4512 420.125,1122.7168 Q420.3594,1122.9668 420.3594,1123.5762 L420.3594,1125.0293 Q420.3594,1125.6387 420.125,1125.9043 Q419.8906,1126.1699 419.5156,1126.1699 Q419.1719,1126.1699 418.9688,1125.9668 Q418.7656,1125.7793 418.6563,1125.2637 Q418.6094,1124.9043 418.4219,1124.7168 Q418.0938,1124.3418 417.4844,1124.123 Q416.875,1123.9043 416.25,1123.9043 Q415.4844,1123.9043 414.8438,1124.2324 Q414.2188,1124.5605 413.7188,1125.3105 Q413.2344,1126.0605 413.2344,1127.0918 L413.2344,1128.1855 Q413.2344,1129.4199 414.125,1130.248 Q415.0156,1131.0605 416.6094,1131.0605 Q417.5469,1131.0605 418.2031,1130.8105 Q418.5938,1130.6543 419.0156,1130.2168 Q419.2813,1129.9512 419.4219,1129.873 Q419.5781,1129.7949 419.7813,1129.7949 Q420.1094,1129.7949 420.3594,1130.0605 Q420.625,1130.3105 420.625,1130.6543 Q420.625,1130.998 420.2813,1131.4043 Q419.7813,1131.9824 418.9844,1132.3105 Q417.9063,1132.7637 416.6094,1132.7637 Q415.0938,1132.7637 413.8906,1132.1387 Q412.9063,1131.6387 412.2188,1130.5762 Q411.5313,1129.498 411.5313,1128.2168 L411.5313,1127.0605 Q411.5313,1125.7324 412.1406,1124.5918 Q412.7656,1123.4355 413.8594,1122.8262 Q414.9531,1122.2012 416.1875,1122.2012 Q416.9219,1122.2012 417.5625,1122.373 Q418.2188,1122.5293 418.7656,1122.8887 Z " fill="#000000"/><text fill="#000000" font-family="sans-serif" font-size="14" lengthAdjust="spacing" textLength="34" x="430" y="1132.8105">Color</text><line style="stroke:#181818;stroke-width:0.5;" x1="402" x2="466" y1="1143.0137" y2="1143.0137"/><line style="stroke:#181818;stroke-width:0.5;" x1="402" x2="466" y1="1151.0137" y2="1151.0137"/></g><!--class TextStyle--><g id="elem_TextStyle"><rect fill="#F1F1F1" height="48" id="TextStyle" rx="2.5" ry="2.5" style="stroke:#181818;stroke-width:0.5;" width="90" x="754" y="1111.0137"/><ellipse cx="769" cy="1127.0137" fill="#ADD1B2" rx="11" ry="11" style="stroke:#181818;stroke-width:1.0;"/><path d="M771.7656,1122.8887 Q771.9219,1122.6699 772.1094,1122.5605 Q772.2969,1122.4512 772.5156,1122.4512 Q772.8906,1122.4512 773.125,1122.7168 Q773.3594,1122.9668 773.3594,1123.5762 L773.3594,1125.0293 Q773.3594,1125.6387 773.125,1125.9043 Q772.8906,1126.1699 772.5156,1126.1699 Q772.1719,1126.1699 771.9688,1125.9668 Q771.7656,1125.7793 771.6563,1125.2637 Q771.6094,1124.9043 771.4219,1124.7168 Q771.0938,1124.3418 770.4844,1124.123 Q769.875,1123.9043 769.25,1123.9043 Q768.4844,1123.9043 767.8438,1124.2324 Q767.2188,1124.5605 766.7188,1125.3105 Q766.2344,1126.0605 766.2344,1127.0918 L766.2344,1128.1855 Q766.2344,1129.4199 767.125,1130.248 Q768.0156,1131.0605 769.6094,1131.0605 Q770.5469,1131.0605 771.2031,1130.8105 Q771.5938,1130.6543 772.0156,1130.2168 Q772.2813,1129.9512 772.4219,1129.873 Q772.5781,1129.7949 772.7813,1129.7949 Q773.1094,1129.7949 773.3594,1130.0605 Q773.625,1130.3105 773.625,1130.6543 Q773.625,1130.998 773.2813,1131.4043 Q772.7813,1131.9824 771.9844,1132.3105 Q770.9063,1132.7637 769.6094,1132.7637 Q768.0938,1132.7637 766.8906,1132.1387 Q765.9063,1131.6387 765.2188,1130.5762 Q764.5313,1129.498 764.5313,1128.2168 L764.5313,1127.0605 Q764.5313,1125.7324 765.1406,1124.5918 Q765.7656,1123.4355 766.8594,1122.8262 Q767.9531,1122.2012 769.1875,1122.2012 Q769.9219,1122.2012 770.5625,1122.373 Q771.2188,1122.5293 771.7656,1122.8887 Z " fill="#000000"/><text fill="#000000" font-family="sans-serif" font-size="14" lengthAdjust="spacing" textLength="58" x="783" y="1132.8105">TextStyle</text><line style="stroke:#181818;stroke-width:0.5;" x1="755" x2="843" y1="1143.0137" y2="1143.0137"/><line style="stroke:#181818;stroke-width:0.5;" x1="755" x2="843" y1="1151.0137" y2="1151.0137"/></g><!--reverse link StaticColors to Color--><g id="link_StaticColors_Color"><path codeLine="17" d="M434,630.8937 C434,787.8537 434,1033.0437 434,1110.9437 " fill="none" id="StaticColors-backto-Color" style="stroke:#181818;stroke-width:1.0;"/><polygon fill="none" points="434,618.8937,430,624.8937,434,630.8937,438,624.8937,434,618.8937" style="stroke:#181818;stroke-width:1.0;"/></g><!--reverse link StaticMarkdown to TextStyle--><g id="link_StaticMarkdown_TextStyle"><path codeLine="24" d="M917.2719,546.3377 C892.5319,669.2377 822.66,1016.4637 803.63,1110.9837 " fill="none" id="StaticMarkdown-backto-TextStyle" style="stroke:#181818;stroke-width:1.0;"/><polygon fill="none" points="919.64,534.5737,914.5346,539.6663,917.2719,546.3377,922.3773,541.2451,919.64,534.5737" style="stroke:#181818;stroke-width:1.0;"/></g><!--reverse link SchemePlan to TextStyle--><g id="link_SchemePlan_TextStyle"><path codeLine="34" d="M686.3574,574.2878 C714.9574,716.4078 776.56,1022.5137 794.34,1110.8537 " fill="none" id="SchemePlan-backto-TextStyle" style="stroke:#181818;stroke-width:1.0;"/><polygon fill="none" points="683.99,562.5237,681.2523,569.1949,686.3574,574.2878,689.0951,567.6166,683.99,562.5237" style="stroke:#181818;stroke-width:1.0;"/></g><!--SRC=[jLLDRzim3BtdLmWvRHYo7o0C7ROY0mgqMp6dsB5WPSuMB4k2nAGrYlxtqNRS8PbaRuUT4lCzVZoIfYEIiD1YzA2mG0y1o0KXvMgb3CGerf4WqDvB6Mi8M4gfd74XlY_PB6L1G5fT3gQrU5u9yHm7qujuDrZ50wYc2cvlo-4vnTWJEPi5TlX42R0AYAHjjG0NVVcvp1DfcoyEGt0XawENbZ3x08gVSGOgd3bWEKFuwkZ8ULcj_ca6RhCHwn7OQoa7ype_pHP2Kxf7UnBhvcWyc-YcxqD1dK5n7_kV4m6Jqq0eQkwig72altcRbh6GV93oq_0MO62deAJqe6q_CIc9QnchE7g_5ZUZDgeQMxpt1bvp3fPRDfolxs-nDFqxmQzrf0y51QxcGZJOnJngu05D0h-oHbiiFDYF5u9VGNlAOQd2eAseJhTlNir_wDuWvtJjHeb_lFkZMLHyMb9sKBN60vTgAQPmuogtfnIYQh0LtaKCAHIVTD8BMz0c1NXM-kX2cS82UWIwdMLKFCPqAIn1snH0xZeFVP-9E5sh_9vnSpmxxpGPJFQrm_YPagcjom3ZA8QGUVYJmP1iFDNeGfVr9epqpUwSrohTZmpGTlsEPyFQytizJNlE2Sh3-T6UjgV_1cpx5UAzonAcHVc1q2oI-BxV0AbwFjsszTGjnlexLb6xz8W6rfrjBD_S-NAkx06CBkT9hEnB_xLVB6WfsYNV7BuF6aoSg7m5Vm40]--></g></svg>