<?xml version="1.0" encoding="us-ascii" standalone="no"?><svg xmlns="http://www.w3.org/2000/svg" xmlns:xlink="http://www.w3.org/1999/xlink" contentStyleType="text/css" height="569px" preserveAspectRatio="none" style="width:2014px;height:569px;background:#FFFFFF;" version="1.1" viewBox="0 0 2014 569" width="2014px" zoomAndPan="magnify"><defs/><g><!--cluster startup--><g id="cluster_startup"><path d="M8.5,6.0137 L59.5,6.0137 A3.75,3.75 0 0 1 62,8.5137 L69,30.6348 L2004.5,30.6348 A2.5,2.5 0 0 1 2007,33.1348 L2007,559.5137 A2.5,2.5 0 0 1 2004.5,562.0137 L8.5,562.0137 A2.5,2.5 0 0 1 6,559.5137 L6,8.5137 A2.5,2.5 0 0 1 8.5,6.0137 " fill="none" style="stroke:#000000;stroke-width:1.5;"/><line style="stroke:#000000;stroke-width:1.5;" x1="6" x2="69" y1="30.6348" y2="30.6348"/><text fill="#000000" font-family="sans-serif" font-size="14" font-weight="bold" lengthAdjust="spacing" textLength="50" x="10" y="23.1211">startup</text></g><!--cluster widgets--><g id="cluster_widgets"><path d="M32.5,51.0137 L88.5,51.0137 A3.75,3.75 0 0 1 91,53.5137 L98,75.6348 L1562.5,75.6348 A2.5,2.5 0 0 1 1565,78.1348 L1565,535.5137 A2.5,2.5 0 0 1 1562.5,538.0137 L32.5,538.0137 A2.5,2.5 0 0 1 30,535.5137 L30,53.5137 A2.5,2.5 0 0 1 32.5,51.0137 " fill="none" style="stroke:#000000;stroke-width:1.5;"/><line style="stroke:#000000;stroke-width:1.5;" x1="30" x2="98" y1="75.6348" y2="75.6348"/><text fill="#000000" font-family="sans-serif" font-size="14" font-weight="bold" lengthAdjust="spacing" textLength="55" x="34" y="68.1211">widgets</text></g><!--cluster chapter_button.dart--><g id="cluster_chapter_button.dart"><path d="M1387.5,114.5137 L1528.5,114.5137 A3.75,3.75 0 0 1 1531,117.0137 L1538,139.1348 L1538.5,139.1348 A2.5,2.5 0 0 1 1541,141.6348 L1541,250.0137 A2.5,2.5 0 0 1 1538.5,252.5137 L1387.5,252.5137 A2.5,2.5 0 0 1 1385,250.0137 L1385,117.0137 A2.5,2.5 0 0 1 1387.5,114.5137 " fill="none" style="stroke:#000000;stroke-width:1.5;"/><line style="stroke:#000000;stroke-width:1.5;" x1="1385" x2="1538" y1="139.1348" y2="139.1348"/><text fill="#000000" font-family="sans-serif" font-size="14" font-weight="bold" lengthAdjust="spacing" textLength="140" x="1389" y="131.6211">chapter_button.dart</text></g><!--cluster menu.dart--><g id="cluster_menu.dart"><path d="M1101.5,105.0137 L1173.5,105.0137 A3.75,3.75 0 0 1 1176,107.5137 L1183,129.6348 L1358.5,129.6348 A2.5,2.5 0 0 1 1361,132.1348 L1361,259.5137 A2.5,2.5 0 0 1 1358.5,262.0137 L1101.5,262.0137 A2.5,2.5 0 0 1 1099,259.5137 L1099,107.5137 A2.5,2.5 0 0 1 1101.5,105.0137 " fill="none" style="stroke:#000000;stroke-width:1.5;"/><line style="stroke:#000000;stroke-width:1.5;" x1="1099" x2="1183" y1="129.6348" y2="129.6348"/><text fill="#000000" font-family="sans-serif" font-size="14" font-weight="bold" lengthAdjust="spacing" textLength="71" x="1103" y="122.1211">menu.dart</text></g><!--cluster menu_button.dart--><g id="cluster_menu_button.dart"><path d="M931.5,114.5137 L1057.5,114.5137 A3.75,3.75 0 0 1 1060,117.0137 L1067,139.1348 L1072.5,139.1348 A2.5,2.5 0 0 1 1075,141.6348 L1075,250.0137 A2.5,2.5 0 0 1 1072.5,252.5137 L931.5,252.5137 A2.5,2.5 0 0 1 929,250.0137 L929,117.0137 A2.5,2.5 0 0 1 931.5,114.5137 " fill="none" style="stroke:#000000;stroke-width:1.5;"/><line style="stroke:#000000;stroke-width:1.5;" x1="929" x2="1067" y1="139.1348" y2="139.1348"/><text fill="#000000" font-family="sans-serif" font-size="14" font-weight="bold" lengthAdjust="spacing" textLength="125" x="933" y="131.6211">menu_button.dart</text></g><!--cluster menu_email.dart--><g id="cluster_menu_email.dart"><path d="M56.5,375.5137 L173.5,375.5137 A3.75,3.75 0 0 1 176,378.0137 L183,400.1348 L468.5,400.1348 A2.5,2.5 0 0 1 471,402.6348 L471,493.0137 A2.5,2.5 0 0 1 468.5,495.5137 L56.5,495.5137 A2.5,2.5 0 0 1 54,493.0137 L54,378.0137 A2.5,2.5 0 0 1 56.5,375.5137 " fill="none" style="stroke:#000000;stroke-width:1.5;"/><line style="stroke:#000000;stroke-width:1.5;" x1="54" x2="183" y1="400.1348" y2="400.1348"/><text fill="#000000" font-family="sans-serif" font-size="14" font-weight="bold" lengthAdjust="spacing" textLength="116" x="58" y="392.6211">menu_email.dart</text></g><!--cluster menu_input.dart--><g id="cluster_menu_input.dart"><path d="M56.5,96.0137 L172.5,96.0137 A3.75,3.75 0 0 1 175,98.5137 L182,120.6348 L482.5,120.6348 A2.5,2.5 0 0 1 485,123.1348 L485,268.5137 A2.5,2.5 0 0 1 482.5,271.0137 L56.5,271.0137 A2.5,2.5 0 0 1 54,268.5137 L54,98.5137 A2.5,2.5 0 0 1 56.5,96.0137 " fill="none" style="stroke:#000000;stroke-width:1.5;"/><line style="stroke:#000000;stroke-width:1.5;" x1="54" x2="182" y1="120.6348" y2="120.6348"/><text fill="#000000" font-family="sans-serif" font-size="14" font-weight="bold" lengthAdjust="spacing" textLength="115" x="58" y="113.1211">menu_input.dart</text></g><!--cluster menu_password.dart--><g id="cluster_menu_password.dart"><path d="M497.5,357.0137 L645.5,357.0137 A3.75,3.75 0 0 1 648,359.5137 L655,381.6348 L1013.5,381.6348 A2.5,2.5 0 0 1 1016,384.1348 L1016,511.5137 A2.5,2.5 0 0 1 1013.5,514.0137 L497.5,514.0137 A2.5,2.5 0 0 1 495,511.5137 L495,359.5137 A2.5,2.5 0 0 1 497.5,357.0137 " fill="none" style="stroke:#000000;stroke-width:1.5;"/><line style="stroke:#000000;stroke-width:1.5;" x1="495" x2="655" y1="381.6348" y2="381.6348"/><text fill="#000000" font-family="sans-serif" font-size="14" font-weight="bold" lengthAdjust="spacing" textLength="147" x="499" y="374.1211">menu_password.dart</text></g><!--cluster practice_button.dart--><g id="cluster_practice_button.dart"><path d="M701.5,96.0137 L845.5,96.0137 A3.75,3.75 0 0 1 848,98.5137 L855,120.6348 L902.5,120.6348 A2.5,2.5 0 0 1 905,123.1348 L905,268.5137 A2.5,2.5 0 0 1 902.5,271.0137 L701.5,271.0137 A2.5,2.5 0 0 1 699,268.5137 L699,98.5137 A2.5,2.5 0 0 1 701.5,96.0137 " fill="none" style="stroke:#000000;stroke-width:1.5;"/><line style="stroke:#000000;stroke-width:1.5;" x1="699" x2="855" y1="120.6348" y2="120.6348"/><text fill="#000000" font-family="sans-serif" font-size="14" font-weight="bold" lengthAdjust="spacing" textLength="143" x="703" y="113.1211">practice_button.dart</text></g><!--cluster theory_button.dart--><g id="cluster_theory_button.dart"><path d="M511.5,105.0137 L643.5,105.0137 A3.75,3.75 0 0 1 646,107.5137 L653,129.6348 L672.5,129.6348 A2.5,2.5 0 0 1 675,132.1348 L675,259.5137 A2.5,2.5 0 0 1 672.5,262.0137 L511.5,262.0137 A2.5,2.5 0 0 1 509,259.5137 L509,107.5137 A2.5,2.5 0 0 1 511.5,105.0137 " fill="none" style="stroke:#000000;stroke-width:1.5;"/><line style="stroke:#000000;stroke-width:1.5;" x1="509" x2="653" y1="129.6348" y2="129.6348"/><text fill="#000000" font-family="sans-serif" font-size="14" font-weight="bold" lengthAdjust="spacing" textLength="131" x="513" y="122.1211">theory_button.dart</text></g><!--cluster models--><g id="cluster_models"><path d="M1591.5,295.0137 L1643.5,295.0137 A3.75,3.75 0 0 1 1646,297.5137 L1653,319.6348 L1980.5,319.6348 A2.5,2.5 0 0 1 1983,322.1348 L1983,531.5137 A2.5,2.5 0 0 1 1980.5,534.0137 L1591.5,534.0137 A2.5,2.5 0 0 1 1589,531.5137 L1589,297.5137 A2.5,2.5 0 0 1 1591.5,295.0137 " fill="none" style="stroke:#000000;stroke-width:1.5;"/><line style="stroke:#000000;stroke-width:1.5;" x1="1589" x2="1653" y1="319.6348" y2="319.6348"/><text fill="#000000" font-family="sans-serif" font-size="14" font-weight="bold" lengthAdjust="spacing" textLength="51" x="1593" y="312.1211">models</text></g><!--cluster practice--><g id="cluster_practice"><path d="M1797.5,340.0137 L1855.5,340.0137 A3.75,3.75 0 0 1 1858,342.5137 L1865,364.6348 L1956.5,364.6348 A2.5,2.5 0 0 1 1959,367.1348 L1959,507.5137 A2.5,2.5 0 0 1 1956.5,510.0137 L1797.5,510.0137 A2.5,2.5 0 0 1 1795,507.5137 L1795,342.5137 A2.5,2.5 0 0 1 1797.5,340.0137 " fill="none" style="stroke:#000000;stroke-width:1.5;"/><line style="stroke:#000000;stroke-width:1.5;" x1="1795" x2="1865" y1="364.6348" y2="364.6348"/><text fill="#000000" font-family="sans-serif" font-size="14" font-weight="bold" lengthAdjust="spacing" textLength="57" x="1799" y="357.1211">practice</text></g><!--cluster practice.dart--><g id="cluster_practice.dart"><path d="M1821.5,385.0137 L1911.5,385.0137 A3.75,3.75 0 0 1 1914,387.5137 L1921,409.6348 L1932.5,409.6348 A2.5,2.5 0 0 1 1935,412.1348 L1935,483.5137 A2.5,2.5 0 0 1 1932.5,486.0137 L1821.5,486.0137 A2.5,2.5 0 0 1 1819,483.5137 L1819,387.5137 A2.5,2.5 0 0 1 1821.5,385.0137 " fill="none" style="stroke:#000000;stroke-width:1.5;"/><line style="stroke:#000000;stroke-width:1.5;" x1="1819" x2="1921" y1="409.6348" y2="409.6348"/><text fill="#000000" font-family="sans-serif" font-size="14" font-weight="bold" lengthAdjust="spacing" textLength="89" x="1823" y="402.1211">practice.dart</text></g><!--cluster theory--><g id="cluster_theory"><path d="M1615.5,340.0137 L1661.5,340.0137 A3.75,3.75 0 0 1 1664,342.5137 L1671,364.6348 L1768.5,364.6348 A2.5,2.5 0 0 1 1771,367.1348 L1771,507.5137 A2.5,2.5 0 0 1 1768.5,510.0137 L1615.5,510.0137 A2.5,2.5 0 0 1 1613,507.5137 L1613,342.5137 A2.5,2.5 0 0 1 1615.5,340.0137 " fill="none" style="stroke:#000000;stroke-width:1.5;"/><line style="stroke:#000000;stroke-width:1.5;" x1="1613" x2="1671" y1="364.6348" y2="364.6348"/><text fill="#000000" font-family="sans-serif" font-size="14" font-weight="bold" lengthAdjust="spacing" textLength="45" x="1617" y="357.1211">theory</text></g><!--cluster theory.dart--><g id="cluster_theory.dart"><path d="M1639.5,385.0137 L1717.5,385.0137 A3.75,3.75 0 0 1 1720,387.5137 L1727,409.6348 L1744.5,409.6348 A2.5,2.5 0 0 1 1747,412.1348 L1747,483.5137 A2.5,2.5 0 0 1 1744.5,486.0137 L1639.5,486.0137 A2.5,2.5 0 0 1 1637,483.5137 L1637,387.5137 A2.5,2.5 0 0 1 1639.5,385.0137 " fill="none" style="stroke:#000000;stroke-width:1.5;"/><line style="stroke:#000000;stroke-width:1.5;" x1="1637" x2="1727" y1="409.6348" y2="409.6348"/><text fill="#000000" font-family="sans-serif" font-size="14" font-weight="bold" lengthAdjust="spacing" textLength="77" x="1641" y="402.1211">theory.dart</text></g><!--class ChapterButton--><g id="elem_ChapterButton"><rect codeLine="3" fill="#F1F1F1" height="85.2422" id="ChapterButton" rx="2.5" ry="2.5" style="stroke:#181818;stroke-width:0.5;" width="124" x="1401" y="151.5137"/><ellipse cx="1416" cy="167.5137" fill="#ADD1B2" rx="11" ry="11" style="stroke:#181818;stroke-width:1.0;"/><path d="M1418.7656,163.3887 Q1418.9219,163.1699 1419.1094,163.0605 Q1419.2969,162.9512 1419.5156,162.9512 Q1419.8906,162.9512 1420.125,163.2168 Q1420.3594,163.4668 1420.3594,164.0762 L1420.3594,165.5293 Q1420.3594,166.1387 1420.125,166.4043 Q1419.8906,166.6699 1419.5156,166.6699 Q1419.1719,166.6699 1418.9688,166.4668 Q1418.7656,166.2793 1418.6563,165.7637 Q1418.6094,165.4043 1418.4219,165.2168 Q1418.0938,164.8418 1417.4844,164.623 Q1416.875,164.4043 1416.25,164.4043 Q1415.4844,164.4043 1414.8438,164.7324 Q1414.2188,165.0605 1413.7188,165.8105 Q1413.2344,166.5605 1413.2344,167.5918 L1413.2344,168.6855 Q1413.2344,169.9199 1414.125,170.748 Q1415.0156,171.5605 1416.6094,171.5605 Q1417.5469,171.5605 1418.2031,171.3105 Q1418.5938,171.1543 1419.0156,170.7168 Q1419.2813,170.4512 1419.4219,170.373 Q1419.5781,170.2949 1419.7813,170.2949 Q1420.1094,170.2949 1420.3594,170.5605 Q1420.625,170.8105 1420.625,171.1543 Q1420.625,171.498 1420.2813,171.9043 Q1419.7813,172.4824 1418.9844,172.8105 Q1417.9063,173.2637 1416.6094,173.2637 Q1415.0938,173.2637 1413.8906,172.6387 Q1412.9063,172.1387 1412.2188,171.0762 Q1411.5313,169.998 1411.5313,168.7168 L1411.5313,167.5605 Q1411.5313,166.2324 1412.1406,165.0918 Q1412.7656,163.9355 1413.8594,163.3262 Q1414.9531,162.7012 1416.1875,162.7012 Q1416.9219,162.7012 1417.5625,162.873 Q1418.2188,163.0293 1418.7656,163.3887 Z " fill="#000000"/><text fill="#000000" font-family="sans-serif" font-size="14" lengthAdjust="spacing" textLength="92" x="1430" y="173.3105">ChapterButton</text><line style="stroke:#181818;stroke-width:0.5;" x1="1402" x2="1524" y1="183.5137" y2="183.5137"/><ellipse cx="1412" cy="198.3242" fill="none" rx="3" ry="3" style="stroke:#038048;stroke-width:1.0;"/><text fill="#000000" font-family="sans-serif" font-size="14" lengthAdjust="spacing" textLength="63" x="1421" y="202.6211">String title</text><line style="stroke:#181818;stroke-width:0.5;" x1="1402" x2="1524" y1="210.1348" y2="210.1348"/><ellipse cx="1412" cy="224.9453" fill="#84BE84" rx="3" ry="3" style="stroke:#038048;stroke-width:1.0;"/><text fill="#000000" font-family="sans-serif" font-size="14" lengthAdjust="spacing" textLength="88" x="1421" y="229.2422">Widget build()</text></g><!--class Menu--><g id="elem_Menu"><rect codeLine="8" fill="#F1F1F1" height="103.8633" id="Menu" rx="2.5" ry="2.5" style="stroke:#181818;stroke-width:0.5;" width="229" x="1115.5" y="142.0137"/><ellipse cx="1208.25" cy="158.0137" fill="#ADD1B2" rx="11" ry="11" style="stroke:#181818;stroke-width:1.0;"/><path d="M1211.0156,153.8887 Q1211.1719,153.6699 1211.3594,153.5605 Q1211.5469,153.4512 1211.7656,153.4512 Q1212.1406,153.4512 1212.375,153.7168 Q1212.6094,153.9668 1212.6094,154.5762 L1212.6094,156.0293 Q1212.6094,156.6387 1212.375,156.9043 Q1212.1406,157.1699 1211.7656,157.1699 Q1211.4219,157.1699 1211.2188,156.9668 Q1211.0156,156.7793 1210.9063,156.2637 Q1210.8594,155.9043 1210.6719,155.7168 Q1210.3438,155.3418 1209.7344,155.123 Q1209.125,154.9043 1208.5,154.9043 Q1207.7344,154.9043 1207.0938,155.2324 Q1206.4688,155.5605 1205.9688,156.3105 Q1205.4844,157.0605 1205.4844,158.0918 L1205.4844,159.1855 Q1205.4844,160.4199 1206.375,161.248 Q1207.2656,162.0605 1208.8594,162.0605 Q1209.7969,162.0605 1210.4531,161.8105 Q1210.8438,161.6543 1211.2656,161.2168 Q1211.5313,160.9512 1211.6719,160.873 Q1211.8281,160.7949 1212.0313,160.7949 Q1212.3594,160.7949 1212.6094,161.0605 Q1212.875,161.3105 1212.875,161.6543 Q1212.875,161.998 1212.5313,162.4043 Q1212.0313,162.9824 1211.2344,163.3105 Q1210.1563,163.7637 1208.8594,163.7637 Q1207.3438,163.7637 1206.1406,163.1387 Q1205.1563,162.6387 1204.4688,161.5762 Q1203.7813,160.498 1203.7813,159.2168 L1203.7813,158.0605 Q1203.7813,156.7324 1204.3906,155.5918 Q1205.0156,154.4355 1206.1094,153.8262 Q1207.2031,153.2012 1208.4375,153.2012 Q1209.1719,153.2012 1209.8125,153.373 Q1210.4688,153.5293 1211.0156,153.8887 Z " fill="#000000"/><text fill="#000000" font-family="sans-serif" font-size="14" lengthAdjust="spacing" textLength="35" x="1228.75" y="163.8105">Menu</text><line style="stroke:#181818;stroke-width:0.5;" x1="1116.5" x2="1343.5" y1="174.0137" y2="174.0137"/><rect fill="none" height="6" style="stroke:#C82930;stroke-width:1.0;" width="6" x="1123.5" y="185.8242"/><text fill="#000000" font-family="sans-serif" font-size="14" lengthAdjust="spacing" textLength="124" x="1135.5" y="193.1211">List&lt;String&gt; _labels</text><line style="stroke:#181818;stroke-width:0.5;" x1="1116.5" x2="1343.5" y1="200.6348" y2="200.6348"/><rect fill="#F24D5C" height="6" style="stroke:#C82930;stroke-width:1.0;" width="6" x="1123.5" y="212.4453"/><text fill="#000000" font-family="sans-serif" font-size="14" lengthAdjust="spacing" textLength="203" x="1135.5" y="219.7422">List&lt;void Function()&gt; _callbacks</text><ellipse cx="1126.5" cy="234.0664" fill="#84BE84" rx="3" ry="3" style="stroke:#038048;stroke-width:1.0;"/><text fill="#000000" font-family="sans-serif" font-size="14" lengthAdjust="spacing" textLength="88" x="1135.5" y="238.3633">Widget build()</text></g><!--class MenuButton--><g id="elem_MenuButton"><rect codeLine="14" fill="#F1F1F1" height="85.2422" id="MenuButton" rx="2.5" ry="2.5" style="stroke:#181818;stroke-width:0.5;" width="114" x="945" y="151.5137"/><ellipse cx="962.7" cy="167.5137" fill="#ADD1B2" rx="11" ry="11" style="stroke:#181818;stroke-width:1.0;"/><path d="M965.4656,163.3887 Q965.6219,163.1699 965.8094,163.0605 Q965.9969,162.9512 966.2156,162.9512 Q966.5906,162.9512 966.825,163.2168 Q967.0594,163.4668 967.0594,164.0762 L967.0594,165.5293 Q967.0594,166.1387 966.825,166.4043 Q966.5906,166.6699 966.2156,166.6699 Q965.8719,166.6699 965.6688,166.4668 Q965.4656,166.2793 965.3563,165.7637 Q965.3094,165.4043 965.1219,165.2168 Q964.7938,164.8418 964.1844,164.623 Q963.575,164.4043 962.95,164.4043 Q962.1844,164.4043 961.5438,164.7324 Q960.9188,165.0605 960.4188,165.8105 Q959.9344,166.5605 959.9344,167.5918 L959.9344,168.6855 Q959.9344,169.9199 960.825,170.748 Q961.7156,171.5605 963.3094,171.5605 Q964.2469,171.5605 964.9031,171.3105 Q965.2938,171.1543 965.7156,170.7168 Q965.9813,170.4512 966.1219,170.373 Q966.2781,170.2949 966.4813,170.2949 Q966.8094,170.2949 967.0594,170.5605 Q967.325,170.8105 967.325,171.1543 Q967.325,171.498 966.9813,171.9043 Q966.4813,172.4824 965.6844,172.8105 Q964.6063,173.2637 963.3094,173.2637 Q961.7938,173.2637 960.5906,172.6387 Q959.6063,172.1387 958.9188,171.0762 Q958.2313,169.998 958.2313,168.7168 L958.2313,167.5605 Q958.2313,166.2324 958.8406,165.0918 Q959.4656,163.9355 960.5594,163.3262 Q961.6531,162.7012 962.8875,162.7012 Q963.6219,162.7012 964.2625,162.873 Q964.9188,163.0293 965.4656,163.3887 Z " fill="#000000"/><text fill="#000000" font-family="sans-serif" font-size="14" lengthAdjust="spacing" textLength="76" x="977.3" y="173.3105">MenuButton</text><line style="stroke:#181818;stroke-width:0.5;" x1="946" x2="1058" y1="183.5137" y2="183.5137"/><ellipse cx="956" cy="198.3242" fill="none" rx="3" ry="3" style="stroke:#038048;stroke-width:1.0;"/><text fill="#000000" font-family="sans-serif" font-size="14" lengthAdjust="spacing" textLength="71" x="965" y="202.6211">String label</text><line style="stroke:#181818;stroke-width:0.5;" x1="946" x2="1058" y1="210.1348" y2="210.1348"/><ellipse cx="956" cy="224.9453" fill="#84BE84" rx="3" ry="3" style="stroke:#038048;stroke-width:1.0;"/><text fill="#000000" font-family="sans-serif" font-size="14" lengthAdjust="spacing" textLength="88" x="965" y="229.2422">Widget build()</text></g><!--class MenuEmail--><g id="elem_MenuEmail"><rect codeLine="19" fill="#F1F1F1" height="66.6211" id="MenuEmail" rx="2.5" ry="2.5" style="stroke:#181818;stroke-width:0.5;" width="215" x="239.5" y="412.5137"/><ellipse cx="308.25" cy="428.5137" fill="#ADD1B2" rx="11" ry="11" style="stroke:#181818;stroke-width:1.0;"/><path d="M311.0156,424.3887 Q311.1719,424.1699 311.3594,424.0605 Q311.5469,423.9512 311.7656,423.9512 Q312.1406,423.9512 312.375,424.2168 Q312.6094,424.4668 312.6094,425.0762 L312.6094,426.5293 Q312.6094,427.1387 312.375,427.4043 Q312.1406,427.6699 311.7656,427.6699 Q311.4219,427.6699 311.2188,427.4668 Q311.0156,427.2793 310.9063,426.7637 Q310.8594,426.4043 310.6719,426.2168 Q310.3438,425.8418 309.7344,425.623 Q309.125,425.4043 308.5,425.4043 Q307.7344,425.4043 307.0938,425.7324 Q306.4688,426.0605 305.9688,426.8105 Q305.4844,427.5605 305.4844,428.5918 L305.4844,429.6855 Q305.4844,430.9199 306.375,431.748 Q307.2656,432.5605 308.8594,432.5605 Q309.7969,432.5605 310.4531,432.3105 Q310.8438,432.1543 311.2656,431.7168 Q311.5313,431.4512 311.6719,431.373 Q311.8281,431.2949 312.0313,431.2949 Q312.3594,431.2949 312.6094,431.5605 Q312.875,431.8105 312.875,432.1543 Q312.875,432.498 312.5313,432.9043 Q312.0313,433.4824 311.2344,433.8105 Q310.1563,434.2637 308.8594,434.2637 Q307.3438,434.2637 306.1406,433.6387 Q305.1563,433.1387 304.4688,432.0762 Q303.7813,430.998 303.7813,429.7168 L303.7813,428.5605 Q303.7813,427.2324 304.3906,426.0918 Q305.0156,424.9355 306.1094,424.3262 Q307.2031,423.7012 308.4375,423.7012 Q309.1719,423.7012 309.8125,423.873 Q310.4688,424.0293 311.0156,424.3887 Z " fill="#000000"/><text fill="#000000" font-family="sans-serif" font-size="14" lengthAdjust="spacing" textLength="69" x="328.75" y="434.3105">MenuEmail</text><line style="stroke:#181818;stroke-width:0.5;" x1="240.5" x2="453.5" y1="444.5137" y2="444.5137"/><line style="stroke:#181818;stroke-width:0.5;" x1="240.5" x2="453.5" y1="452.5137" y2="452.5137"/><ellipse cx="250.5" cy="467.3242" fill="#84BE84" rx="3" ry="3" style="stroke:#038048;stroke-width:1.0;"/><text fill="#000000" font-family="sans-serif" font-size="14" lengthAdjust="spacing" textLength="189" x="259.5" y="471.6211">StateMenuEmail createState()</text></g><!--class StateMenuEmail--><g id="elem_StateMenuEmail"><rect codeLine="25" fill="#F1F1F1" height="48" id="StateMenuEmail" rx="2.5" ry="2.5" style="stroke:#181818;stroke-width:0.5;" width="134" x="70" y="422.0137"/><ellipse cx="85" cy="438.0137" fill="#ADD1B2" rx="11" ry="11" style="stroke:#181818;stroke-width:1.0;"/><path d="M87.7656,433.8887 Q87.9219,433.6699 88.1094,433.5605 Q88.2969,433.4512 88.5156,433.4512 Q88.8906,433.4512 89.125,433.7168 Q89.3594,433.9668 89.3594,434.5762 L89.3594,436.0293 Q89.3594,436.6387 89.125,436.9043 Q88.8906,437.1699 88.5156,437.1699 Q88.1719,437.1699 87.9688,436.9668 Q87.7656,436.7793 87.6563,436.2637 Q87.6094,435.9043 87.4219,435.7168 Q87.0938,435.3418 86.4844,435.123 Q85.875,434.9043 85.25,434.9043 Q84.4844,434.9043 83.8438,435.2324 Q83.2188,435.5605 82.7188,436.3105 Q82.2344,437.0605 82.2344,438.0918 L82.2344,439.1855 Q82.2344,440.4199 83.125,441.248 Q84.0156,442.0605 85.6094,442.0605 Q86.5469,442.0605 87.2031,441.8105 Q87.5938,441.6543 88.0156,441.2168 Q88.2813,440.9512 88.4219,440.873 Q88.5781,440.7949 88.7813,440.7949 Q89.1094,440.7949 89.3594,441.0605 Q89.625,441.3105 89.625,441.6543 Q89.625,441.998 89.2813,442.4043 Q88.7813,442.9824 87.9844,443.3105 Q86.9063,443.7637 85.6094,443.7637 Q84.0938,443.7637 82.8906,443.1387 Q81.9063,442.6387 81.2188,441.5762 Q80.5313,440.498 80.5313,439.2168 L80.5313,438.0605 Q80.5313,436.7324 81.1406,435.5918 Q81.7656,434.4355 82.8594,433.8262 Q83.9531,433.2012 85.1875,433.2012 Q85.9219,433.2012 86.5625,433.373 Q87.2188,433.5293 87.7656,433.8887 Z " fill="#000000"/><text fill="#000000" font-family="sans-serif" font-size="14" lengthAdjust="spacing" textLength="102" x="99" y="443.8105">StateMenuEmail</text><line style="stroke:#181818;stroke-width:0.5;" x1="71" x2="203" y1="454.0137" y2="454.0137"/><line style="stroke:#181818;stroke-width:0.5;" x1="71" x2="203" y1="462.0137" y2="462.0137"/></g><!--class MenuInput--><g id="elem_MenuInput"><rect codeLine="30" fill="#F1F1F1" height="122.4844" id="MenuInput" rx="2.5" ry="2.5" style="stroke:#181818;stroke-width:0.5;" width="228" x="241" y="133.0137"/><ellipse cx="317.75" cy="149.0137" fill="#ADD1B2" rx="11" ry="11" style="stroke:#181818;stroke-width:1.0;"/><path d="M320.5156,144.8887 Q320.6719,144.6699 320.8594,144.5605 Q321.0469,144.4512 321.2656,144.4512 Q321.6406,144.4512 321.875,144.7168 Q322.1094,144.9668 322.1094,145.5762 L322.1094,147.0293 Q322.1094,147.6387 321.875,147.9043 Q321.6406,148.1699 321.2656,148.1699 Q320.9219,148.1699 320.7188,147.9668 Q320.5156,147.7793 320.4063,147.2637 Q320.3594,146.9043 320.1719,146.7168 Q319.8438,146.3418 319.2344,146.123 Q318.625,145.9043 318,145.9043 Q317.2344,145.9043 316.5938,146.2324 Q315.9688,146.5605 315.4688,147.3105 Q314.9844,148.0605 314.9844,149.0918 L314.9844,150.1855 Q314.9844,151.4199 315.875,152.248 Q316.7656,153.0605 318.3594,153.0605 Q319.2969,153.0605 319.9531,152.8105 Q320.3438,152.6543 320.7656,152.2168 Q321.0313,151.9512 321.1719,151.873 Q321.3281,151.7949 321.5313,151.7949 Q321.8594,151.7949 322.1094,152.0605 Q322.375,152.3105 322.375,152.6543 Q322.375,152.998 322.0313,153.4043 Q321.5313,153.9824 320.7344,154.3105 Q319.6563,154.7637 318.3594,154.7637 Q316.8438,154.7637 315.6406,154.1387 Q314.6563,153.6387 313.9688,152.5762 Q313.2813,151.498 313.2813,150.2168 L313.2813,149.0605 Q313.2813,147.7324 313.8906,146.5918 Q314.5156,145.4355 315.6094,144.8262 Q316.7031,144.2012 317.9375,144.2012 Q318.6719,144.2012 319.3125,144.373 Q319.9688,144.5293 320.5156,144.8887 Z " fill="#000000"/><text fill="#000000" font-family="sans-serif" font-size="14" lengthAdjust="spacing" textLength="66" x="338.25" y="154.8105">MenuInput</text><line style="stroke:#181818;stroke-width:0.5;" x1="242" x2="468" y1="165.0137" y2="165.0137"/><ellipse cx="252" cy="179.8242" fill="none" rx="3" ry="3" style="stroke:#038048;stroke-width:1.0;"/><text fill="#000000" font-family="sans-serif" font-size="14" lengthAdjust="spacing" textLength="71" x="261" y="184.1211">String label</text><ellipse cx="252" cy="198.4453" fill="none" rx="3" ry="3" style="stroke:#038048;stroke-width:1.0;"/><text fill="#000000" font-family="sans-serif" font-size="14" lengthAdjust="spacing" textLength="89" x="261" y="202.7422">bool? hasNext</text><ellipse cx="252" cy="217.0664" fill="none" rx="3" ry="3" style="stroke:#038048;stroke-width:1.0;"/><text fill="#000000" font-family="sans-serif" font-size="14" lengthAdjust="spacing" textLength="75" x="261" y="221.3633">String value</text><line style="stroke:#181818;stroke-width:0.5;" x1="242" x2="468" y1="228.877" y2="228.877"/><ellipse cx="252" cy="243.6875" fill="#84BE84" rx="3" ry="3" style="stroke:#038048;stroke-width:1.0;"/><text fill="#000000" font-family="sans-serif" font-size="14" lengthAdjust="spacing" textLength="202" x="261" y="247.9844">State&lt;MenuInput&gt; createState()</text></g><!--class StateMenuInput--><g id="elem_StateMenuInput"><rect codeLine="37" fill="#F1F1F1" height="103.8633" id="StateMenuInput" rx="2.5" ry="2.5" style="stroke:#181818;stroke-width:0.5;" width="135" x="70.5" y="142.0137"/><ellipse cx="87.3" cy="158.0137" fill="#ADD1B2" rx="11" ry="11" style="stroke:#181818;stroke-width:1.0;"/><path d="M90.0656,153.8887 Q90.2219,153.6699 90.4094,153.5605 Q90.5969,153.4512 90.8156,153.4512 Q91.1906,153.4512 91.425,153.7168 Q91.6594,153.9668 91.6594,154.5762 L91.6594,156.0293 Q91.6594,156.6387 91.425,156.9043 Q91.1906,157.1699 90.8156,157.1699 Q90.4719,157.1699 90.2688,156.9668 Q90.0656,156.7793 89.9563,156.2637 Q89.9094,155.9043 89.7219,155.7168 Q89.3938,155.3418 88.7844,155.123 Q88.175,154.9043 87.55,154.9043 Q86.7844,154.9043 86.1438,155.2324 Q85.5188,155.5605 85.0188,156.3105 Q84.5344,157.0605 84.5344,158.0918 L84.5344,159.1855 Q84.5344,160.4199 85.425,161.248 Q86.3156,162.0605 87.9094,162.0605 Q88.8469,162.0605 89.5031,161.8105 Q89.8938,161.6543 90.3156,161.2168 Q90.5813,160.9512 90.7219,160.873 Q90.8781,160.7949 91.0813,160.7949 Q91.4094,160.7949 91.6594,161.0605 Q91.925,161.3105 91.925,161.6543 Q91.925,161.998 91.5813,162.4043 Q91.0813,162.9824 90.2844,163.3105 Q89.2063,163.7637 87.9094,163.7637 Q86.3938,163.7637 85.1906,163.1387 Q84.2063,162.6387 83.5188,161.5762 Q82.8313,160.498 82.8313,159.2168 L82.8313,158.0605 Q82.8313,156.7324 83.4406,155.5918 Q84.0656,154.4355 85.1594,153.8262 Q86.2531,153.2012 87.4875,153.2012 Q88.2219,153.2012 88.8625,153.373 Q89.5188,153.5293 90.0656,153.8887 Z " fill="#000000"/><text fill="#000000" font-family="sans-serif" font-size="14" lengthAdjust="spacing" textLength="99" x="101.7" y="163.8105">StateMenuInput</text><line style="stroke:#181818;stroke-width:0.5;" x1="71.5" x2="204.5" y1="174.0137" y2="174.0137"/><ellipse cx="81.5" cy="188.8242" fill="none" rx="3" ry="3" style="stroke:#038048;stroke-width:1.0;"/><text fill="#000000" font-family="sans-serif" font-size="14" lengthAdjust="spacing" textLength="109" x="90.5" y="193.1211">bool obscureText</text><line style="stroke:#181818;stroke-width:0.5;" x1="71.5" x2="204.5" y1="200.6348" y2="200.6348"/><ellipse cx="81.5" cy="215.4453" fill="#84BE84" rx="3" ry="3" style="stroke:#038048;stroke-width:1.0;"/><text fill="#000000" font-family="sans-serif" font-size="14" lengthAdjust="spacing" textLength="88" x="90.5" y="219.7422">Widget build()</text><ellipse cx="81.5" cy="234.0664" fill="#84BE84" rx="3" ry="3" style="stroke:#038048;stroke-width:1.0;"/><text fill="#000000" font-family="sans-serif" font-size="14" lengthAdjust="spacing" textLength="89" x="90.5" y="238.3633">void dispose()</text></g><!--class MenuPassword--><g id="elem_MenuPassword"><rect codeLine="43" fill="#F1F1F1" height="66.6211" id="MenuPassword" rx="2.5" ry="2.5" style="stroke:#181818;stroke-width:0.5;" width="242" x="758" y="412.5137"/><ellipse cx="826.75" cy="428.5137" fill="#ADD1B2" rx="11" ry="11" style="stroke:#181818;stroke-width:1.0;"/><path d="M829.5156,424.3887 Q829.6719,424.1699 829.8594,424.0605 Q830.0469,423.9512 830.2656,423.9512 Q830.6406,423.9512 830.875,424.2168 Q831.1094,424.4668 831.1094,425.0762 L831.1094,426.5293 Q831.1094,427.1387 830.875,427.4043 Q830.6406,427.6699 830.2656,427.6699 Q829.9219,427.6699 829.7188,427.4668 Q829.5156,427.2793 829.4063,426.7637 Q829.3594,426.4043 829.1719,426.2168 Q828.8438,425.8418 828.2344,425.623 Q827.625,425.4043 827,425.4043 Q826.2344,425.4043 825.5938,425.7324 Q824.9688,426.0605 824.4688,426.8105 Q823.9844,427.5605 823.9844,428.5918 L823.9844,429.6855 Q823.9844,430.9199 824.875,431.748 Q825.7656,432.5605 827.3594,432.5605 Q828.2969,432.5605 828.9531,432.3105 Q829.3438,432.1543 829.7656,431.7168 Q830.0313,431.4512 830.1719,431.373 Q830.3281,431.2949 830.5313,431.2949 Q830.8594,431.2949 831.1094,431.5605 Q831.375,431.8105 831.375,432.1543 Q831.375,432.498 831.0313,432.9043 Q830.5313,433.4824 829.7344,433.8105 Q828.6563,434.2637 827.3594,434.2637 Q825.8438,434.2637 824.6406,433.6387 Q823.6563,433.1387 822.9688,432.0762 Q822.2813,430.998 822.2813,429.7168 L822.2813,428.5605 Q822.2813,427.2324 822.8906,426.0918 Q823.5156,424.9355 824.6094,424.3262 Q825.7031,423.7012 826.9375,423.7012 Q827.6719,423.7012 828.3125,423.873 Q828.9688,424.0293 829.5156,424.3887 Z " fill="#000000"/><text fill="#000000" font-family="sans-serif" font-size="14" lengthAdjust="spacing" textLength="96" x="847.25" y="434.3105">MenuPassword</text><line style="stroke:#181818;stroke-width:0.5;" x1="759" x2="999" y1="444.5137" y2="444.5137"/><line style="stroke:#181818;stroke-width:0.5;" x1="759" x2="999" y1="452.5137" y2="452.5137"/><ellipse cx="769" cy="467.3242" fill="#84BE84" rx="3" ry="3" style="stroke:#038048;stroke-width:1.0;"/><text fill="#000000" font-family="sans-serif" font-size="14" lengthAdjust="spacing" textLength="216" x="778" y="471.6211">StateMenuPassword createState()</text></g><!--class StateMenuPassword--><g id="elem_StateMenuPassword"><rect codeLine="49" fill="#F1F1F1" height="103.8633" id="StateMenuPassword" rx="2.5" ry="2.5" style="stroke:#181818;stroke-width:0.5;" width="212" x="511" y="394.0137"/><ellipse cx="548.95" cy="410.0137" fill="#ADD1B2" rx="11" ry="11" style="stroke:#181818;stroke-width:1.0;"/><path d="M551.7156,405.8887 Q551.8719,405.6699 552.0594,405.5605 Q552.2469,405.4512 552.4656,405.4512 Q552.8406,405.4512 553.075,405.7168 Q553.3094,405.9668 553.3094,406.5762 L553.3094,408.0293 Q553.3094,408.6387 553.075,408.9043 Q552.8406,409.1699 552.4656,409.1699 Q552.1219,409.1699 551.9188,408.9668 Q551.7156,408.7793 551.6063,408.2637 Q551.5594,407.9043 551.3719,407.7168 Q551.0438,407.3418 550.4344,407.123 Q549.825,406.9043 549.2,406.9043 Q548.4344,406.9043 547.7938,407.2324 Q547.1688,407.5605 546.6688,408.3105 Q546.1844,409.0605 546.1844,410.0918 L546.1844,411.1855 Q546.1844,412.4199 547.075,413.248 Q547.9656,414.0605 549.5594,414.0605 Q550.4969,414.0605 551.1531,413.8105 Q551.5438,413.6543 551.9656,413.2168 Q552.2313,412.9512 552.3719,412.873 Q552.5281,412.7949 552.7313,412.7949 Q553.0594,412.7949 553.3094,413.0605 Q553.575,413.3105 553.575,413.6543 Q553.575,413.998 553.2313,414.4043 Q552.7313,414.9824 551.9344,415.3105 Q550.8563,415.7637 549.5594,415.7637 Q548.0438,415.7637 546.8406,415.1387 Q545.8563,414.6387 545.1688,413.5762 Q544.4813,412.498 544.4813,411.2168 L544.4813,410.0605 Q544.4813,408.7324 545.0906,407.5918 Q545.7156,406.4355 546.8094,405.8262 Q547.9031,405.2012 549.1375,405.2012 Q549.8719,405.2012 550.5125,405.373 Q551.1688,405.5293 551.7156,405.8887 Z " fill="#000000"/><text fill="#000000" font-family="sans-serif" font-size="14" lengthAdjust="spacing" textLength="129" x="568.05" y="415.8105">StateMenuPassword</text><line style="stroke:#181818;stroke-width:0.5;" x1="512" x2="722" y1="426.0137" y2="426.0137"/><rect fill="none" height="6" style="stroke:#C82930;stroke-width:1.0;" width="6" x="519" y="437.8242"/><text fill="#000000" font-family="sans-serif" font-size="14" lengthAdjust="spacing" textLength="98" x="531" y="445.1211">bool _obscured</text><ellipse cx="522" cy="459.4453" fill="none" rx="3" ry="3" style="stroke:#038048;stroke-width:1.0;"/><text fill="#000000" font-family="sans-serif" font-size="14" lengthAdjust="spacing" textLength="109" x="531" y="463.7422">bool obscureText</text><line style="stroke:#181818;stroke-width:0.5;" x1="512" x2="722" y1="471.2559" y2="471.2559"/><ellipse cx="522" cy="486.0664" fill="#84BE84" rx="3" ry="3" style="stroke:#038048;stroke-width:1.0;"/><text fill="#000000" font-family="sans-serif" font-size="14" lengthAdjust="spacing" textLength="186" x="531" y="490.3633">dynamic toggleObscureText()</text></g><!--class PracticeButton--><g id="elem_PracticeButton"><rect codeLine="57" fill="#F1F1F1" height="122.4844" id="PracticeButton" rx="2.5" ry="2.5" style="stroke:#181818;stroke-width:0.5;" width="173" x="715.5" y="133.0137"/><ellipse cx="752.55" cy="149.0137" fill="#ADD1B2" rx="11" ry="11" style="stroke:#181818;stroke-width:1.0;"/><path d="M755.3156,144.8887 Q755.4719,144.6699 755.6594,144.5605 Q755.8469,144.4512 756.0656,144.4512 Q756.4406,144.4512 756.675,144.7168 Q756.9094,144.9668 756.9094,145.5762 L756.9094,147.0293 Q756.9094,147.6387 756.675,147.9043 Q756.4406,148.1699 756.0656,148.1699 Q755.7219,148.1699 755.5188,147.9668 Q755.3156,147.7793 755.2063,147.2637 Q755.1594,146.9043 754.9719,146.7168 Q754.6438,146.3418 754.0344,146.123 Q753.425,145.9043 752.8,145.9043 Q752.0344,145.9043 751.3938,146.2324 Q750.7688,146.5605 750.2688,147.3105 Q749.7844,148.0605 749.7844,149.0918 L749.7844,150.1855 Q749.7844,151.4199 750.675,152.248 Q751.5656,153.0605 753.1594,153.0605 Q754.0969,153.0605 754.7531,152.8105 Q755.1438,152.6543 755.5656,152.2168 Q755.8313,151.9512 755.9719,151.873 Q756.1281,151.7949 756.3313,151.7949 Q756.6594,151.7949 756.9094,152.0605 Q757.175,152.3105 757.175,152.6543 Q757.175,152.998 756.8313,153.4043 Q756.3313,153.9824 755.5344,154.3105 Q754.4563,154.7637 753.1594,154.7637 Q751.6438,154.7637 750.4406,154.1387 Q749.4563,153.6387 748.7688,152.5762 Q748.0813,151.498 748.0813,150.2168 L748.0813,149.0605 Q748.0813,147.7324 748.6906,146.5918 Q749.3156,145.4355 750.4094,144.8262 Q751.5031,144.2012 752.7375,144.2012 Q753.4719,144.2012 754.1125,144.373 Q754.7688,144.5293 755.3156,144.8887 Z " fill="#000000"/><text fill="#000000" font-family="sans-serif" font-size="14" lengthAdjust="spacing" textLength="92" x="771.45" y="154.8105">PracticeButton</text><line style="stroke:#181818;stroke-width:0.5;" x1="716.5" x2="887.5" y1="165.0137" y2="165.0137"/><ellipse cx="726.5" cy="179.8242" fill="none" rx="3" ry="3" style="stroke:#038048;stroke-width:1.0;"/><text fill="#000000" font-family="sans-serif" font-size="14" lengthAdjust="spacing" textLength="113" x="735.5" y="184.1211">Practice? practice</text><line style="stroke:#181818;stroke-width:0.5;" x1="716.5" x2="887.5" y1="191.6348" y2="191.6348"/><ellipse cx="726.5" cy="206.4453" fill="#84BE84" rx="3" ry="3" style="stroke:#038048;stroke-width:1.0;"/><text fill="#000000" font-family="sans-serif" font-size="14" lengthAdjust="spacing" textLength="88" x="735.5" y="210.7422">Widget build()</text><rect fill="#F24D5C" height="6" style="stroke:#C82930;stroke-width:1.0;" width="6" x="723.5" y="222.0664"/><text fill="#000000" font-family="sans-serif" font-size="14" lengthAdjust="spacing" textLength="119" x="735.5" y="229.3633">Widget _buildNull()</text><rect fill="#F24D5C" height="6" style="stroke:#C82930;stroke-width:1.0;" width="6" x="723.5" y="240.6875"/><text fill="#000000" font-family="sans-serif" font-size="14" lengthAdjust="spacing" textLength="147" x="735.5" y="247.9844">Widget _buildPractice()</text></g><!--class TheoryButton--><g id="elem_TheoryButton"><rect codeLine="66" fill="#F1F1F1" height="103.8633" id="TheoryButton" rx="2.5" ry="2.5" style="stroke:#181818;stroke-width:0.5;" width="133" x="525.5" y="142.0137"/><ellipse cx="547.25" cy="158.0137" fill="#ADD1B2" rx="11" ry="11" style="stroke:#181818;stroke-width:1.0;"/><path d="M550.0156,153.8887 Q550.1719,153.6699 550.3594,153.5605 Q550.5469,153.4512 550.7656,153.4512 Q551.1406,153.4512 551.375,153.7168 Q551.6094,153.9668 551.6094,154.5762 L551.6094,156.0293 Q551.6094,156.6387 551.375,156.9043 Q551.1406,157.1699 550.7656,157.1699 Q550.4219,157.1699 550.2188,156.9668 Q550.0156,156.7793 549.9063,156.2637 Q549.8594,155.9043 549.6719,155.7168 Q549.3438,155.3418 548.7344,155.123 Q548.125,154.9043 547.5,154.9043 Q546.7344,154.9043 546.0938,155.2324 Q545.4688,155.5605 544.9688,156.3105 Q544.4844,157.0605 544.4844,158.0918 L544.4844,159.1855 Q544.4844,160.4199 545.375,161.248 Q546.2656,162.0605 547.8594,162.0605 Q548.7969,162.0605 549.4531,161.8105 Q549.8438,161.6543 550.2656,161.2168 Q550.5313,160.9512 550.6719,160.873 Q550.8281,160.7949 551.0313,160.7949 Q551.3594,160.7949 551.6094,161.0605 Q551.875,161.3105 551.875,161.6543 Q551.875,161.998 551.5313,162.4043 Q551.0313,162.9824 550.2344,163.3105 Q549.1563,163.7637 547.8594,163.7637 Q546.3438,163.7637 545.1406,163.1387 Q544.1563,162.6387 543.4688,161.5762 Q542.7813,160.498 542.7813,159.2168 L542.7813,158.0605 Q542.7813,156.7324 543.3906,155.5918 Q544.0156,154.4355 545.1094,153.8262 Q546.2031,153.2012 547.4375,153.2012 Q548.1719,153.2012 548.8125,153.373 Q549.4688,153.5293 550.0156,153.8887 Z " fill="#000000"/><text fill="#000000" font-family="sans-serif" font-size="14" lengthAdjust="spacing" textLength="86" x="562.75" y="163.8105">TheoryButton</text><line style="stroke:#181818;stroke-width:0.5;" x1="526.5" x2="657.5" y1="174.0137" y2="174.0137"/><ellipse cx="536.5" cy="188.8242" fill="none" rx="3" ry="3" style="stroke:#038048;stroke-width:1.0;"/><text fill="#000000" font-family="sans-serif" font-size="14" lengthAdjust="spacing" textLength="89" x="545.5" y="193.1211">Theory theory</text><line style="stroke:#181818;stroke-width:0.5;" x1="526.5" x2="657.5" y1="200.6348" y2="200.6348"/><ellipse cx="536.5" cy="215.4453" fill="#84BE84" rx="3" ry="3" style="stroke:#038048;stroke-width:1.0;"/><text fill="#000000" font-family="sans-serif" font-size="14" lengthAdjust="spacing" textLength="88" x="545.5" y="219.7422">Widget build()</text><ellipse cx="536.5" cy="234.0664" fill="#84BE84" rx="3" ry="3" style="stroke:#038048;stroke-width:1.0;"/><text fill="#000000" font-family="sans-serif" font-size="14" lengthAdjust="spacing" textLength="107" x="545.5" y="238.3633">dynamic onTap()</text></g><!--class Practice--><g id="elem_Practice"><rect fill="#F1F1F1" height="48" id="Practice" rx="2.5" ry="2.5" style="stroke:#181818;stroke-width:0.5;" width="83" x="1835.5" y="422.0137"/><ellipse cx="1850.5" cy="438.0137" fill="#ADD1B2" rx="11" ry="11" style="stroke:#181818;stroke-width:1.0;"/><path d="M1853.2656,433.8887 Q1853.4219,433.6699 1853.6094,433.5605 Q1853.7969,433.4512 1854.0156,433.4512 Q1854.3906,433.4512 1854.625,433.7168 Q1854.8594,433.9668 1854.8594,434.5762 L1854.8594,436.0293 Q1854.8594,436.6387 1854.625,436.9043 Q1854.3906,437.1699 1854.0156,437.1699 Q1853.6719,437.1699 1853.4688,436.9668 Q1853.2656,436.7793 1853.1563,436.2637 Q1853.1094,435.9043 1852.9219,435.7168 Q1852.5938,435.3418 1851.9844,435.123 Q1851.375,434.9043 1850.75,434.9043 Q1849.9844,434.9043 1849.3438,435.2324 Q1848.7188,435.5605 1848.2188,436.3105 Q1847.7344,437.0605 1847.7344,438.0918 L1847.7344,439.1855 Q1847.7344,440.4199 1848.625,441.248 Q1849.5156,442.0605 1851.1094,442.0605 Q1852.0469,442.0605 1852.7031,441.8105 Q1853.0938,441.6543 1853.5156,441.2168 Q1853.7813,440.9512 1853.9219,440.873 Q1854.0781,440.7949 1854.2813,440.7949 Q1854.6094,440.7949 1854.8594,441.0605 Q1855.125,441.3105 1855.125,441.6543 Q1855.125,441.998 1854.7813,442.4043 Q1854.2813,442.9824 1853.4844,443.3105 Q1852.4063,443.7637 1851.1094,443.7637 Q1849.5938,443.7637 1848.3906,443.1387 Q1847.4063,442.6387 1846.7188,441.5762 Q1846.0313,440.498 1846.0313,439.2168 L1846.0313,438.0605 Q1846.0313,436.7324 1846.6406,435.5918 Q1847.2656,434.4355 1848.3594,433.8262 Q1849.4531,433.2012 1850.6875,433.2012 Q1851.4219,433.2012 1852.0625,433.373 Q1852.7188,433.5293 1853.2656,433.8887 Z " fill="#000000"/><text fill="#000000" font-family="sans-serif" font-size="14" lengthAdjust="spacing" textLength="51" x="1864.5" y="443.8105">Practice</text><line style="stroke:#181818;stroke-width:0.5;" x1="1836.5" x2="1917.5" y1="454.0137" y2="454.0137"/><line style="stroke:#181818;stroke-width:0.5;" x1="1836.5" x2="1917.5" y1="462.0137" y2="462.0137"/></g><!--class Theory--><g id="elem_Theory"><rect fill="#F1F1F1" height="48" id="Theory" rx="2.5" ry="2.5" style="stroke:#181818;stroke-width:0.5;" width="77" x="1653.5" y="422.0137"/><ellipse cx="1668.5" cy="438.0137" fill="#ADD1B2" rx="11" ry="11" style="stroke:#181818;stroke-width:1.0;"/><path d="M1671.2656,433.8887 Q1671.4219,433.6699 1671.6094,433.5605 Q1671.7969,433.4512 1672.0156,433.4512 Q1672.3906,433.4512 1672.625,433.7168 Q1672.8594,433.9668 1672.8594,434.5762 L1672.8594,436.0293 Q1672.8594,436.6387 1672.625,436.9043 Q1672.3906,437.1699 1672.0156,437.1699 Q1671.6719,437.1699 1671.4688,436.9668 Q1671.2656,436.7793 1671.1563,436.2637 Q1671.1094,435.9043 1670.9219,435.7168 Q1670.5938,435.3418 1669.9844,435.123 Q1669.375,434.9043 1668.75,434.9043 Q1667.9844,434.9043 1667.3438,435.2324 Q1666.7188,435.5605 1666.2188,436.3105 Q1665.7344,437.0605 1665.7344,438.0918 L1665.7344,439.1855 Q1665.7344,440.4199 1666.625,441.248 Q1667.5156,442.0605 1669.1094,442.0605 Q1670.0469,442.0605 1670.7031,441.8105 Q1671.0938,441.6543 1671.5156,441.2168 Q1671.7813,440.9512 1671.9219,440.873 Q1672.0781,440.7949 1672.2813,440.7949 Q1672.6094,440.7949 1672.8594,441.0605 Q1673.125,441.3105 1673.125,441.6543 Q1673.125,441.998 1672.7813,442.4043 Q1672.2813,442.9824 1671.4844,443.3105 Q1670.4063,443.7637 1669.1094,443.7637 Q1667.5938,443.7637 1666.3906,443.1387 Q1665.4063,442.6387 1664.7188,441.5762 Q1664.0313,440.498 1664.0313,439.2168 L1664.0313,438.0605 Q1664.0313,436.7324 1664.6406,435.5918 Q1665.2656,434.4355 1666.3594,433.8262 Q1667.4531,433.2012 1668.6875,433.2012 Q1669.4219,433.2012 1670.0625,433.373 Q1670.7188,433.5293 1671.2656,433.8887 Z " fill="#000000"/><text fill="#000000" font-family="sans-serif" font-size="14" lengthAdjust="spacing" textLength="45" x="1682.5" y="443.8105">Theory</text><line style="stroke:#181818;stroke-width:0.5;" x1="1654.5" x2="1729.5" y1="454.0137" y2="454.0137"/><line style="stroke:#181818;stroke-width:0.5;" x1="1654.5" x2="1729.5" y1="462.0137" y2="462.0137"/></g><!--reverse link MenuInput to MenuEmail--><g id="link_MenuInput_MenuEmail"><path codeLine="23" d="M352.4947,273.2045 C350.9147,322.6145 349.31,372.7137 348.04,412.4737 " fill="none" id="MenuInput-backto-MenuEmail" style="stroke:#181818;stroke-width:1.0;"/><polygon fill="none" points="353.07,255.2137,346.4978,273.0127,358.4916,273.3962,353.07,255.2137" style="stroke:#181818;stroke-width:1.0;"/></g><!--reverse link StateMenuInput to StateMenuEmail--><g id="link_StateMenuInput_StateMenuEmail"><path codeLine="28" d="M137.7263,264.2035 C137.5063,317.9235 137.25,381.9637 137.09,421.7537 " fill="none" id="StateMenuInput-backto-StateMenuEmail" style="stroke:#181818;stroke-width:1.0;"/><polygon fill="none" points="137.8,246.2037,131.7263,264.1789,143.7262,264.2281,137.8,246.2037" style="stroke:#181818;stroke-width:1.0;"/></g><!--reverse link MenuInput to MenuPassword--><g id="link_MenuInput_MenuPassword"><path codeLine="47" d="M465.086,263.2405 C484.266,272.9305 488.73,273.4737 509,279.0137 C533.88,285.8137 717.7,275.9437 741,287.0137 C796.92,313.5937 839.43,374.5437 861.67,412.5037 " fill="none" id="MenuInput-backto-MenuPassword" style="stroke:#181818;stroke-width:1.0;"/><polygon fill="none" points="449.02,255.1237,462.3804,268.5958,467.7916,257.8851,449.02,255.1237" style="stroke:#181818;stroke-width:1.0;"/></g><!--reverse link StateMenuInput to StateMenuPassword--><g id="link_StateMenuInput_StateMenuPassword"><path codeLine="55" d="M190.9774,259.0221 C204.0574,272.0621 206.91,271.7337 224,279.0137 C274.52,300.5537 421.05,264.1937 471,287.0137 C520.09,309.4437 560.28,356.8937 585.97,393.9737 " fill="none" id="StateMenuInput-backto-StateMenuPassword" style="stroke:#181818;stroke-width:1.0;"/><polygon fill="none" points="178.23,246.3137,186.7413,263.2712,195.2135,254.773,178.23,246.3137" style="stroke:#181818;stroke-width:1.0;"/></g><!--reverse link PracticeButton to Practice--><g id="link_PracticeButton_Practice"><path codeLine="64" d="M887.9208,261.2788 C904.0308,271.1188 911.31,273.5937 929,279.0137 C972.46,292.3137 1706,267.4037 1747,287.0137 C1806.29,315.3637 1847.78,385.2537 1866.23,421.8337 " fill="none" id="PracticeButton-backto-Practice" style="stroke:#181818;stroke-width:1.0;"/><polygon fill="none" points="877.68,255.0237,880.7154,261.5648,887.9208,261.2788,884.8854,254.7376,877.68,255.0237" style="stroke:#181818;stroke-width:1.0;"/></g><!--reverse link TheoryButton to Theory--><g id="link_TheoryButton_Theory"><path codeLine="72" d="M652.7543,253.6101 C669.1943,266.8201 679,271.8137 699,279.0137 C732.15,290.9437 981.05,282.5337 1016,287.0137 C1262.57,318.6037 1550.62,401.8437 1653.27,433.0137 " fill="none" id="TheoryButton-backto-Theory" style="stroke:#181818;stroke-width:1.0;"/><polygon fill="none" points="643.4,246.0937,645.5717,252.97,652.7543,253.6101,650.5826,246.7338,643.4,246.0937" style="stroke:#181818;stroke-width:1.0;"/></g><!--SRC=[jLJRIWCn47tlLmnzKgH-m58gA0g2bq8BFfPiChJ1T1EIYLNKVpTxRNVTRNS5dpOvoPmvSp8x3WaIjaLd6CS56cOPQGjHD1fnnPo3iIDcoPiesacnHd9Hn3VC4DfLx8bqSYd2UHJTvE1rXetXSmHmiI0hapMG98Nf_YLZWDXB9SxEHzz7ScmnyGNpOrZcX9C7wMYQiyvWfLYCobNucvO2xdp2IUhax3nSu4ofcF5NzuVazUfI3MsbPHB-mevR9jK1-MswhxWPOGK2jnZs6PWpTt7An7WwuBnFzsEOVaqc0tKCKLzNcvRGKs8LE5Hd8-CfiHssj3vZhBMwWWrpJ_XE1nVUcF9OlSsqefdzVft-Ofe6V9OAGCUEUulBGaIZkGAIzRgGpcZNAwq9XpjjnO4Dym9gDbs9_s_V7HCqi9XVoejXaJcvAgmKNTwAZp3-90VIwxN2v_rX_ve7DV99yKUgDvQ5uSQnFflc1LgRJoLu1MLGQoDD2cILGKzUgHQuvEfqf9ykNNDbgqKOtllO_QeHVimGsg2s7_MqomohcP53aDzk_w7ADj39afdEGa_dQoyoZok_jS1GtWy0]--></g></svg>